<svg width="32" height="32" viewBox="0 0 32 32" fill="none" xmlns="http://www.w3.org/2000/svg">
<path d="M19.7868 15.6624C19.6634 15.7337 19.5168 15.7534 19.3795 15.7171L19.0761 15.637C18.9387 15.6008 18.8218 15.5115 18.751 15.3889L17.9047 13.9231C17.834 13.8005 17.8151 13.6546 17.8524 13.5175L17.9347 13.2148C17.972 13.0777 18.0623 12.9606 18.1858 12.8893L26.3733 8.16225C26.6304 8.0138 26.9583 8.10038 27.1057 8.35564L28.1731 10.2044C28.3205 10.4597 28.2315 10.7869 27.9743 10.9354L19.7868 15.6624Z" fill="#F4FECC"/>
<path d="M18.1661 19.097C18.0431 19.0265 17.9535 18.91 17.9171 18.7731L17.8367 18.4709C17.8003 18.334 17.8201 18.188 17.8916 18.065L18.7472 16.5937C18.8188 16.4707 18.9363 16.3807 19.0739 16.3436L19.3777 16.2616C19.5153 16.2244 19.6617 16.2432 19.7848 16.3137L27.9425 20.9892C28.1987 21.136 28.2856 21.4627 28.1366 21.7189L27.0575 23.5745C26.9085 23.8307 26.58 23.9193 26.3238 23.7725L18.1661 19.097Z" fill="#C8F900"/>
<path d="M14.3793 19.4346C14.3797 19.2928 14.4367 19.1566 14.5376 19.056L14.7606 18.8338C14.8616 18.7332 14.9982 18.6765 15.1406 18.676L16.8425 18.6707C16.9848 18.6702 17.1211 18.7261 17.2215 18.8261L17.443 19.0468C17.5433 19.1468 17.5995 19.2826 17.599 19.4244L17.5692 28.8269C17.5683 29.1222 17.3273 29.3624 17.0309 29.3633L14.8844 29.3701C14.5881 29.371 14.3486 29.1324 14.3495 28.8371L14.3793 19.4346Z" fill="#C8F900"/>
<path d="M13.8142 19.1107C13.9377 19.0394 14.028 18.9224 14.0653 18.7853L14.1476 18.4825C14.1849 18.3454 14.1661 18.1995 14.0953 18.0769L13.249 16.6111C13.1782 16.4885 13.0613 16.3993 12.9239 16.363L12.6205 16.2829C12.4832 16.2466 12.3367 16.2663 12.2132 16.3376L4.02567 21.0647C3.76854 21.2131 3.67957 21.5404 3.82694 21.7956L4.89432 23.6444C5.04169 23.8997 5.36961 23.9862 5.62674 23.8378L13.8142 19.1107Z" fill="#F4FECC"/>
<path d="M12.2152 15.6863C12.3383 15.7568 12.4847 15.7756 12.6223 15.7385L12.9262 15.6564C13.0637 15.6193 13.1812 15.5293 13.2528 15.4063L14.1084 13.9351C14.18 13.812 14.1997 13.666 14.1633 13.5292L14.0829 13.2269C14.0465 13.0901 13.9569 12.9736 13.8339 12.903L5.67617 8.22756C5.41998 8.08073 5.09151 8.16938 4.94251 8.42558L3.8634 10.2811C3.71441 10.5373 3.80131 10.864 4.05751 11.0109L12.2152 15.6863Z" fill="#C8F900"/>
<path d="M14.401 12.5756C14.4005 12.7174 14.4567 12.8532 14.557 12.9532L14.7785 13.174C14.8789 13.2739 15.0152 13.3298 15.1575 13.3294L16.8594 13.324C17.0018 13.3235 17.1384 13.2668 17.2394 13.1662L17.4624 12.944C17.5633 12.8434 17.6203 12.7073 17.6207 12.5655L17.6505 3.16292C17.6514 2.86763 17.4119 2.62901 17.1156 2.62995L14.9691 2.63672C14.6727 2.63765 14.4317 2.87779 14.4308 3.17308L14.401 12.5756Z" fill="#C8F900"/>
</svg>
