<svg width="40" height="40" viewBox="0 0 40 40" fill="none" xmlns="http://www.w3.org/2000/svg">
<path d="M32 4C34.2091 4 36 5.79086 36 8V32C36 34.2091 34.2091 36 32 36H8C5.79086 36 4 34.2091 4 32V8C4 5.79086 5.79086 4 8 4H32ZM8 11V28H15.9131C18.9565 28 21 26.0914 21 23.2168C20.9998 21.3832 19.9566 19.6735 18.3916 18.9053C19.261 18.0876 19.826 16.7495 19.8262 15.585C19.8262 12.8342 17.8694 11 14.9346 11H8ZM26.5 17C23.2122 17 21 19.2083 21 22.5C21 25.7917 23.2122 28 26.5 28C28.9759 28 31.087 26.4585 31.7568 24.167H29.2803C28.8134 25.2085 27.6973 25.917 26.5 25.917C24.917 25.917 23.6988 24.8125 23.4756 23.1875H31.7969L32 22.9795V22.5C32 19.2083 29.7878 17 26.5 17ZM15.9346 20.7637C17.2172 20.7637 18.0869 21.6313 18.0869 22.9199C18.0869 24.1837 17.2174 25.0263 15.9131 25.0264H10.9131V20.7637H15.9346ZM26.5 19.083C27.7786 19.083 28.9148 19.8962 29.3613 21.1045H23.6387C24.0852 19.8962 25.2214 19.083 26.5 19.083ZM14.9346 13.9736C16.1085 13.9736 16.913 14.7419 16.9131 15.8818C16.9131 17.0218 16.1085 17.79 14.9346 17.79H10.9131V13.9736H14.9346Z" fill="#808080"/>
</svg>
