<svg width="13" height="12" viewBox="0 0 13 12" fill="none" xmlns="http://www.w3.org/2000/svg">
<path d="M5.54 5.43C5.565 5.265 5.62 5.12 5.69 5C5.84 4.72 6.095 4.575 6.44 4.57C6.665 4.57 6.87 4.67 7.015 4.815C7.155 4.97 7.25 5.185 7.25 5.4H8.15C8.14 5.165 8.095 4.95 8 4.75C7.925 4.56 7.81 4.39 7.66 4.25C6.935 3.58 5.59 3.675 4.975 4.435C4.33 5.27 4.315 6.73 4.97 7.565C5.575 8.31 6.9 8.415 7.62 7.75C7.775 7.625 7.9 7.47 8 7.29C8.08 7.11 8.135 6.92 8.14 6.715H7.25C7.25 6.82 7.215 6.915 7.17 7C7.125 7.095 7.065 7.17 7 7.235C6.835 7.365 6.64 7.435 6.43 7.435C6.25 7.43 6.1 7.395 5.985 7.32C5.86 7.25 5.75 7.135 5.69 7C5.44 6.55 5.48 5.925 5.54 5.43ZM6.5 1C3.75 1 1.5 3.25 1.5 6C1.765 12.635 11.25 12.63 11.5 6C11.5 3.25 9.25 1 6.5 1ZM6.5 10C4.295 10 2.5 8.205 2.5 6C2.72 0.695 10.28 0.695 10.5 6C10.5 8.205 8.705 10 6.5 10Z" fill="#808080"/>
</svg>
