<svg width="40" height="40" viewBox="0 0 40 40" fill="none" xmlns="http://www.w3.org/2000/svg">
<path d="M6.50108 25.4989L4 21.798L4.00113 21.7969L4.00339 21.7958C4.00531 21.7947 4.00845 21.7933 4.0113 21.7915C4.01724 21.7879 4.02518 21.7824 4.03502 21.7765C4.05469 21.7646 4.08267 21.7488 4.11749 21.7282C4.18718 21.6868 4.28643 21.6273 4.41346 21.5542C4.66754 21.4078 5.03262 21.2027 5.49003 20.9581C6.40337 20.4697 7.69552 19.8191 9.21792 19.1678C12.2015 17.8914 16.3223 16 20.2886 16C23.9986 16 27.9917 17.9096 30.8792 19.1774C32.3609 19.828 33.6305 20.4766 34.5303 20.9635C34.9811 21.2074 35.3422 21.4118 35.5933 21.5574C35.7189 21.6302 35.8172 21.6893 35.8859 21.7303C35.9201 21.7507 35.9469 21.767 35.9661 21.7786C35.9758 21.7845 35.9841 21.7891 35.9898 21.7926C35.9926 21.7943 35.9948 21.7958 35.9966 21.7969L35.9989 21.798L36 21.799L33.4967 25.4979H33.4955C33.4935 25.4966 33.4889 25.4939 33.4831 25.4903C33.4715 25.4833 33.4527 25.4715 33.4266 25.456C33.3739 25.4245 33.2916 25.3767 33.1837 25.3142C32.968 25.1892 32.6479 25.0067 32.2416 24.7869C31.4266 24.3459 30.2758 23.7572 28.9396 23.1705C26.1915 21.9639 22.9552 20.399 20.2886 20.399C17.3145 20.399 13.916 21.9822 11.1158 23.1802C9.74649 23.766 8.58011 24.3528 7.75839 24.7922C7.3484 25.0115 7.02644 25.1931 6.81061 25.3174C6.70287 25.3795 6.62112 25.4271 6.56886 25.4581C6.54291 25.4735 6.52371 25.4846 6.51237 25.4914C6.50678 25.4948 6.50295 25.4978 6.50108 25.4989Z" fill="#4D4D4D"/>
<path d="M26 28C26 30.7614 23.3137 33 20 33C16.6863 33 14 30.7614 14 28C14 25.2386 16.6863 23 20 23C23.3137 23 26 25.2386 26 28Z" fill="#C8F900"/>
<path d="M21.5 8V14H18.5V8H21.5Z" fill="#4D4D4D"/>
<path d="M31.3416 11.6708L29.3418 15.6704L26.6586 14.3288L28.6584 10.3292L31.3416 11.6708Z" fill="#4D4D4D"/>
<path d="M8.65836 11.6708L10.6582 15.6704L13.3414 14.3288L11.3416 10.3292L8.65836 11.6708Z" fill="#4D4D4D"/>
</svg>
