<svg width="40" height="40" viewBox="0 0 40 40" fill="none" xmlns="http://www.w3.org/2000/svg">
<path d="M10 4H16V21H10V4Z" fill="#808080"/>
<path d="M23 3.99707H29V20.9971H23V3.99707Z" fill="#808080"/>
<path d="M32.9472 25L36 28.8425L35.9988 28.8437L35.9963 28.8449C35.9942 28.8465 35.9909 28.8485 35.9878 28.8508C35.9815 28.8554 35.9735 28.8623 35.9633 28.8698C35.943 28.8847 35.9144 28.9044 35.8789 28.9301C35.8074 28.9817 35.7058 29.0555 35.5756 29.1466C35.3154 29.3286 34.9406 29.5835 34.4687 29.8895C33.5263 30.5006 32.1847 31.3193 30.5732 32.1586C27.3983 33.8122 22.9651 35.6591 18.384 36L18 31.1684C21.5596 30.9035 25.2673 29.419 28.198 27.8926C29.6391 27.142 30.8417 26.4084 31.6801 25.8648C32.0983 25.5936 32.4235 25.3705 32.6402 25.2189C32.7483 25.1433 32.8295 25.0859 32.8812 25.0485C32.9067 25.03 32.9252 25.0163 32.9362 25.0083L32.9472 25Z" fill="#C8F900"/>
</svg>
