<svg width="40" height="40" viewBox="0 0 40 40" fill="none" xmlns="http://www.w3.org/2000/svg">
<path d="M6.38327 24C6.38571 24.0015 6.3904 24.0043 6.39682 24.0083C6.40988 24.0165 6.43129 24.0298 6.46007 24.0476C6.51763 24.0831 6.60589 24.137 6.72212 24.2069C6.95505 24.3469 7.29998 24.5501 7.73528 24.7954C8.60774 25.287 9.8344 25.9429 11.248 26.5966C14.157 27.9417 17.5452 29.1302 20.2265 29.1302C23.1863 29.1302 26.4306 27.9397 29.0671 26.6251C30.3578 25.9816 31.447 25.337 32.2105 24.8548C32.5913 24.6144 32.8886 24.415 33.087 24.2794C33.1861 24.2117 33.261 24.1607 33.3084 24.1272C33.3321 24.1105 33.3493 24.0975 33.3592 24.0904L33.3683 24.0844L36 28.0887L35.9966 28.0923C35.9946 28.0937 35.9916 28.0949 35.9887 28.097C35.9829 28.1012 35.9755 28.1069 35.9661 28.1137C35.9472 28.1272 35.9212 28.1462 35.8882 28.1695C35.822 28.2163 35.728 28.2825 35.6081 28.3645C35.3683 28.5285 35.0237 28.7573 34.5915 29.0303C33.7286 29.5753 32.5043 30.3005 31.0483 31.0265C28.1909 32.4512 24.2062 34 20.2265 34C16.5322 34 12.4027 32.4491 9.38775 31.055C7.83966 30.3392 6.50249 29.6254 5.55195 29.0898C5.07589 28.8215 4.69366 28.5967 4.4281 28.437C4.29525 28.3572 4.191 28.2927 4.11861 28.248C4.08257 28.2258 4.05394 28.2082 4.0339 28.1957C4.02399 28.1895 4.01603 28.1839 4.01018 28.1802C4.00761 28.1786 4.00516 28.1778 4.0034 28.1767L4.00001 28.1743C3.99963 28.1741 3.99891 28.1735 5.19051 26.0866C6.29437 24.1532 6.37526 24.0106 6.38101 24H6.38327Z" fill="#C8F900"/>
<path d="M36 9.85176L30.8254 13.6675L35.8798 16.9825L32.8273 21L22 13.9004L32.7071 6L36 9.85176Z" fill="#808080"/>
<path d="M4 9.85176L9.17456 13.6675L4.12019 16.9825L7.17271 21L18 13.9004L7.2929 6L4 9.85176Z" fill="#808080"/>
</svg>
