<svg width="40" height="40" viewBox="0 0 40 40" fill="none" xmlns="http://www.w3.org/2000/svg">
<g clip-path="url(#clip0_2564_1402)">
<path d="M0 28.4004C0.000210757 34.8001 5.19992 39.9998 11.5996 40C5.19332 40 0 34.8067 0 28.4004ZM40 28.4004C40 34.8067 34.8067 40 28.4004 40C31.4768 39.9999 34.4272 38.7779 36.6025 36.6025C38.7779 34.4272 39.9999 31.4768 40 28.4004ZM28.7998 4C32.7798 4 36 7.2202 36 11.2002V28.7998C36 30.7094 35.2419 32.5413 33.8916 33.8916C32.5413 35.2419 30.7094 36 28.7998 36H11.2002C7.2202 36 4 32.7798 4 28.7998V11.2002C4 9.29064 4.75814 7.45866 6.1084 6.1084C7.45866 4.75814 9.29064 4 11.2002 4H28.7998ZM20 10C17.3478 10 14.8041 11.0533 12.9287 12.9287C11.0533 14.8041 10 17.3478 10 20C10 22.6522 11.0533 25.1959 12.9287 27.0713C14.8041 28.9467 17.3478 30 20 30C22.6522 30 25.1959 28.9467 27.0713 27.0713C28.9467 25.1959 30 22.6522 30 20C30 17.3478 28.9467 14.8041 27.0713 12.9287C25.1959 11.0533 22.6522 10 20 10ZM20 14C21.5913 14 23.117 14.6326 24.2422 15.7578C25.3674 16.883 26 18.4087 26 20C26 21.5913 25.3674 23.117 24.2422 24.2422C23.117 25.3674 21.5913 26 20 26C18.4087 26 16.883 25.3674 15.7578 24.2422C14.6326 23.117 14 21.5913 14 20C14 18.4087 14.6326 16.883 15.7578 15.7578C16.883 14.6326 18.4087 14 20 14ZM30.5 7C29.837 7 29.2013 7.26358 28.7324 7.73242C28.2636 8.20126 28 8.83696 28 9.5C28 10.163 28.2636 10.7987 28.7324 11.2676C29.2013 11.7364 29.837 12 30.5 12C31.163 12 31.7987 11.7364 32.2676 11.2676C32.7364 10.7987 33 10.163 33 9.5C33 8.83696 32.7364 8.20126 32.2676 7.73242C31.7987 7.26358 31.163 7 30.5 7ZM11.5996 0C8.52324 0.000103547 5.57279 1.22213 3.39746 3.39746C1.22213 5.57279 0.000103546 8.52324 0 11.5996C0 5.19332 5.19332 0 11.5996 0ZM40 11.5996C39.9998 5.19992 34.8001 0.000210753 28.4004 0C34.8067 0 40 5.19332 40 11.5996Z" fill="#808080"/>
</g>
<defs>
<clipPath id="clip0_2564_1402">
<rect width="40" height="40" fill="white"/>
</clipPath>
</defs>
</svg>
