<svg width="40" height="40" viewBox="0 0 40 40" fill="none" xmlns="http://www.w3.org/2000/svg">
<path d="M4 26V9H36V26H13L10 33L7 26H4Z" fill="#4D4D4D"/>
<path d="M11.5 18C11.5 19.1046 10.6046 20 9.5 20C8.39543 20 7.5 19.1046 7.5 18C7.5 16.8954 8.39543 16 9.5 16C10.6046 16 11.5 16.8954 11.5 18Z" fill="#C8F900"/>
<path d="M18.5 18C18.5 19.1046 17.6046 20 16.5 20C15.3954 20 14.5 19.1046 14.5 18C14.5 16.8954 15.3954 16 16.5 16C17.6046 16 18.5 16.8954 18.5 18Z" fill="#C8F900"/>
<path d="M25.5 18C25.5 19.1046 24.6046 20 23.5 20C22.3954 20 21.5 19.1046 21.5 18C21.5 16.8954 22.3954 16 23.5 16C24.6046 16 25.5 16.8954 25.5 18Z" fill="#808080"/>
<path d="M32.5 18C32.5 19.1046 31.6046 20 30.5 20C29.3954 20 28.5 19.1046 28.5 18C28.5 16.8954 29.3954 16 30.5 16C31.6046 16 32.5 16.8954 32.5 18Z" fill="#808080"/>
</svg>
