<svg width="40" height="40" viewBox="0 0 40 40" fill="none" xmlns="http://www.w3.org/2000/svg">
<path d="M22 16L22 11L36 11L36 16L22 16Z" fill="#808080"/>
<path d="M18 16L18 11L4 11L4 16L18 16Z" fill="#808080"/>
<path d="M6.49995 32L6.50108 31.9989L4 28.298L4.00113 28.2969L4.00339 28.2958C4.00531 28.2947 4.00846 28.2933 4.0113 28.2915C4.01724 28.2879 4.02518 28.2824 4.03502 28.2765C4.05469 28.2646 4.08267 28.2488 4.11749 28.2282C4.18718 28.1868 4.28643 28.1273 4.41346 28.0542C4.66754 27.9078 5.03262 27.7027 5.49003 27.4581C6.40336 26.9697 7.69552 26.3191 9.21792 25.6678C12.2015 24.3914 16.3223 23 20.2886 23C23.9986 23 27.9917 24.4096 30.8792 25.6774C32.3609 26.328 33.6305 26.9766 34.5303 27.4635C34.9811 27.7074 35.3422 27.9118 35.5933 28.0574C35.7189 28.1302 35.8172 28.1893 35.8859 28.2303C35.9201 28.2507 35.9469 28.267 35.9661 28.2786C35.9758 28.2845 35.9841 28.2891 35.9898 28.2926C35.9926 28.2943 35.9948 28.2958 35.9966 28.2969L35.9989 28.298L36 28.299L33.4967 31.9979H33.4955C33.4935 31.9966 33.4889 31.9939 33.4831 31.9903C33.4715 31.9833 33.4527 31.9715 33.4266 31.956C33.3739 31.9245 33.2916 31.8767 33.1837 31.8142C32.968 31.6892 32.6479 31.5067 32.2416 31.2869C31.4266 30.8459 30.2758 30.2572 28.9396 29.6705C26.1915 28.4639 22.9552 27.399 20.2886 27.399C17.3145 27.399 13.916 28.4822 11.1158 29.6802C9.74649 30.266 8.5801 30.8528 7.75839 31.2922C7.3484 31.5115 7.02644 31.6931 6.81061 31.8174C6.70287 31.8795 6.62112 31.9271 6.56886 31.9581C6.54291 31.9735 6.52371 31.9846 6.51237 31.9914C6.50678 31.9948 6.50295 31.9978 6.50108 31.9989L6.49995 32Z" fill="#C8F900"/>
</svg>
