<svg width="40" height="40" viewBox="0 0 40 40" fill="none" xmlns="http://www.w3.org/2000/svg">
<path d="M15 16H25V24H15V16Z" fill="#C8F900"/>
<path d="M26.976 23.2C27.104 22.144 27.2 21.088 27.2 20C27.2 18.912 27.104 17.856 26.976 16.8H32.384C32.64 17.824 32.8 18.896 32.8 20C32.8 21.104 32.64 22.176 32.384 23.2H26.976ZM24.144 32.096C25.104 30.32 25.84 28.4 26.352 26.4H31.072C29.536 29.04 27.088 31.088 24.144 32.096ZM23.744 23.2H16.256C16.096 22.144 16 21.088 16 20C16 18.912 16.096 17.84 16.256 16.8H23.744C23.888 17.84 24 18.912 24 20C24 21.088 23.888 22.144 23.744 23.2ZM20 32.736C18.672 30.816 17.6 28.688 16.944 26.4H23.056C22.4 28.688 21.328 30.816 20 32.736ZM13.6 13.6H8.928C10.448 10.944 12.912 8.896 15.84 7.904C14.88 9.68 14.16 11.6 13.6 13.6ZM8.928 26.4H13.6C14.16 28.4 14.88 30.32 15.84 32.096C12.912 31.088 10.448 29.04 8.928 26.4ZM7.616 23.2C7.36 22.176 7.2 21.104 7.2 20C7.2 18.896 7.36 17.824 7.616 16.8H13.024C12.896 17.856 12.8 18.912 12.8 20C12.8 21.088 12.896 22.144 13.024 23.2H7.616ZM20 7.248C21.328 9.168 22.4 11.312 23.056 13.6H16.944C17.6 11.312 18.672 9.168 20 7.248ZM31.072 13.6H26.352C25.84 11.6 25.104 9.68 24.144 7.904C27.088 8.912 29.536 10.944 31.072 13.6ZM20 4C11.152 4 4 11.2 4 20C4 24.2435 5.68571 28.3131 8.68629 31.3137C10.172 32.7994 11.9359 33.978 13.8771 34.7821C15.8183 35.5861 17.8988 36 20 36C24.2435 36 28.3131 34.3143 31.3137 31.3137C34.3143 28.3131 36 24.2435 36 20C36 17.8988 35.5861 15.8183 34.7821 13.8771C33.978 11.9359 32.7994 10.172 31.3137 8.68629C29.828 7.20055 28.0641 6.022 26.1229 5.21793C24.1817 4.41385 22.1012 4 20 4Z" fill="#4D4D4D"/>
</svg>
