<svg width="40" height="40" viewBox="0 0 40 40" fill="none" xmlns="http://www.w3.org/2000/svg">
<path d="M16.8 24.7143L25.104 20L16.8 15.2857V24.7143ZM35.296 12.41C35.504 13.1486 35.648 14.1386 35.744 15.3957C35.856 16.6529 35.904 17.7371 35.904 18.68L36 20C36 23.4414 35.744 25.9714 35.296 27.59C34.896 29.0043 33.968 29.9157 32.528 30.3086C31.776 30.5129 30.4 30.6543 28.288 30.7486C26.208 30.8586 24.304 30.9057 22.544 30.9057L20 31C13.296 31 9.12 30.7486 7.472 30.3086C6.032 29.9157 5.104 29.0043 4.704 27.59C4.496 26.8514 4.352 25.8614 4.256 24.6043C4.144 23.3471 4.096 22.2629 4.096 21.32L4 20C4 16.5586 4.256 14.0286 4.704 12.41C5.104 10.9957 6.032 10.0843 7.472 9.69143C8.224 9.48714 9.6 9.34571 11.712 9.25143C13.792 9.14143 15.696 9.09429 17.456 9.09429L20 9C26.704 9 30.88 9.25143 32.528 9.69143C33.968 10.0843 34.896 10.9957 35.296 12.41Z" fill="#808080"/>
</svg>
