<?xml version="1.0" standalone="no"?>
<!DOCTYPE svg PUBLIC "-//W3C//DTD SVG 1.1//EN" "http://www.w3.org/Graphics/SVG/1.1/DTD/svg11.dtd" >
<svg xmlns="http://www.w3.org/2000/svg" xmlns:xlink="http://www.w3.org/1999/xlink" version="1.1">
<metadata>
Created by FontForge 20201107 at Mon Dec 18 13:18:37 2023
 By 
Sean Kane 2016
</metadata>
<defs>
<font id="Sk-Modernist-Bold" horiz-adv-x="1216" >
  <font-face 
    font-family="Sk-Modernist Bold"
    font-weight="700"
    font-stretch="normal"
    units-per-em="2048"
    panose-1="0 0 8 0 0 0 0 0 0 0"
    ascent="1638"
    descent="-410"
    x-height="1024"
    cap-height="1405"
    bbox="-1300 -418 2499 2048"
    underline-thickness="102"
    underline-position="-204"
    unicode-range="U+0020-FB02"
  />
<missing-glyph horiz-adv-x="512" 
 />
    <glyph glyph-name="fi" unicode="fi" horiz-adv-x="1085" 
d="M991 1024v-1024h-246v819h-278v-819h-246v819h-164v205h164v113q0 133 83 215t218 82q83 0 146 -29v-176h-111q-40 0 -65 -25t-25 -65v-115h524zM745 1405h246v-246h-246v246z" />
    <glyph glyph-name="fl" unicode="fl" horiz-adv-x="1085" 
d="M221 0v819h-164v205h164v113q0 133 83 215t218 82q83 0 146 -29v-176h-111q-40 0 -65 -25t-25 -65v-115h201v-205h-201v-819h-246zM745 0v1405h246v-1405h-246z" />
    <glyph glyph-name="f_f.liga" unicode="ff" horiz-adv-x="1267" 
d="M1085 1229q-40 0 -65 -25t-25 -65v-115h215v-205h-215v-819h-245v819h-283v-819h-246v819h-164v205h164v113q0 133 83 215t218 82q83 0 146 -29v-176h-111q-40 0 -65 -25t-25 -65v-115h283v113q0 133 87 215t228 82q96 0 145 -29v-176h-125z" />
    <glyph glyph-name="f_f_i.liga" unicode="ffi" horiz-adv-x="1601" 
d="M1507 1024v-1024h-245v819h-279v-819h-246v819h-270v-819h-246v819h-164v205h164v113q0 133 83 215t218 82q83 0 146 -29v-176h-111q-40 0 -65 -25t-25 -65v-115h270v113q0 133 83 215t218 82q83 0 146 -29v-176h-111q-40 0 -65 -25t-25 -65v-115h524zM1262 1405h245
v-246h-245v246z" />
    <glyph glyph-name="f_f_j.liga" unicode="ffj" horiz-adv-x="1613" 
d="M1520 1024v-1106q0 -147 -84.5 -237.5t-221.5 -90.5q-88 0 -155 29v176h125q40 0 65 34t25 89v901h-279v-819h-245v819h-283v-819h-246v819h-164v205h164v113q0 133 83 215t218 82q83 0 146 -29v-176h-111q-40 0 -65 -25t-25 -65v-115h283v113q0 133 83 215t218 82
q82 0 145 -29v-176h-111q-40 0 -65 -25t-25 -65v-115h525zM1274 1405h246v-246h-246v246z" />
    <glyph glyph-name="f_f_l.liga" unicode="ffl" horiz-adv-x="1613" 
d="M750 1137q0 133 83 215t218 82q82 0 145 -29v-176h-111q-40 0 -65 -25t-25 -65v-115h201v-205h-201v-819h-245v819h-283v-819h-246v819h-164v205h164v113q0 133 83 215t218 82q83 0 146 -29v-176h-111q-40 0 -65 -25t-25 -65v-115h283v113zM1274 1405h246v-1405h-246
v1405z" />
    <glyph glyph-name="f_j.liga" unicode="fj" horiz-adv-x="1085" 
d="M991 1024v-1106q0 -148 -84 -238t-221 -90q-89 0 -156 29v176h125q40 0 65 34t25 89v901h-278v-819h-246v819h-164v205h164v113q0 133 83 215t218 82q83 0 146 -29v-176h-111q-40 0 -65 -25t-25 -65v-115h524zM745 1405h246v-246h-246v246z" />
    <glyph glyph-name="f_t.liga" unicode="ft" horiz-adv-x="1386" 
d="M1151 176h178v-176q-71 -29 -174 -29q-152 0 -246 80.5t-94 210.5v557h-348v-819h-246v819h-164v205h164v113q0 133 83 215t218 82q83 0 146 -29v-176h-111q-40 0 -65 -25t-25 -65v-115h348v381h246v-381h258v-205h-258v-557q0 -38 25 -62t65 -24z" />
    <glyph glyph-name="r_f.liga" unicode="rf" horiz-adv-x="1337" 
d="M1155 1229q-40 0 -65 -25t-25 -65v-115h215v-205h-215v-819h-246v819h-213q-120 0 -193 -63t-73 -166v-590h-246v1024h246v-125q34 57 103 91t149 34h227v113q0 133 87.5 215t228.5 82q96 0 145 -29v-176h-125z" />
    <glyph glyph-name="r_t.liga" unicode="rt" horiz-adv-x="1370" 
d="M1135 176h178v-176q-71 -29 -174 -29q-152 0 -246 80.5t-94 210.5v557h-193q-120 0 -193 -63t-73 -166v-590h-246v1024h246v-125q34 57 103 91t149 34h207v381h245v-381h259v-205h-259v-557q0 -38 25.5 -62t65.5 -24z" />
    <glyph glyph-name="t_f.liga" unicode="tf" horiz-adv-x="1349" 
d="M1167 1229q-40 0 -65 -25t-25 -65v-115h215v-205h-215v-819h-246v819h-364v-557q0 -38 25 -62t65 -24h121v-176q-78 -29 -148 -29q-138 0 -223.5 73.5t-85.5 191.5v583h-164v205h164v381h246v-381h364v113q0 133 87.5 215t228.5 82q96 0 145 -29v-176h-125z" />
    <glyph glyph-name="t_t.liga" unicode="tt" horiz-adv-x="1417" 
d="M1182 176h178v-176q-71 -29 -174 -29q-152 0 -246 80.5t-94 210.5v557h-379v-557q0 -38 25 -62t65 -24h121v-176q-78 -29 -148 -29q-138 0 -223.5 73.5t-85.5 191.5v583h-164v205h164v381h246v-381h379v381h246v-381h258v-205h-258v-557q0 -38 25 -62t65 -24z" />
    <glyph glyph-name=".notdef" horiz-adv-x="512" 
 />
    <glyph glyph-name=".null" horiz-adv-x="0" 
 />
    <glyph glyph-name="nonmarkingreturn" horiz-adv-x="682" 
 />
    <glyph glyph-name="space" unicode=" " horiz-adv-x="512" 
 />
    <glyph glyph-name="exclam" unicode="!" horiz-adv-x="491" 
d="M137 483l-43 922h303l-43 -922h-217zM94 0v303h303v-303h-303z" />
    <glyph glyph-name="quotedbl" unicode="&#x22;" horiz-adv-x="745" 
d="M80 877l-35 528h266l-35 -528h-196zM469 877l-35 528h266l-34 -528h-197z" />
    <glyph glyph-name="numbersign" unicode="#" horiz-adv-x="1548" 
d="M225 0l90 381h-258v217h310l57 238h-256v217h307l84 352h252l-84 -352h260l84 352h252l-84 -352h252v-217h-303l-55 -238h247v-217h-299l-92 -381h-252l90 381h-258l-92 -381h-252zM621 598h258l57 238h-260z" />
    <glyph glyph-name="dollar" unicode="$" horiz-adv-x="1236" 
d="M528 -223v198q-214 20 -344.5 141.5t-130.5 299.5h232q0 -85 67 -145.5t176 -75.5v409q-206 37 -332 151t-126 265q0 169 126.5 282t331.5 128v198h164v-198q198 -15 322 -127t127 -279h-232q-3 74 -62.5 126t-154.5 62v-385q221 -40 356.5 -158t135.5 -272
q0 -172 -135.5 -287.5t-356.5 -134.5v-198h-164zM528 852v358q-95 -11 -154 -63t-59 -127q0 -55 58.5 -101.5t154.5 -66.5zM692 195q110 17 178 73t68 129q0 58 -67.5 108t-178.5 73v-383z" />
    <glyph glyph-name="percent" unicode="%" horiz-adv-x="1757" 
d="M336 -20l860 1445h225l-860 -1445h-225zM461 672q-152 0 -259.5 107t-107.5 259q0 83 48.5 167.5t135 142t183.5 57.5q152 0 259 -107.5t107 -259.5t-107 -259t-259 -107zM461 893q61 0 103 41.5t42 103.5t-42 104t-103 42t-103.5 -42t-42.5 -104q0 -61 42 -103t104 -42z
M1296 -29q-152 0 -259 107.5t-107 259.5q0 61 29 126.5t77.5 118.5t117.5 87.5t142 34.5q152 0 259.5 -107.5t107.5 -259.5t-107.5 -259.5t-259.5 -107.5zM1296 193q62 0 104 42t42 103t-42 103t-104 42t-103.5 -41.5t-41.5 -103.5t41.5 -103.5t103.5 -41.5z" />
    <glyph glyph-name="ampersand" unicode="&#x26;" horiz-adv-x="1431" 
d="M561 -29q-229 0 -368.5 112.5t-139.5 297.5q0 102 70.5 205t187.5 170l-26 26q-58 63 -93.5 146t-35.5 155q0 158 119.5 254.5t314.5 96.5q193 0 311.5 -99t118.5 -260q0 -91 -76 -187.5t-199 -164.5l-40 -21l276 -284q24 46 38.5 113.5t14.5 130.5h246
q-1 -107 -37.5 -221.5t-93.5 -196.5l237 -244h-342l-75 78q-78 -47 -191 -77t-217 -30zM547 866q27 11 94 47q60 32 96.5 77t36.5 85q0 63 -50.5 102.5t-133.5 39.5q-85 0 -137 -37t-52 -97q0 -31 17 -67t45 -64zM561 188q63 0 130.5 15.5t115.5 40.5l-334 346
q-78 -43 -126 -100.5t-48 -108.5q0 -86 72 -139.5t190 -53.5z" />
    <glyph glyph-name="quotesingle" unicode="'" horiz-adv-x="356" 
d="M80 877l-35 528h266l-35 -528h-196z" />
    <glyph glyph-name="parenleft" unicode="(" horiz-adv-x="618" 
d="M387 -291q-200 344 -267 541.5t-67 449.5q0 253 67 451.5t267 542.5l186 -113q-164 -278 -219 -454.5t-55 -426.5q0 -249 55 -424t219 -454z" />
    <glyph glyph-name="parenright" unicode=")" horiz-adv-x="618" 
d="M231 -291l-186 113q164 279 219 454t55 424q0 250 -55 426.5t-219 454.5l186 113q200 -344 267 -542.5t67 -451.5q0 -252 -67 -449.5t-267 -541.5z" />
    <glyph glyph-name="asterisk" unicode="*" horiz-adv-x="1060" 
d="M360 506l-198 143l192 242l-297 82l76 233l289 -108l-14 307h245l-14 -307l289 108l76 -233l-297 -82l192 -242l-199 -143l-170 258z" />
    <glyph glyph-name="plus" unicode="+" horiz-adv-x="1253" 
d="M504 0v403h-410v218h410v403h246v-403h409v-218h-409v-403h-246z" />
    <glyph glyph-name="comma" unicode="," horiz-adv-x="491" 
d="M94 -305v199q47 0 77 29.5t30 76.5h-107v303h303v-303q0 -137 -83.5 -221t-219.5 -84z" />
    <glyph glyph-name="hyphen" unicode="-" horiz-adv-x="974" 
d="M94 381v221h787v-221h-787z" />
    <glyph glyph-name="period" unicode="." horiz-adv-x="491" 
d="M94 0v303h303v-303h-303z" />
    <glyph glyph-name="slash" unicode="/" horiz-adv-x="917" 
d="M45 -20l623 1445h204l-622 -1445h-205z" />
    <glyph glyph-name="zero" unicode="0" horiz-adv-x="1253" 
d="M627 -29q-272 0 -412.5 186t-140.5 545t141 545.5t412 186.5t412 -186.5t141 -545.5t-140.5 -545t-412.5 -186zM627 188q151 0 229 130.5t78 383.5t-78 384t-229 131t-229.5 -131t-78.5 -384t78.5 -383.5t229.5 -130.5z" />
    <glyph glyph-name="one" unicode="1" horiz-adv-x="833" 
d="M418 0v1081q-46 -32 -135.5 -54.5t-188.5 -25.5v193q139 4 221 56t113 155h236v-1405h-246z" />
    <glyph glyph-name="two" unicode="2" horiz-adv-x="1253" 
d="M94 0v207l678 475q64 44 103.5 124.5t39.5 166.5q0 109 -79 176.5t-209 67.5q-131 0 -210 -90.5t-79 -239.5h-232q0 246 143.5 396.5t377.5 150.5q241 0 387.5 -127t146.5 -334q0 -138 -68 -267.5t-178 -203.5l-409 -285h653v-217h-1065z" />
    <glyph glyph-name="three" unicode="3" horiz-adv-x="1253" 
d="M612 -29q-243 0 -390.5 122.5t-147.5 322.5h235q0 -103 83 -165.5t220 -62.5q147 0 237.5 61t90.5 159t-90 158.5t-238 60.5h-131v217h131q128 0 206.5 50.5t78.5 133.5q0 85 -78.5 137t-206.5 52q-123 0 -197.5 -72t-74.5 -191h-231q0 216 138 348t365 132
q238 0 383.5 -103t145.5 -272q0 -88 -57.5 -175t-151.5 -141q112 -47 180 -146.5t68 -215.5q0 -184 -156.5 -297t-411.5 -113z" />
    <glyph glyph-name="four" unicode="4" horiz-adv-x="1253" 
d="M735 0v358h-661v170l606 877h301v-830h199v-217h-199v-358h-246zM371 575h364v564z" />
    <glyph glyph-name="five" unicode="5" horiz-adv-x="1253" 
d="M627 -29q-253 0 -403 135t-150 377h225q6 -132 94.5 -213.5t227.5 -81.5q82 0 152 32t116.5 102t46.5 167q0 140 -94.5 225t-249.5 85q-88 0 -163 -42.5t-112 -113.5l-223 29l90 733h918v-217h-717l-35 -275q62 46 145 74.5t156 28.5q238 0 383.5 -144t145.5 -380
q0 -234 -152 -377.5t-401 -143.5z" />
    <glyph glyph-name="six" unicode="6" horiz-adv-x="1253" 
d="M627 -29q-164 0 -290 91t-194.5 257t-68.5 383q0 328 153 530t402 202q191 0 333 -104.5t183 -274.5h-236q-22 72 -99 117t-181 45q-127 0 -210.5 -103t-92.5 -272q51 83 147.5 133.5t202.5 50.5q226 -2 365 -146.5t139 -379.5q0 -237 -152 -383t-401 -146zM641 811
q-129 0 -208 -86t-79 -227q0 -140 79 -226t206 -86q132 0 213.5 86.5t81.5 227.5q0 140 -80.5 225.5t-212.5 85.5z" />
    <glyph glyph-name="seven" unicode="7" horiz-adv-x="1253" 
d="M412 0q0 269 108.5 559.5t335.5 628.5h-762v217h1065v-186q-256 -352 -379 -651.5t-123 -567.5h-245z" />
    <glyph glyph-name="eight" unicode="8" horiz-adv-x="1253" 
d="M627 -29q-245 0 -394 116t-149 306q0 106 70 206t184 155q-89 50 -143 134t-54 175q0 167 134 269t352 102t351.5 -102t133.5 -269q0 -91 -54 -175t-143 -134q114 -55 184 -155t70 -206q0 -190 -148.5 -306t-393.5 -116zM627 862q107 0 173 49t66 129q0 79 -66 128
t-173 49t-173.5 -49t-66.5 -128q0 -80 66.5 -129t173.5 -49zM627 188q134 0 215.5 62.5t81.5 165.5t-82 166t-215 63t-215 -63t-82 -166t81.5 -165.5t215.5 -62.5z" />
    <glyph glyph-name="nine" unicode="9" horiz-adv-x="1253" 
d="M602 1434q164 0 290 -91t194.5 -257.5t68.5 -383.5q0 -328 -153 -529.5t-402 -201.5q-191 0 -333 104.5t-183 274.5h235q22 -72 99.5 -117t181.5 -45q127 0 210.5 103t92.5 272q-51 -83 -147.5 -133.5t-202.5 -50.5q-226 2 -365 146.5t-139 379.5q0 237 152 383t401 146z
M588 594q129 0 207.5 86t78.5 227q0 140 -78.5 226t-205.5 86q-132 0 -213.5 -86.5t-81.5 -227.5q0 -140 80.5 -225.5t212.5 -85.5z" />
    <glyph glyph-name="colon" unicode=":" horiz-adv-x="491" 
d="M94 721v303h303v-303h-303zM94 0v303h303v-303h-303z" />
    <glyph glyph-name="semicolon" unicode=";" horiz-adv-x="514" 
d="M117 721v303h303v-303h-303zM94 -305v199q47 0 77 29.5t30 76.5h-107v303h303v-303q0 -137 -83.5 -221t-219.5 -84z" />
    <glyph glyph-name="less" unicode="&#x3c;" horiz-adv-x="1253" 
d="M1159 6l-1065 418v211l1065 416v-256l-710 -265l710 -268v-256z" />
    <glyph glyph-name="equal" unicode="=" horiz-adv-x="1253" 
d="M94 631v221h1065v-221h-1065zM94 172v221h1065v-221h-1065z" />
    <glyph glyph-name="greater" unicode="&#x3e;" horiz-adv-x="1253" 
d="M94 6v256l711 268l-711 265v256l1065 -416v-211z" />
    <glyph glyph-name="question" unicode="?" horiz-adv-x="1093" 
d="M442 483q0 62 19.5 117.5t50.5 96.5t68.5 78.5t75.5 68.5t69 59.5t50.5 59.5t19.5 61q0 87 -59.5 140t-157.5 53q-133 0 -210 -71t-83 -200h-232q3 220 147.5 354t377.5 134q209 0 335.5 -112.5t126.5 -297.5q0 -61 -20 -114.5t-52.5 -93.5t-71.5 -75.5t-78 -66
t-71.5 -60t-52.5 -63t-20 -68.5h-232zM408 0v303h303v-303h-303z" />
    <glyph glyph-name="at" unicode="@" horiz-adv-x="1910" 
d="M977 -160q-262 0 -463 97.5t-310.5 276t-109.5 411.5q0 254 116 448.5t327.5 301t488.5 106.5q356 0 573.5 -183.5t217.5 -482.5q0 -265 -135 -427.5t-355 -162.5q-145 0 -227 137q-103 -137 -260 -137q-132 0 -212.5 99t-80.5 262q0 110 39 208t101 163t138 103t150 38
t135.5 -38.5t87.5 -101.5l19 66h233q-160 -515 -160 -549q0 -15 10 -24t27 -9q109 0 176.5 103t67.5 270q0 201 -149.5 325t-395.5 124q-309 0 -497.5 -176t-188.5 -463q0 -255 175 -411.5t462 -156.5q110 0 232.5 34t213.5 89l146 -180q-114 -72 -276.5 -116t-315.5 -44z
M885 428q97 0 156 93t59 247q0 70 -27.5 113t-71.5 43q-95 0 -154 -96.5t-59 -254.5q0 -66 27 -105.5t70 -39.5z" />
    <glyph glyph-name="A" unicode="A" horiz-adv-x="1527" 
d="M1190 0l-135 348h-580l-135 -348h-295l580 1405h282l576 -1405h-293zM571 594h387l-194 496z" />
    <glyph glyph-name="B" unicode="B" horiz-adv-x="1396" 
d="M119 0v1405h653q207 0 334 -104.5t127 -274.5q0 -72 -37 -147.5t-98 -126.5q110 -47 177.5 -145t67.5 -212q0 -178 -131.5 -286.5t-347.5 -108.5h-745zM393 844h379q83 0 134.5 43.5t51.5 113.5q0 71 -51.5 114.5t-134.5 43.5h-379v-315zM393 246h471q92 0 148.5 48
t56.5 126q0 80 -56 129t-147 49h-473v-352z" />
    <glyph glyph-name="C" unicode="C" horiz-adv-x="1513" 
d="M784 -29q-328 0 -529.5 201.5t-201.5 529.5q0 329 201.5 530.5t529.5 201.5q239 0 424 -150.5t246 -396.5h-270q-50 135 -160 218t-240 83q-204 0 -330 -134t-126 -352t126 -351.5t330 -133.5q143 0 257 92t155 242h264q-51 -260 -237.5 -420t-438.5 -160z" />
    <glyph glyph-name="D" unicode="D" horiz-adv-x="1433" 
d="M119 0v1405h547q321 0 517.5 -194t196.5 -509t-196.5 -508.5t-517.5 -193.5h-547zM393 246h273q198 0 319 126t121 330t-121 330.5t-319 126.5h-273v-913z" />
    <glyph glyph-name="E" unicode="E" horiz-adv-x="1128" 
d="M119 0v1405h952v-246h-678v-315h604v-246h-604v-352h678v-246h-952z" />
    <glyph glyph-name="F" unicode="F" horiz-adv-x="1128" 
d="M119 0v1405h952v-246h-678v-315h604v-246h-604v-598h-274z" />
    <glyph glyph-name="G" unicode="G" horiz-adv-x="1523" 
d="M784 -29q-328 0 -529.5 202.5t-201.5 531.5q0 327 201.5 528t529.5 201q180 0 346.5 -109.5t258.5 -288.5l-256 -63q-55 97 -151.5 156t-197.5 59q-204 0 -330 -133t-126 -350q0 -218 126 -353t330 -135q142 0 253 92t149 242h-463v246h747v-92q0 -162 -49.5 -299
t-138.5 -232.5t-217 -149t-281 -53.5z" />
    <glyph glyph-name="H" unicode="H" horiz-adv-x="1433" 
d="M119 0v1405h274v-561h647v561h275v-1405h-275v598h-647v-598h-274z" />
    <glyph glyph-name="I" unicode="I" horiz-adv-x="512" 
d="M119 0v1405h274v-1405h-274z" />
    <glyph glyph-name="J" unicode="J" horiz-adv-x="1171" 
d="M563 -29q-204 0 -347 123t-171 322h260q20 -89 91.5 -144t166.5 -55q107 0 173.5 88.5t66.5 231.5v868h274v-868q0 -254 -142 -410t-372 -156z" />
    <glyph glyph-name="K" unicode="K" horiz-adv-x="1392" 
d="M119 0v1405h274v-637l582 637h371l-568 -610l570 -795h-320l-430 600l-205 -219v-381h-274z" />
    <glyph glyph-name="L" unicode="L" horiz-adv-x="1128" 
d="M119 0v1405h274v-1159h678v-246h-952z" />
    <glyph glyph-name="M" unicode="M" horiz-adv-x="1822" 
d="M119 0v1405h340l452 -1059l453 1059h340v-1405h-274v997l-402 -997h-233l-402 997v-997h-274z" />
    <glyph glyph-name="N" unicode="N" horiz-adv-x="1503" 
d="M119 0v1405h301l690 -1022v1022h274v-1405h-301l-690 1024v-1024h-274z" />
    <glyph glyph-name="O" unicode="O" horiz-adv-x="1568" 
d="M784 -29q-328 0 -529.5 201.5t-201.5 529.5q0 329 201.5 530.5t529.5 201.5t530 -202t202 -530t-201.5 -529.5t-530.5 -201.5zM784 217q206 0 331.5 133.5t125.5 351.5t-126 352t-331 134t-330.5 -134t-125.5 -352t125.5 -351.5t330.5 -133.5z" />
    <glyph glyph-name="P" unicode="P" horiz-adv-x="1282" 
d="M119 0v1405h624q218 0 352 -119.5t134 -314.5q0 -198 -134 -319.5t-352 -121.5h-350v-530h-274zM393 776h350q95 0 153 53.5t58 141.5q0 85 -58 136.5t-153 51.5h-350v-383z" />
    <glyph glyph-name="Q" unicode="Q" horiz-adv-x="1583" 
d="M1419 209h111v-197q-38 -41 -141 -41q-129 0 -218 95q-170 -95 -387 -95q-328 0 -529.5 201.5t-201.5 529.5q0 329 201.5 530.5t529.5 201.5t530 -202t202 -530q0 -288 -162 -487q30 -6 65 -6zM328 702q0 -218 125.5 -351.5t330.5 -133.5q206 0 331.5 133.5t125.5 351.5
t-126 352t-331 134t-330.5 -134t-125.5 -352z" />
    <glyph glyph-name="R" unicode="R" horiz-adv-x="1380" 
d="M119 0v1405h653q204 0 330.5 -111.5t126.5 -292.5q0 -139 -78.5 -245t-206.5 -138l383 -618h-303l-371 598h-260v-598h-274zM393 844h379q85 0 137 43.5t52 113.5q0 71 -52 114.5t-137 43.5h-379v-315z" />
    <glyph glyph-name="S" unicode="S" horiz-adv-x="1372" 
d="M694 -29q-187 0 -331.5 63.5t-225.5 180t-84 268.5h260q4 -120 109.5 -193t271.5 -73q158 0 255.5 53.5t97.5 139.5q0 69 -81 114.5t-284 89.5q-306 69 -428.5 159t-122.5 247q0 186 155 300t408 114q211 0 371 -111.5t209 -292.5l-252 -63q-25 100 -115 160.5t-213 60.5
q-130 0 -210.5 -46.5t-80.5 -121.5q0 -47 70.5 -82.5t243.5 -75.5q335 -80 468.5 -180t133.5 -272q0 -197 -172 -318t-453 -121z" />
    <glyph glyph-name="T" unicode="T" horiz-adv-x="1200" 
d="M463 0v1159h-406v246h1086v-246h-406v-1159h-274z" />
    <glyph glyph-name="U" unicode="U" horiz-adv-x="1437" 
d="M721 -29q-270 0 -436 153.5t-166 403.5v877h274v-877q0 -140 90 -225.5t238 -85.5q146 0 234.5 85.5t88.5 225.5v877h275v-877q0 -250 -164.5 -403.5t-433.5 -153.5z" />
    <glyph glyph-name="V" unicode="V" horiz-adv-x="1527" 
d="M625 0l-580 1405h295l424 -1090l426 1090h293l-576 -1405h-282z" />
    <glyph glyph-name="W" unicode="W" horiz-adv-x="1890" 
d="M442 0l-397 1405h285l258 -1049l223 1049h268l224 -1049l260 1049h282l-395 -1405h-307l-197 903l-198 -903h-306z" />
    <glyph glyph-name="X" unicode="X" horiz-adv-x="1529" 
d="M45 0l557 735l-510 670h340l334 -453l332 453h340l-510 -670l557 -735h-340l-379 518l-381 -518h-340z" />
    <glyph glyph-name="Y" unicode="Y" horiz-adv-x="1286" 
d="M506 0v475l-461 930h303l295 -614l295 614h303l-461 -930v-475h-274z" />
    <glyph glyph-name="Z" unicode="Z" horiz-adv-x="1200" 
d="M57 0v219l725 940h-725v246h1086v-221l-725 -938h725v-246h-1086z" />
    <glyph glyph-name="bracketleft" unicode="[" horiz-adv-x="675" 
d="M94 -195v1786h488v-217h-242v-1351h242v-218h-488z" />
    <glyph glyph-name="backslash" unicode="\" horiz-adv-x="917" 
d="M872 -20h-204l-623 1445h205z" />
    <glyph glyph-name="bracketright" unicode="]" horiz-adv-x="626" 
d="M532 -195h-487v218h242v1351h-242v217h487v-1786z" />
    <glyph glyph-name="asciicircum" unicode="^" horiz-adv-x="1253" 
d="M74 535l450 870h201l455 -870h-242l-311 614l-310 -614h-243z" />
    <glyph glyph-name="underscore" unicode="_" horiz-adv-x="1245" 
d="M57 -221v221h1131v-221h-1131z" />
    <glyph glyph-name="grave" unicode="`" horiz-adv-x="1228" 
d="M492 1130l-181 275h301l119 -275h-239z" />
    <glyph glyph-name="a" unicode="a" horiz-adv-x="1257" 
d="M586 -29q-239 0 -386 149t-147 392t147 392t386 149q91 0 182.5 -38.5t149.5 -101.5v111h245v-1024h-245v111q-58 -63 -149.5 -101.5t-182.5 -38.5zM610 188q138 0 223 89t85 235t-85 235t-223 89q-140 0 -225.5 -89t-85.5 -235t85.5 -235t225.5 -89z" />
    <glyph glyph-name="b" unicode="b" horiz-adv-x="1273" 
d="M680 -29q-93 0 -187 39.5t-153 102.5v-113h-246v1405h246v-494q59 63 153 102.5t187 39.5q243 0 392 -149t149 -392t-149 -392t-392 -149zM655 188q143 0 231.5 89t88.5 235t-88.5 235t-231.5 89q-141 0 -228 -89t-87 -235t87 -235t228 -89z" />
    <glyph glyph-name="c" unicode="c" horiz-adv-x="1198" 
d="M608 -29q-249 0 -402 149t-153 392t153 392t402 149q206 0 353.5 -120t181.5 -315h-236q-25 97 -107 157.5t-192 60.5q-138 0 -223.5 -89t-85.5 -235t85.5 -235t223.5 -89q112 0 195 63t106 165h236q-32 -200 -180 -322.5t-357 -122.5z" />
    <glyph glyph-name="d" unicode="d" horiz-adv-x="1273" 
d="M594 -29q-243 0 -392 149t-149 392t149 392t392 149q93 0 187 -39.5t153 -102.5v494h246v-1405h-246v113q-59 -63 -153 -102.5t-187 -39.5zM618 188q141 0 228.5 89t87.5 235t-87.5 235t-228.5 89q-143 0 -231 -89t-88 -235t88 -235t231 -89z" />
    <glyph glyph-name="e" unicode="e" 
d="M608 -29q-249 0 -402 149t-153 392t153 392t402 149t402 -149t153 -392v-47l-20 -21h-840q17 -120 101 -194t204 -74q91 0 168.5 47.5t112.5 124.5h250q-51 -169 -197.5 -273t-333.5 -104zM319 649h578q-34 89 -113 144t-176 55t-176 -55t-113 -144z" />
    <glyph glyph-name="f" unicode="f" horiz-adv-x="739" 
d="M221 0v819h-164v205h164v113q0 133 87.5 215t228.5 82q96 0 145 -29v-176h-125q-40 0 -65 -25t-25 -65v-115h215v-205h-215v-819h-246z" />
    <glyph glyph-name="g" unicode="g" horiz-adv-x="1220" 
d="M590 -410q-207 0 -349 113t-165 297h235q23 -86 100.5 -139.5t178.5 -53.5q130 0 210.5 84.5t80.5 221.5v16q-57 -58 -143 -93.5t-171 -35.5q-230 0 -372 145t-142 381t142 381.5t372 145.5q85 0 171 -35.5t143 -93.5v100h245v-911q0 -235 -147.5 -379t-388.5 -144z
M592 217q129 0 209 85.5t80 223.5t-80 224t-209 86q-132 0 -212.5 -86t-80.5 -224t80.5 -223.5t212.5 -85.5z" />
    <glyph glyph-name="h" unicode="h" horiz-adv-x="1179" 
d="M94 0v1405h246v-457q49 47 126 76t152 29q210 0 338.5 -114.5t128.5 -301.5v-637h-245v608q0 102 -69 165t-181 63t-181 -63t-69 -165v-608h-246z" />
    <glyph glyph-name="i" unicode="i" horiz-adv-x="434" 
d="M94 1159v246h246v-246h-246zM94 0v1024h246v-1024h-246z" />
    <glyph glyph-name="j" unicode="j" horiz-adv-x="466" 
d="M127 1159v246h246v-246h-246zM68 -410q-89 0 -156 29v176h125q40 0 65 34t25 89v1106h246v-1106q0 -148 -84 -238t-221 -90z" />
    <glyph glyph-name="k" unicode="k" horiz-adv-x="1124" 
d="M94 0v1405h246v-729l346 348h344l-434 -426l483 -598h-315l-344 426l-80 -80v-346h-246z" />
    <glyph glyph-name="l" unicode="l" horiz-adv-x="434" 
d="M94 0v1405h246v-1405h-246z" />
    <glyph glyph-name="m" unicode="m" horiz-adv-x="1671" 
d="M94 0v1024h246v-92q43 54 112 87.5t138 33.5q70 0 144.5 -33.5t127.5 -89.5q54 56 138 89.5t169 33.5q183 0 295.5 -93t112.5 -245v-715h-246v690q0 65 -51.5 105.5t-134.5 40.5t-135 -40.5t-52 -105.5v-690h-245v690q0 65 -52 105.5t-135 40.5t-134.5 -40.5
t-51.5 -105.5v-690h-246z" />
    <glyph glyph-name="n" unicode="n" horiz-adv-x="1179" 
d="M94 0v1024h246v-76q49 47 126 76t152 29q210 0 338.5 -114.5t128.5 -301.5v-637h-245v608q0 102 -69 165t-181 63t-181 -63t-69 -165v-608h-246z" />
    <glyph glyph-name="o" unicode="o" 
d="M608 -29q-249 0 -402 149t-153 392t153 392t402 149t402 -149t153 -392t-153 -392t-402 -149zM608 188q138 0 224 89t86 235t-86 235t-224 89t-223.5 -89t-85.5 -235t85.5 -235t223.5 -89z" />
    <glyph glyph-name="p" unicode="p" horiz-adv-x="1273" 
d="M680 1053q243 0 392 -149t149 -392t-149 -392t-392 -149q-93 0 -187 39.5t-153 102.5v-494h-246v1405h246v-113q59 63 153 102.5t187 39.5zM655 836q-141 0 -228 -89t-87 -235t87 -235t228 -89q143 0 231.5 89t88.5 235t-88.5 235t-231.5 89z" />
    <glyph glyph-name="q" unicode="q" horiz-adv-x="1273" 
d="M594 1053q93 0 187 -39.5t153 -102.5v113h246v-1405h-246v494q-59 -63 -153 -102.5t-187 -39.5q-243 0 -392 149t-149 392t149 392t392 149zM618 836q-143 0 -231 -89t-88 -235t88 -235t231 -89q141 0 228.5 89t87.5 235t-87.5 235t-228.5 89z" />
    <glyph glyph-name="r" unicode="r" horiz-adv-x="753" 
d="M94 0v1024h246v-121q40 63 108.5 102t139.5 39q60 0 108 -20v-188h-84q-123 0 -197.5 -63.5t-74.5 -166.5v-606h-246z" />
    <glyph glyph-name="s" unicode="s" horiz-adv-x="1056" 
d="M528 -29q-207 0 -338 104t-137 273h232q6 -77 73 -124.5t170 -47.5t166.5 36.5t63.5 96.5q0 40 -56 66.5t-196 54.5q-219 50 -305 117t-86 188q0 143 113.5 230.5t299.5 87.5q148 0 266 -73.5t162 -193.5l-225 -55q-23 52 -79 84.5t-124 32.5q-75 0 -121.5 -28t-46.5 -72
q0 -32 43 -55t150 -48q251 -53 351 -127t100 -209q0 -152 -131 -245t-345 -93z" />
    <glyph glyph-name="t" unicode="t" horiz-adv-x="792" 
d="M561 -29q-152 0 -246 80.5t-94 210.5v557h-164v205h164v381h246v-381h258v-205h-258v-557q0 -38 25 -62t65 -24h178v-176q-71 -29 -174 -29z" />
    <glyph glyph-name="u" unicode="u" horiz-adv-x="1179" 
d="M1085 1024v-1024h-245v76q-49 -47 -126.5 -76t-152.5 -29q-210 0 -338.5 114.5t-128.5 301.5v637h246v-608q0 -102 69 -165t181 -63t181 63t69 165v608h245z" />
    <glyph glyph-name="v" unicode="v" horiz-adv-x="1161" 
d="M455 0l-410 1024h264l271 -766l272 766h264l-411 -1024h-250z" />
    <glyph glyph-name="w" unicode="w" horiz-adv-x="1646" 
d="M399 0l-354 1024h258l215 -745l191 745h229l190 -745l215 745h259l-353 -1024h-250l-176 662l-174 -662h-250z" />
    <glyph glyph-name="x" unicode="x" horiz-adv-x="1169" 
d="M45 0l397 541l-358 483h299l203 -307l198 307h301l-358 -483l397 -541h-301l-237 362l-240 -362h-301z" />
    <glyph glyph-name="y" unicode="y" horiz-adv-x="1122" 
d="M260 -381l176 447l-391 958h262l254 -643l252 643h264l-553 -1405h-264z" />
    <glyph glyph-name="z" unicode="z" horiz-adv-x="995" 
d="M57 0v164l545 643h-545v217h881v-164l-545 -643h545v-217h-881z" />
    <glyph glyph-name="braceleft" unicode="{" horiz-adv-x="753" 
d="M709 -195q-199 0 -321 98.5t-122 258.5v223q0 92 -57.5 148.5t-151.5 56.5v217q94 0 151.5 56.5t57.5 148.5v223q0 160 122 258t321 98v-217q-89 0 -143 -38t-54 -101v-223q0 -97 -48 -183.5t-126 -130.5q78 -44 126 -130t48 -183v-223q0 -63 54 -101t143 -38v-218z" />
    <glyph glyph-name="bar" unicode="|" horiz-adv-x="434" 
d="M94 -195v1786h246v-1786h-246z" />
    <glyph glyph-name="braceright" unicode="}" horiz-adv-x="753" 
d="M45 -195v218q89 0 143 38t54 101v223q0 97 48 183t126 130q-78 44 -126 130.5t-48 183.5v223q0 63 -54 101t-143 38v217q199 0 320.5 -98t121.5 -258v-223q0 -92 57.5 -148.5t151.5 -56.5v-217q-94 0 -151.5 -56.5t-57.5 -148.5v-223q0 -160 -121.5 -258.5t-320.5 -98.5z
" />
    <glyph glyph-name="asciitilde" unicode="~" horiz-adv-x="1435" 
d="M94 311q0 182 106 293t279 111q62 0 137 -28.5t132 -63t120 -63t103 -28.5q57 0 103 49.5t65 129.5h202q-2 -180 -103 -290t-267 -110q-59 0 -132 28.5t-129.5 63t-121 63t-109.5 28.5q-66 0 -116.5 -50.5t-65.5 -132.5h-203z" />
    <glyph glyph-name="exclamdown" unicode="&#xa1;" horiz-adv-x="491" 
d="M94 1024h303v-303h-303v303zM137 541h217l43 -922h-303z" />
    <glyph glyph-name="cent" unicode="&#xa2;" horiz-adv-x="1183" 
d="M295 -236l72 254q-141 62 -227.5 197.5t-86.5 296.5q0 243 152.5 392t402.5 149q48 0 54 -2l55 196h190l-67 -239q107 -46 186.5 -153.5t101.5 -236.5h-235q-15 57 -46.5 104t-68.5 69l-170 -603q106 0 185 62.5t102 165.5h235q-32 -200 -176 -322.5t-346 -122.5
q-55 0 -61 2l-62 -209h-190zM430 240l170 596q-135 -3 -218 -92.5t-83 -231.5q0 -84 36 -159t95 -113z" />
    <glyph glyph-name="sterling" unicode="&#xa3;" horiz-adv-x="1222" 
d="M190 -47l-133 160q107 89 173.5 184.5t66.5 161.5q0 57 -35 139h-184v164h104q-53 116 -53 248q0 191 121 307.5t319 116.5q190 0 306 -116.5t116 -307.5h-246q0 94 -48 150.5t-128 56.5q-88 0 -141 -56.5t-53 -150.5q0 -85 80 -248h333v-164h-266q21 -75 21 -139
q0 -44 -18.5 -99.5t-47.5 -99.5q67 -6 174.5 -39t149.5 -33q59 0 125.5 20t117.5 54l121 -180q-75 -50 -175 -80.5t-189 -30.5q-83 0 -210.5 41t-172.5 41q-52 0 -115 -28t-113 -72z" />
    <glyph glyph-name="currency" unicode="&#xa4;" horiz-adv-x="1169" 
d="M211 147l-117 115l137 137q-35 49 -56 114.5t-21 123.5q0 59 21 123.5t56 111.5l-137 140l117 114l139 -139q46 29 111 47.5t123 18.5t122.5 -18.5t112.5 -47.5l139 139l117 -114l-139 -140q35 -47 56.5 -111.5t21.5 -123.5q0 -57 -21.5 -123t-56.5 -115l139 -137
l-117 -115l-139 140q-46 -29 -110.5 -47.5t-124.5 -18.5q-61 0 -125 18.5t-109 47.5zM584 438q83 0 133.5 55t50.5 144t-50.5 144t-133.5 55t-134 -55t-51 -144t51 -144t134 -55z" />
    <glyph glyph-name="yen" unicode="&#xa5;" horiz-adv-x="1286" 
d="M1241 1405l-207 -418h137v-184h-229l-98 -201h319v-184h-383v-418h-274v418h-400v184h336l-98 201h-229v184h137l-207 418h303l295 -614l295 614h303z" />
    <glyph glyph-name="brokenbar" unicode="&#xa6;" horiz-adv-x="434" 
d="M94 803v788h246v-788h-246zM94 -195v768h246v-768h-246z" />
    <glyph glyph-name="section" unicode="&#xa7;" horiz-adv-x="1087" 
d="M1034 639q0 -72 -47.5 -151.5t-126.5 -145.5q62 -73 62 -162q0 -149 -109 -248.5t-272 -99.5q-164 0 -274.5 117.5t-108.5 290.5h233q0 -86 43 -144.5t107 -58.5q58 0 96.5 33.5t38.5 83.5q0 43 -42 83.5t-155 104.5q-246 151 -336 245t-90 201q0 72 47.5 151.5
t126.5 145.5q-61 72 -61 162q0 149 109 248.5t272 99.5q164 0 274 -117t109 -290h-234q0 87 -42.5 145t-106.5 58q-58 0 -96.5 -33.5t-38.5 -83.5q0 -43 42 -84t154 -105q246 -151 336 -245t90 -201zM299 819q0 -52 63 -110t236 -166q60 -38 115 -76q75 59 75 141
q0 52 -63.5 110.5t-235.5 166.5q-50 31 -114 76q-76 -60 -76 -142z" />
    <glyph glyph-name="dieresis" unicode="&#xa8;" horiz-adv-x="1228" 
d="M287 1126v226h245v-226h-245zM696 1126v226h246v-226h-246z" />
    <glyph glyph-name="copyright" unicode="&#xa9;" horiz-adv-x="1859" 
d="M930 -123q-170 0 -324 63.5t-266.5 172.5t-179 262t-66.5 323t66.5 323t179 262t266.5 173t324 64t324 -64t266 -173t178.5 -262t66.5 -323t-66.5 -323t-178.5 -262t-266 -172.5t-324 -63.5zM930 94q111 0 217.5 44t189 120.5t133 191.5t50.5 248q0 131 -50.5 246
t-133 192.5t-189 122t-217.5 44.5t-217.5 -44.5t-189 -121.5t-133 -192t-50.5 -247t50.5 -246.5t133 -192t189 -121.5t217.5 -44zM930 242q-201 0 -325 125.5t-124 330.5q0 204 124 329.5t325 125.5q164 0 282.5 -98t149.5 -258h-234q-22 64 -76 103.5t-122 39.5
q-94 0 -150.5 -66.5t-56.5 -175.5t57 -176t150 -67q68 0 122 39.5t76 103.5h234q-31 -160 -149.5 -258t-282.5 -98z" />
    <glyph glyph-name="ordfeminine" unicode="&#xaa;" horiz-adv-x="1257" 
d="M586 -29q-239 0 -386 149t-147 392t147 392t386 149q91 0 182.5 -38.5t149.5 -101.5v111h245v-1024h-245v111q-58 -63 -149.5 -101.5t-182.5 -38.5zM610 188q138 0 223 89t85 235t-85 235t-223 89q-140 0 -225.5 -89t-85.5 -235t85.5 -235t225.5 -89z" />
    <glyph glyph-name="guillemotleft" unicode="&#xab;" horiz-adv-x="1030" 
d="M383 109l-289 401l289 401h238l-293 -401l290 -401h-235zM698 109l-288 401l288 401h238l-293 -401l291 -401h-236z" />
    <glyph glyph-name="logicalnot" unicode="&#xac;" horiz-adv-x="1253" 
d="M918 172v549h-824v221h1065v-770h-241z" />
    <glyph glyph-name="uni00AD" unicode="&#xad;" horiz-adv-x="974" 
d="M94 381v221h787v-221h-787z" />
    <glyph glyph-name="registered" unicode="&#xae;" horiz-adv-x="1859" 
d="M930 -123q-170 0 -324 63.5t-266.5 172.5t-179 262t-66.5 323t66.5 323t179 262t266.5 173t324 64t324 -64t266 -173t178.5 -262t66.5 -323t-66.5 -323t-178.5 -262t-266 -172.5t-324 -63.5zM930 94q111 0 217.5 44t189 121.5t133 192t50.5 246.5t-50.5 247t-133 192
t-189 121.5t-217.5 44.5t-217.5 -44t-189 -121t-133 -192t-50.5 -248q0 -131 50.5 -245.5t133 -192t189 -122t217.5 -44.5zM604 303v795h377q124 0 200 -70t76 -184q0 -80 -40.5 -145t-106.5 -91l190 -305h-253l-177 285h-34v-285h-232zM836 786h159q25 0 40.5 16t15.5 42
q0 25 -15.5 40t-40.5 15h-159v-113z" />
    <glyph glyph-name="macron" unicode="&#xaf;" horiz-adv-x="1228" 
d="M229 1159v164h770v-164h-770z" />
    <glyph glyph-name="degree" unicode="&#xb0;" horiz-adv-x="946" 
d="M473 696q-158 0 -268.5 108t-110.5 261t110.5 261t268.5 108t268.5 -108t110.5 -261t-110.5 -261t-268.5 -108zM473 918q57 0 97 43t40 104t-40 104t-97 43t-97 -43t-40 -104t40 -104t97 -43z" />
    <glyph glyph-name="plusminus" unicode="&#xb1;" horiz-adv-x="1253" 
d="M502 303v252h-408v217h408v252h246v-252h411v-217h-411v-252h-246zM94 0v217h1065v-217h-1065z" />
    <glyph glyph-name="uni00B2" unicode="&#xb2;" horiz-adv-x="1253" 
d="M94 0v207l678 475q64 44 103.5 124.5t39.5 166.5q0 109 -79 176.5t-209 67.5q-131 0 -210 -90.5t-79 -239.5h-232q0 246 143.5 396.5t377.5 150.5q241 0 387.5 -127t146.5 -334q0 -138 -68 -267.5t-178 -203.5l-409 -285h653v-217h-1065z" />
    <glyph glyph-name="uni00B3" unicode="&#xb3;" horiz-adv-x="1253" 
d="M612 -29q-243 0 -390.5 122.5t-147.5 322.5h235q0 -103 83 -165.5t220 -62.5q147 0 237.5 61t90.5 159t-90 158.5t-238 60.5h-131v217h131q128 0 206.5 50.5t78.5 133.5q0 85 -78.5 137t-206.5 52q-123 0 -197.5 -72t-74.5 -191h-231q0 216 138 348t365 132
q238 0 383.5 -103t145.5 -272q0 -88 -57.5 -175t-151.5 -141q112 -47 180 -146.5t68 -215.5q0 -184 -156.5 -297t-411.5 -113z" />
    <glyph glyph-name="acute" unicode="&#xb4;" horiz-adv-x="1228" 
d="M715 1130h-240l119 275h301z" />
    <glyph glyph-name="paragraph" unicode="&#xb6;" horiz-adv-x="1146" 
d="M492 -193v893q-170 0 -274.5 100.5t-104.5 264.5q0 167 104.5 269t274.5 102h628v-136h-137v-1493h-135v1493h-221v-1493h-135z" />
    <glyph glyph-name="periodcentered" unicode="&#xb7;" horiz-adv-x="491" 
d="M94 360v304h303v-304h-303z" />
    <glyph glyph-name="cedilla" unicode="&#xb8;" horiz-adv-x="1228" 
d="M311 -115q0 107 87 178.5t216 71.5v-164q-37 0 -61.5 -24.5t-24.5 -61.5t24.5 -61.5t61.5 -24.5h113v-198q-59 -19 -113 -19q-129 0 -216 87t-87 216z" />
    <glyph glyph-name="uni00B9" unicode="&#xb9;" horiz-adv-x="833" 
d="M418 0v1081q-46 -32 -135.5 -54.5t-188.5 -25.5v193q139 4 221 56t113 155h236v-1405h-246z" />
    <glyph glyph-name="ordmasculine" unicode="&#xba;" 
d="M608 -29q-249 0 -402 149t-153 392t153 392t402 149t402 -149t153 -392t-153 -392t-402 -149zM608 188q138 0 224 89t86 235t-86 235t-224 89t-223.5 -89t-85.5 -235t85.5 -235t223.5 -89z" />
    <glyph glyph-name="guillemotright" unicode="&#xbb;" horiz-adv-x="1030" 
d="M332 109h-236l291 401l-293 401h238l289 -401zM647 109h-235l290 401l-292 401h237l289 -401z" />
    <glyph glyph-name="onequarter" unicode="&#xbc;" horiz-adv-x="1574" 
d="M238 -20l860 1445h225l-860 -1445h-225zM244 547v606q-66 -37 -187 -37v158q105 8 149 34t62 97h168v-858h-192zM1194 0v225h-348v144l346 483h192v-446h134v-181h-134v-225h-190zM1057 406h137v190z" />
    <glyph glyph-name="onehalf" unicode="&#xbd;" horiz-adv-x="1675" 
d="M254 -20l860 1445h225l-860 -1445h-225zM244 547v606q-66 -37 -187 -37v158q105 8 149 34t62 97h168v-858h-192zM969 0v170q295 192 379 266q34 31 54.5 70.5t20.5 71.5q0 52 -31.5 83t-84.5 31q-80 0 -119 -42.5t-39 -131.5h-186q0 171 89.5 263.5t254.5 92.5
q140 0 225.5 -81.5t85.5 -214.5q0 -35 -5.5 -67t-20.5 -61.5t-27.5 -52t-40 -49t-44.5 -42.5t-54.5 -43t-56 -39.5t-62.5 -41.5h311v-182h-649z" />
    <glyph glyph-name="threequarters" unicode="&#xbe;" horiz-adv-x="1796" 
d="M391 547q-143 0 -235 80.5t-99 212.5h176q5 -50 48.5 -80.5t109.5 -30.5q69 0 108.5 30.5t39.5 71.5q0 38 -36.5 66.5t-101.5 28.5h-120v153h120q55 0 86 24.5t31 57.5q0 34 -33 59t-92 25q-122 0 -145 -131h-170q11 144 93.5 228.5t221.5 84.5q141 0 228.5 -67.5
t87.5 -177.5q0 -47 -30.5 -96.5t-80.5 -81.5q60 -29 96.5 -79t36.5 -102q0 -125 -93 -200.5t-247 -75.5zM444 -20l861 1445h225l-860 -1445h-226zM1415 0v225h-348v144l346 483h193v-446h133v-181h-133v-225h-191zM1278 406h137v190z" />
    <glyph glyph-name="questiondown" unicode="&#xbf;" horiz-adv-x="1175" 
d="M727 1024v-303h-303v303h303zM692 541q0 -84 -36.5 -157t-88 -122.5t-103 -92t-88 -86t-36.5 -83.5q0 -87 59.5 -140t157.5 -53q133 0 210 71t83 200h231q-3 -220 -147 -354t-377 -134q-209 0 -336 112.5t-127 297.5q0 83 38 153t92 117.5t107.5 89.5t91.5 88t38 93h231z
" />
    <glyph glyph-name="Agrave" unicode="&#xc0;" horiz-adv-x="1527" 
d="M883 1466h-240l-178 220h301zM1190 0l-135 348h-580l-135 -348h-295l580 1405h282l576 -1405h-293zM571 594h387l-194 496z" />
    <glyph glyph-name="Aacute" unicode="&#xc1;" horiz-adv-x="1527" 
d="M1053 1686l-179 -220h-239l117 220h301zM1190 0l-135 348h-580l-135 -348h-295l580 1405h282l576 -1405h-293zM571 594h387l-194 496z" />
    <glyph glyph-name="Acircumflex" unicode="&#xc2;" horiz-adv-x="1527" 
d="M754 1589l-103 -123h-239l184 220h317l185 -220h-240zM1190 0l-135 348h-580l-135 -348h-295l580 1405h282l576 -1405h-293zM571 594h387l-194 496z" />
    <glyph glyph-name="Atilde" unicode="&#xc3;" horiz-adv-x="1527" 
d="M647 1542q-26 0 -43.5 -17.5t-17.5 -43.5h-160q0 95 63.5 158t157.5 63q37 0 68 -11.5t82 -43.5q50 -33 63 -33q26 0 44 17.5t18 43.5h159q0 -94 -63.5 -157.5t-157.5 -63.5q-32 0 -63 11.5t-86 45.5q-46 31 -64 31zM1190 0l-135 348h-580l-135 -348h-295l580 1405h282
l576 -1405h-293zM571 594h387l-194 496z" />
    <glyph glyph-name="Adieresis" unicode="&#xc4;" horiz-adv-x="1527" 
d="M672 1686v-226h-246v226h246zM1081 1686v-226h-245v226h245zM1190 0l-135 348h-580l-135 -348h-295l580 1405h282l576 -1405h-293zM571 594h387l-194 496z" />
    <glyph glyph-name="Aring" unicode="&#xc5;" horiz-adv-x="1527" 
d="M1190 0l-135 348h-580l-135 -348h-295l545 1321q-45 57 -45 135q0 91 64 155t155 64t155 -64t64 -155q0 -72 -43 -131l543 -1325h-293zM764 1507q-20 0 -35.5 -15.5t-15.5 -35.5q0 -23 14 -37t37 -14t37 14t14 37q0 20 -15.5 35.5t-35.5 15.5zM571 594h387l-194 496z" />
    <glyph glyph-name="AE" unicode="&#xc6;" horiz-adv-x="1843" 
d="M45 0l580 1405h1161v-246h-678v-315h604v-246h-604v-352h678v-246h-952v360h-353l-141 -360h-295zM575 606h259v553h-41z" />
    <glyph glyph-name="Ccedilla" unicode="&#xc7;" horiz-adv-x="1513" 
d="M784 -29q-37 0 -61.5 -24.5t-24.5 -61.5t24.5 -61.5t61.5 -24.5h113v-198q-59 -19 -113 -19q-129 0 -216 87t-87 216q0 69 39 127q-218 71 -342.5 253t-124.5 437q0 329 201.5 530.5t529.5 201.5q239 0 424 -150.5t246 -396.5h-270q-50 135 -160 218t-240 83
q-204 0 -330 -134t-126 -352t126 -351.5t330 -133.5q143 0 257 92t155 242h264q-51 -260 -237.5 -420t-438.5 -160z" />
    <glyph glyph-name="Egrave" unicode="&#xc8;" horiz-adv-x="1128" 
d="M324 1686h301l116 -220h-239zM119 0v1405h952v-246h-678v-315h604v-246h-604v-352h678v-246h-952z" />
    <glyph glyph-name="Eacute" unicode="&#xc9;" horiz-adv-x="1128" 
d="M911 1686l-178 -220h-239l116 220h301zM119 0v1405h952v-246h-678v-315h604v-246h-604v-352h678v-246h-952z" />
    <glyph glyph-name="Ecircumflex" unicode="&#xca;" horiz-adv-x="1128" 
d="M270 1466l185 220h317l184 -220h-239l-105 123l-102 -123h-240zM119 0v1405h952v-246h-678v-315h604v-246h-604v-352h678v-246h-952z" />
    <glyph glyph-name="Edieresis" unicode="&#xcb;" horiz-adv-x="1128" 
d="M285 1460v226h245v-226h-245zM694 1460v226h246v-226h-246zM119 0v1405h952v-246h-678v-315h604v-246h-604v-352h678v-246h-952z" />
    <glyph glyph-name="Igrave" unicode="&#xcc;" horiz-adv-x="512" 
d="M-33 1686h301l117 -220h-240zM119 0v1405h274v-1405h-274z" />
    <glyph glyph-name="Iacute" unicode="&#xcd;" horiz-adv-x="512" 
d="M555 1686l-178 -220h-240l117 220h301zM119 0v1405h274v-1405h-274z" />
    <glyph glyph-name="Icircumflex" unicode="&#xce;" horiz-adv-x="512" 
d="M-86 1466l184 220h318l184 -220h-240l-104 123l-102 -123h-240zM119 0v1405h274v-1405h-274z" />
    <glyph glyph-name="Idieresis" unicode="&#xcf;" horiz-adv-x="512" 
d="M-72 1460v226h246v-226h-246zM338 1460v226h246v-226h-246zM119 0v1405h274v-1405h-274z" />
    <glyph glyph-name="Eth" unicode="&#xd0;" horiz-adv-x="1433" 
d="M666 1405q321 0 517.5 -194t196.5 -509t-196.5 -508.5t-517.5 -193.5h-547v631h-119v143h119v631h547zM666 246q198 0 319 126t121 330t-121 330.5t-319 126.5h-273v-385h393v-143h-393v-385h273z" />
    <glyph glyph-name="Ntilde" unicode="&#xd1;" horiz-adv-x="1503" 
d="M911 1675h160q0 -94 -63.5 -157.5t-157.5 -63.5q-33 0 -64 12t-86 45q-46 31 -63 31q-26 0 -44 -17.5t-18 -43.5h-159q0 95 63.5 158t157.5 63q37 0 67.5 -11.5t81.5 -43.5q50 -33 64 -33q26 0 43.5 17.5t17.5 43.5zM119 0v1405h301l690 -1022v1022h274v-1405h-301
l-690 1024v-1024h-274z" />
    <glyph glyph-name="Ograve" unicode="&#xd2;" horiz-adv-x="1568" 
d="M496 1686h301l116 -220h-239zM784 -29q-328 0 -529.5 201.5t-201.5 529.5q0 329 201.5 530.5t529.5 201.5t530 -202t202 -530t-201.5 -529.5t-530.5 -201.5zM784 217q206 0 331.5 133.5t125.5 351.5t-126 352t-331 134t-330.5 -134t-125.5 -352t125.5 -351.5
t330.5 -133.5z" />
    <glyph glyph-name="Oacute" unicode="&#xd3;" horiz-adv-x="1568" 
d="M1083 1686l-178 -220h-239l116 220h301zM784 -29q-328 0 -529.5 201.5t-201.5 529.5q0 329 201.5 530.5t529.5 201.5t530 -202t202 -530t-201.5 -529.5t-530.5 -201.5zM784 217q206 0 331.5 133.5t125.5 351.5t-126 352t-331 134t-330.5 -134t-125.5 -352t125.5 -351.5
t330.5 -133.5z" />
    <glyph glyph-name="Ocircumflex" unicode="&#xd4;" horiz-adv-x="1568" 
d="M442 1466l185 220h317l184 -220h-239l-105 123l-102 -123h-240zM784 -29q-328 0 -529.5 201.5t-201.5 529.5q0 329 201.5 530.5t529.5 201.5t530 -202t202 -530t-201.5 -529.5t-530.5 -201.5zM784 217q206 0 331.5 133.5t125.5 351.5t-126 352t-331 134t-330.5 -134
t-125.5 -352t125.5 -351.5t330.5 -133.5z" />
    <glyph glyph-name="Otilde" unicode="&#xd5;" horiz-adv-x="1568" 
d="M952 1675h160q0 -94 -63.5 -157.5t-157.5 -63.5q-33 0 -64 12t-86 45q-46 31 -63 31q-26 0 -44 -17.5t-18 -43.5h-159q0 95 63.5 158t157.5 63q37 0 67.5 -11.5t81.5 -43.5q50 -33 64 -33q26 0 43.5 17.5t17.5 43.5zM784 -29q-328 0 -529.5 201.5t-201.5 529.5
q0 329 201.5 530.5t529.5 201.5t530 -202t202 -530t-201.5 -529.5t-530.5 -201.5zM784 217q206 0 331.5 133.5t125.5 351.5t-126 352t-331 134t-330.5 -134t-125.5 -352t125.5 -351.5t330.5 -133.5z" />
    <glyph glyph-name="Odieresis" unicode="&#xd6;" horiz-adv-x="1568" 
d="M457 1460v226h245v-226h-245zM866 1460v226h246v-226h-246zM784 -29q-328 0 -529.5 201.5t-201.5 529.5q0 329 201.5 530.5t529.5 201.5t530 -202t202 -530t-201.5 -529.5t-530.5 -201.5zM784 217q206 0 331.5 133.5t125.5 351.5t-126 352t-331 134t-330.5 -134
t-125.5 -352t125.5 -351.5t330.5 -133.5z" />
    <glyph glyph-name="multiply" unicode="&#xd7;" horiz-adv-x="1226" 
d="M217 -55l-172 172l397 395l-397 397l172 172l395 -397l398 397l172 -172l-398 -397l398 -395l-172 -172l-398 397z" />
    <glyph glyph-name="Oslash" unicode="&#xd8;" horiz-adv-x="1568" 
d="M1255 1286q125 -98 193 -248t68 -336q0 -328 -201.5 -529.5t-530.5 -201.5q-160 0 -288 49l-35 -59h-242l94 158q-125 98 -192.5 247t-67.5 336q0 329 201.5 530.5t529.5 201.5q159 0 289 -50l35 60h242zM328 702q0 -218 125 -352l487 813q-73 25 -156 25
q-205 0 -330.5 -134t-125.5 -352zM784 217q206 0 331.5 133.5t125.5 351.5q0 219 -125 353l-487 -813q73 -25 155 -25z" />
    <glyph glyph-name="Ugrave" unicode="&#xd9;" horiz-adv-x="1437" 
d="M422 1686h301l117 -220h-240zM721 -29q-270 0 -436 153.5t-166 403.5v877h274v-877q0 -140 90 -225.5t238 -85.5q146 0 234.5 85.5t88.5 225.5v877h275v-877q0 -250 -164.5 -403.5t-433.5 -153.5z" />
    <glyph glyph-name="Uacute" unicode="&#xda;" horiz-adv-x="1437" 
d="M1010 1686l-179 -220h-239l117 220h301zM721 -29q-270 0 -436 153.5t-166 403.5v877h274v-877q0 -140 90 -225.5t238 -85.5q146 0 234.5 85.5t88.5 225.5v877h275v-877q0 -250 -164.5 -403.5t-433.5 -153.5z" />
    <glyph glyph-name="Ucircumflex" unicode="&#xdb;" horiz-adv-x="1437" 
d="M369 1466l184 220h317l185 -220h-240l-104 123l-103 -123h-239zM721 -29q-270 0 -436 153.5t-166 403.5v877h274v-877q0 -140 90 -225.5t238 -85.5q146 0 234.5 85.5t88.5 225.5v877h275v-877q0 -250 -164.5 -403.5t-433.5 -153.5z" />
    <glyph glyph-name="Udieresis" unicode="&#xdc;" horiz-adv-x="1437" 
d="M383 1460v226h246v-226h-246zM793 1460v226h245v-226h-245zM721 -29q-270 0 -436 153.5t-166 403.5v877h274v-877q0 -140 90 -225.5t238 -85.5q146 0 234.5 85.5t88.5 225.5v877h275v-877q0 -250 -164.5 -403.5t-433.5 -153.5z" />
    <glyph glyph-name="Yacute" unicode="&#xdd;" horiz-adv-x="1286" 
d="M942 1686l-178 -220h-240l117 220h301zM506 0v475l-461 930h303l295 -614l295 614h303l-461 -930v-475h-274z" />
    <glyph glyph-name="Thorn" unicode="&#xde;" horiz-adv-x="1257" 
d="M719 1139q218 0 351.5 -119.5t133.5 -314.5q0 -198 -133.5 -319.5t-351.5 -121.5h-350v-264h-275v1405h275v-266h350zM719 510q95 0 153 53.5t58 141.5q0 85 -58 136.5t-153 51.5h-350v-383h350z" />
    <glyph glyph-name="germandbls" unicode="&#xdf;" horiz-adv-x="1165" 
d="M655 -29q-136 0 -258 49v168h258q95 0 153 64.5t58 169.5q0 100 -57.5 161.5t-151.5 61.5h-260v217h166q86 0 139.5 48t53.5 126q0 82 -55 131.5t-146 49.5q-97 0 -156 -52t-59 -135v-1030h-246v1030q0 182 129 293t340 111q197 0 317.5 -100.5t120.5 -264.5
q0 -69 -36.5 -147t-96.5 -136q109 -62 176.5 -166.5t67.5 -213.5q0 -195 -126.5 -315t-330.5 -120z" />
    <glyph glyph-name="agrave" unicode="&#xe0;" horiz-adv-x="1257" 
d="M465 1130l-180 275h301l119 -275h-240zM586 -29q-239 0 -386 149t-147 392t147 392t386 149q91 0 182.5 -38.5t149.5 -101.5v111h245v-1024h-245v111q-58 -63 -149.5 -101.5t-182.5 -38.5zM610 188q138 0 223 89t85 235t-85 235t-223 89q-140 0 -225.5 -89t-85.5 -235
t85.5 -235t225.5 -89z" />
    <glyph glyph-name="aacute" unicode="&#xe1;" horiz-adv-x="1257" 
d="M686 1130h-240l119 275h301zM586 -29q-239 0 -386 149t-147 392t147 392t386 149q91 0 182.5 -38.5t149.5 -101.5v111h245v-1024h-245v111q-58 -63 -149.5 -101.5t-182.5 -38.5zM610 188q138 0 223 89t85 235t-85 235t-223 89q-140 0 -225.5 -89t-85.5 -235t85.5 -235
t225.5 -89z" />
    <glyph glyph-name="acircumflex" unicode="&#xe2;" horiz-adv-x="1257" 
d="M238 1126l190 226h317l189 -226h-240l-108 129l-109 -129h-239zM586 -29q-239 0 -386 149t-147 392t147 392t386 149q91 0 182.5 -38.5t149.5 -101.5v111h245v-1024h-245v111q-58 -63 -149.5 -101.5t-182.5 -38.5zM610 188q138 0 223 89t85 235t-85 235t-223 89
q-140 0 -225.5 -89t-85.5 -235t85.5 -235t225.5 -89z" />
    <glyph glyph-name="atilde" unicode="&#xe3;" horiz-adv-x="1257" 
d="M780 1352h185q0 -109 -73.5 -182.5t-182.5 -73.5q-37 0 -73.5 13.5t-98.5 51.5q-55 37 -74 37q-31 0 -51.5 -20.5t-20.5 -51.5h-184q0 109 73.5 182.5t182.5 73.5q42 0 78 -13.5t94 -51.5q60 -37 74 -37q31 0 51 20.5t20 51.5zM586 -29q-239 0 -386 149t-147 392t147 392
t386 149q91 0 182.5 -38.5t149.5 -101.5v111h245v-1024h-245v111q-58 -63 -149.5 -101.5t-182.5 -38.5zM610 188q138 0 223 89t85 235t-85 235t-223 89q-140 0 -225.5 -89t-85.5 -235t85.5 -235t225.5 -89z" />
    <glyph glyph-name="adieresis" unicode="&#xe4;" horiz-adv-x="1257" 
d="M258 1126v226h246v-226h-246zM668 1126v226h245v-226h-245zM586 -29q-239 0 -386 149t-147 392t147 392t386 149q91 0 182.5 -38.5t149.5 -101.5v111h245v-1024h-245v111q-58 -63 -149.5 -101.5t-182.5 -38.5zM610 188q138 0 223 89t85 235t-85 235t-223 89
q-140 0 -225.5 -89t-85.5 -235t85.5 -235t225.5 -89z" />
    <glyph glyph-name="aring" unicode="&#xe5;" horiz-adv-x="1257" 
d="M586 1071q-91 0 -155 63.5t-64 155.5q0 91 64 155t155 64t155 -64t64 -155q0 -92 -64 -155.5t-155 -63.5zM586 1239q23 0 37 14t14 37q0 20 -15.5 35.5t-35.5 15.5t-35.5 -15.5t-15.5 -35.5q0 -23 14 -37t37 -14zM586 -29q-239 0 -386 149t-147 392t147 392t386 149
q91 0 182.5 -38.5t149.5 -101.5v111h245v-1024h-245v111q-58 -63 -149.5 -101.5t-182.5 -38.5zM610 188q138 0 223 89t85 235t-85 235t-223 89q-140 0 -225.5 -89t-85.5 -235t85.5 -235t225.5 -89z" />
    <glyph glyph-name="ae" unicode="&#xe6;" horiz-adv-x="2109" 
d="M596 -29q-244 0 -393.5 149t-149.5 392t149.5 392t393.5 149q83 0 171.5 -35t150.5 -92v98h274v-98q60 57 149.5 92t174.5 35q243 0 391.5 -149t148.5 -392q0 -60 -2 -68h-854q25 -101 104 -164t183 -63q70 0 138 36t108 95h303q-51 -169 -194 -273t-326 -104
q-87 0 -176.5 34t-147.5 91v-96h-274v98q-62 -57 -150.5 -92t-171.5 -35zM623 217q132 0 213.5 81.5t81.5 213.5t-81.5 213.5t-213.5 81.5t-213.5 -81.5t-81.5 -213.5t81.5 -213.5t213.5 -81.5zM1227 649h522q-37 71 -109 114.5t-153 43.5q-79 0 -151 -43.5t-109 -114.5z
" />
    <glyph glyph-name="ccedilla" unicode="&#xe7;" horiz-adv-x="1198" 
d="M608 -29q-37 0 -61.5 -24.5t-24.5 -61.5t24.5 -61.5t61.5 -24.5h113v-198q-59 -19 -113 -19q-129 0 -216 87t-87 216q0 79 47 138q-141 62 -220 189.5t-79 299.5q0 243 153 392t402 149q206 0 353.5 -120t181.5 -315h-236q-25 97 -107 157.5t-192 60.5q-138 0 -223.5 -89
t-85.5 -235t85.5 -235t223.5 -89q112 0 195 63t106 165h236q-32 -200 -180 -322.5t-357 -122.5z" />
    <glyph glyph-name="egrave" unicode="&#xe8;" 
d="M487 1130l-180 275h301l119 -275h-240zM608 -29q-249 0 -402 149t-153 392t153 392t402 149t402 -149t153 -392v-47l-20 -21h-840q17 -120 101 -194t204 -74q91 0 168.5 47.5t112.5 124.5h250q-51 -169 -197.5 -273t-333.5 -104zM319 649h578q-34 89 -113 144t-176 55
t-176 -55t-113 -144z" />
    <glyph glyph-name="eacute" unicode="&#xe9;" 
d="M709 1130h-240l119 275h301zM608 -29q-249 0 -402 149t-153 392t153 392t402 149t402 -149t153 -392v-47l-20 -21h-840q17 -120 101 -194t204 -74q91 0 168.5 47.5t112.5 124.5h250q-51 -169 -197.5 -273t-333.5 -104zM319 649h578q-34 89 -113 144t-176 55t-176 -55
t-113 -144z" />
    <glyph glyph-name="ecircumflex" unicode="&#xea;" 
d="M260 1126l191 226h317l188 -226h-239l-109 129l-108 -129h-240zM608 -29q-249 0 -402 149t-153 392t153 392t402 149t402 -149t153 -392v-47l-20 -21h-840q17 -120 101 -194t204 -74q91 0 168.5 47.5t112.5 124.5h250q-51 -169 -197.5 -273t-333.5 -104zM319 649h578
q-34 89 -113 144t-176 55t-176 -55t-113 -144z" />
    <glyph glyph-name="edieresis" unicode="&#xeb;" 
d="M281 1126v226h245v-226h-245zM690 1126v226h246v-226h-246zM608 -29q-249 0 -402 149t-153 392t153 392t402 149t402 -149t153 -392v-47l-20 -21h-840q17 -120 101 -194t204 -74q91 0 168.5 47.5t112.5 124.5h250q-51 -169 -197.5 -273t-333.5 -104zM319 649h578
q-34 89 -113 144t-176 55t-176 -55t-113 -144z" />
    <glyph glyph-name="igrave" unicode="&#xec;" horiz-adv-x="434" 
d="M96 1130l-180 275h301l119 -275h-240zM94 0v1024h246v-1024h-246z" />
    <glyph glyph-name="iacute" unicode="&#xed;" horiz-adv-x="434" 
d="M317 1130h-239l119 275h301zM94 0v1024h246v-1024h-246z" />
    <glyph glyph-name="icircumflex" unicode="&#xee;" horiz-adv-x="434" 
d="M-131 1126l190 226h318l188 -226h-239l-109 129l-108 -129h-240zM94 0v1024h246v-1024h-246z" />
    <glyph glyph-name="idieresis" unicode="&#xef;" horiz-adv-x="434" 
d="M-111 1126v226h246v-226h-246zM299 1126v226h246v-226h-246zM94 0v1024h246v-1024h-246z" />
    <glyph glyph-name="eth" unicode="&#xf0;" horiz-adv-x="1159" 
d="M580 -29q-237 0 -382 149.5t-145 395.5t140.5 395.5t369.5 149.5q117 0 213 -57q-74 92 -164 149l-100 -70l-121 105l105 72l-123 102l127 92l131 -100l104 73l117 -108l-107 -74q184 -178 272.5 -356.5t88.5 -372.5q0 -246 -144.5 -395.5t-381.5 -149.5zM580 182
q134 0 215.5 91.5t81.5 242.5t-81.5 242.5t-215.5 91.5t-215.5 -91.5t-81.5 -242.5t81.5 -242.5t215.5 -91.5z" />
    <glyph glyph-name="ntilde" unicode="&#xf1;" horiz-adv-x="1179" 
d="M813 1352h184q0 -109 -73.5 -182.5t-182.5 -73.5q-37 0 -73.5 13.5t-98.5 51.5q-55 37 -73 37q-31 0 -51.5 -20.5t-20.5 -51.5h-184q0 109 73.5 182.5t182.5 73.5q42 0 78 -13.5t94 -51.5q60 -37 73 -37q31 0 51.5 20.5t20.5 51.5zM94 0v1024h246v-76q49 47 126 76
t152 29q210 0 338.5 -114.5t128.5 -301.5v-637h-245v608q0 102 -69 165t-181 63t-181 -63t-69 -165v-608h-246z" />
    <glyph glyph-name="ograve" unicode="&#xf2;" 
d="M487 1130l-180 275h301l119 -275h-240zM608 -29q-249 0 -402 149t-153 392t153 392t402 149t402 -149t153 -392t-153 -392t-402 -149zM608 188q138 0 224 89t86 235t-86 235t-224 89t-223.5 -89t-85.5 -235t85.5 -235t223.5 -89z" />
    <glyph glyph-name="oacute" unicode="&#xf3;" 
d="M709 1130h-240l119 275h301zM608 -29q-249 0 -402 149t-153 392t153 392t402 149t402 -149t153 -392t-153 -392t-402 -149zM608 188q138 0 224 89t86 235t-86 235t-224 89t-223.5 -89t-85.5 -235t85.5 -235t223.5 -89z" />
    <glyph glyph-name="ocircumflex" unicode="&#xf4;" 
d="M260 1126l191 226h317l188 -226h-239l-109 129l-108 -129h-240zM608 -29q-249 0 -402 149t-153 392t153 392t402 149t402 -149t153 -392t-153 -392t-402 -149zM608 188q138 0 224 89t86 235t-86 235t-224 89t-223.5 -89t-85.5 -235t85.5 -235t223.5 -89z" />
    <glyph glyph-name="otilde" unicode="&#xf5;" 
d="M803 1352h184q0 -109 -73.5 -182.5t-182.5 -73.5q-37 0 -73.5 13.5t-98.5 51.5q-55 37 -74 37q-31 0 -51 -20.5t-20 -51.5h-185q0 109 73.5 182.5t182.5 73.5q42 0 78 -13.5t94 -51.5q60 -37 74 -37q31 0 51.5 20.5t20.5 51.5zM608 -29q-249 0 -402 149t-153 392t153 392
t402 149t402 -149t153 -392t-153 -392t-402 -149zM608 188q138 0 224 89t86 235t-86 235t-224 89t-223.5 -89t-85.5 -235t85.5 -235t223.5 -89z" />
    <glyph glyph-name="odieresis" unicode="&#xf6;" 
d="M281 1126v226h245v-226h-245zM690 1126v226h246v-226h-246zM608 -29q-249 0 -402 149t-153 392t153 392t402 149t402 -149t153 -392t-153 -392t-402 -149zM608 188q138 0 224 89t86 235t-86 235t-224 89t-223.5 -89t-85.5 -235t85.5 -235t223.5 -89z" />
    <glyph glyph-name="divide" unicode="&#xf7;" horiz-adv-x="1253" 
d="M475 721v303h303v-303h-303zM94 401v222h1065v-222h-1065zM475 0v303h303v-303h-303z" />
    <glyph glyph-name="oslash" unicode="&#xf8;" 
d="M979 932q89 -73 136.5 -180.5t47.5 -239.5q0 -243 -153 -392t-402 -149q-101 0 -186 27l-23 -37h-241l80 131q-89 73 -137 180.5t-48 239.5q0 243 153 392t402 149q102 0 187 -27l22 37h242zM299 512q0 -124 63 -209l316 526q-40 7 -70 7q-138 0 -223.5 -89t-85.5 -235z
M608 188q138 0 224 89t86 235q0 123 -64 209l-315 -526q40 -7 69 -7z" />
    <glyph glyph-name="ugrave" unicode="&#xf9;" horiz-adv-x="1179" 
d="M467 1130l-180 275h301l119 -275h-240zM1085 1024v-1024h-245v76q-49 -47 -126.5 -76t-152.5 -29q-210 0 -338.5 114.5t-128.5 301.5v637h246v-608q0 -102 69 -165t181 -63t181 63t69 165v608h245z" />
    <glyph glyph-name="uacute" unicode="&#xfa;" horiz-adv-x="1179" 
d="M688 1130h-239l118 275h301zM1085 1024v-1024h-245v76q-49 -47 -126.5 -76t-152.5 -29q-210 0 -338.5 114.5t-128.5 301.5v637h246v-608q0 -102 69 -165t181 -63t181 63t69 165v608h245z" />
    <glyph glyph-name="ucircumflex" unicode="&#xfb;" horiz-adv-x="1179" 
d="M240 1126l190 226h318l188 -226h-240l-108 129l-109 -129h-239zM1085 1024v-1024h-245v76q-49 -47 -126.5 -76t-152.5 -29q-210 0 -338.5 114.5t-128.5 301.5v637h246v-608q0 -102 69 -165t181 -63t181 63t69 165v608h245z" />
    <glyph glyph-name="udieresis" unicode="&#xfc;" horiz-adv-x="1179" 
d="M260 1126v226h246v-226h-246zM670 1126v226h245v-226h-245zM1085 1024v-1024h-245v76q-49 -47 -126.5 -76t-152.5 -29q-210 0 -338.5 114.5t-128.5 301.5v637h246v-608q0 -102 69 -165t181 -63t181 63t69 165v608h245z" />
    <glyph glyph-name="yacute" unicode="&#xfd;" horiz-adv-x="1122" 
d="M659 1130h-239l119 275h301zM260 -381l176 447l-391 958h262l254 -643l252 643h264l-553 -1405h-264z" />
    <glyph glyph-name="thorn" unicode="&#xfe;" horiz-adv-x="1331" 
d="M119 -381v1786h246v-494q59 63 153 102.5t187 39.5q243 0 391.5 -149t148.5 -392t-148.5 -392t-391.5 -149q-93 0 -187 39.5t-153 102.5v-494h-246zM680 188q145 0 232 89t87 235t-87 235t-232 89q-141 0 -228 -89t-87 -235t87 -235t228 -89z" />
    <glyph glyph-name="ydieresis" unicode="&#xff;" horiz-adv-x="1122" 
d="M231 1126v226h246v-226h-246zM641 1126v226h246v-226h-246zM260 -381l176 447l-391 958h262l254 -643l252 643h264l-553 -1405h-264z" />
    <glyph glyph-name="Amacron" unicode="&#x100;" horiz-adv-x="1527" 
d="M1139 1657v-164h-770v164h770zM1190 0l-135 348h-580l-135 -348h-295l580 1405h282l576 -1405h-293zM571 594h387l-194 496z" />
    <glyph glyph-name="amacron" unicode="&#x101;" horiz-adv-x="1257" 
d="M201 1155v164h770v-164h-770zM586 -29q-239 0 -386 149t-147 392t147 392t386 149q91 0 182.5 -38.5t149.5 -101.5v111h245v-1024h-245v111q-58 -63 -149.5 -101.5t-182.5 -38.5zM610 188q138 0 223 89t85 235t-85 235t-223 89q-140 0 -225.5 -89t-85.5 -235t85.5 -235
t225.5 -89z" />
    <glyph glyph-name="Abreve" unicode="&#x102;" horiz-adv-x="1527" 
d="M754 1466q-105 0 -187 62t-110 158h186q45 -52 111 -52q63 0 108 52h187q-28 -96 -110.5 -158t-184.5 -62zM1190 0l-135 348h-580l-135 -348h-295l580 1405h282l576 -1405h-293zM571 594h387l-194 496z" />
    <glyph glyph-name="abreve" unicode="&#x103;" horiz-adv-x="1257" 
d="M248 1405h186q12 -51 55.5 -85t96.5 -34q54 0 96 34t53 85h187q-12 -129 -108.5 -216t-227.5 -87q-132 0 -229 87t-109 216zM586 -29q-239 0 -386 149t-147 392t147 392t386 149q91 0 182.5 -38.5t149.5 -101.5v111h245v-1024h-245v111q-58 -63 -149.5 -101.5
t-182.5 -38.5zM610 188q138 0 223 89t85 235t-85 235t-223 89q-140 0 -225.5 -89t-85.5 -235t85.5 -235t225.5 -89z" />
    <glyph glyph-name="Aogonek" unicode="&#x104;" horiz-adv-x="1527" 
d="M1104 -86q0 -37 24.5 -61.5t61.5 -24.5h113v-199q-56 -18 -113 -18q-129 0 -216 87t-87 216q0 93 67 161t174 85l-73 188h-580l-135 -348h-295l580 1405h282l576 -1405h-293q-37 0 -61.5 -24.5t-24.5 -61.5zM571 594h387l-194 496z" />
    <glyph glyph-name="aogonek" unicode="&#x105;" horiz-adv-x="1257" 
d="M1135 -172h112v-199q-56 -18 -112 -18q-129 0 -216.5 87t-87.5 216q0 104 87 178v19q-58 -63 -149.5 -101.5t-182.5 -38.5q-239 0 -386 149t-147 392t147 392t386 149q91 0 182.5 -38.5t149.5 -101.5v111h245v-1024h-28q-37 0 -61.5 -24.5t-24.5 -61.5t24.5 -61.5
t61.5 -24.5zM610 188q138 0 223 89t85 235t-85 235t-223 89q-140 0 -225.5 -89t-85.5 -235t85.5 -235t225.5 -89z" />
    <glyph glyph-name="Cacute" unicode="&#x106;" horiz-adv-x="1513" 
d="M1083 1686l-178 -220h-239l116 220h301zM784 -29q-328 0 -529.5 201.5t-201.5 529.5q0 329 201.5 530.5t529.5 201.5q239 0 424 -150.5t246 -396.5h-270q-50 135 -160 218t-240 83q-204 0 -330 -134t-126 -352t126 -351.5t330 -133.5q143 0 257 92t155 242h264
q-51 -260 -237.5 -420t-438.5 -160z" />
    <glyph glyph-name="cacute" unicode="&#x107;" horiz-adv-x="1198" 
d="M709 1130h-240l119 275h301zM608 -29q-249 0 -402 149t-153 392t153 392t402 149q206 0 353.5 -120t181.5 -315h-236q-25 97 -107 157.5t-192 60.5q-138 0 -223.5 -89t-85.5 -235t85.5 -235t223.5 -89q112 0 195 63t106 165h236q-32 -200 -180 -322.5t-357 -122.5z" />
    <glyph glyph-name="Cdotaccent" unicode="&#x10a;" horiz-adv-x="1513" 
d="M784 1466q-60 0 -101.5 42.5t-41.5 101.5q0 60 41.5 101.5t101.5 41.5q59 0 101.5 -42.5t42.5 -100.5q0 -57 -43 -100.5t-101 -43.5zM784 -29q-328 0 -529.5 201.5t-201.5 529.5q0 329 201.5 530.5t529.5 201.5q239 0 424 -150.5t246 -396.5h-270q-50 135 -160 218
t-240 83q-204 0 -330 -134t-126 -352t126 -351.5t330 -133.5q143 0 257 92t155 242h264q-51 -260 -237.5 -420t-438.5 -160z" />
    <glyph glyph-name="cdotaccent" unicode="&#x10b;" horiz-adv-x="1198" 
d="M608 1085q-60 0 -101.5 42.5t-41.5 101.5q0 60 41.5 101.5t101.5 41.5q59 0 101.5 -42.5t42.5 -100.5q0 -57 -43 -100.5t-101 -43.5zM608 -29q-249 0 -402 149t-153 392t153 392t402 149q206 0 353.5 -120t181.5 -315h-236q-25 97 -107 157.5t-192 60.5
q-138 0 -223.5 -89t-85.5 -235t85.5 -235t223.5 -89q112 0 195 63t106 165h236q-32 -200 -180 -322.5t-357 -122.5z" />
    <glyph glyph-name="Ccaron" unicode="&#x10c;" horiz-adv-x="1513" 
d="M442 1683h240l102 -122l105 122h239l-184 -219h-317zM784 -29q-328 0 -529.5 201.5t-201.5 529.5q0 329 201.5 530.5t529.5 201.5q239 0 424 -150.5t246 -396.5h-270q-50 135 -160 218t-240 83q-204 0 -330 -134t-126 -352t126 -351.5t330 -133.5q143 0 257 92t155 242
h264q-51 -260 -237.5 -420t-438.5 -160z" />
    <glyph glyph-name="ccaron" unicode="&#x10d;" horiz-adv-x="1198" 
d="M260 1352h240l108 -129l109 129h239l-188 -226h-317zM608 -29q-249 0 -402 149t-153 392t153 392t402 149q206 0 353.5 -120t181.5 -315h-236q-25 97 -107 157.5t-192 60.5q-138 0 -223.5 -89t-85.5 -235t85.5 -235t223.5 -89q112 0 195 63t106 165h236
q-32 -200 -180 -322.5t-357 -122.5z" />
    <glyph glyph-name="Dcaron" unicode="&#x10e;" horiz-adv-x="1433" 
d="M375 1683h239l103 -122l104 122h240l-184 -219h-318zM119 0v1405h547q321 0 517.5 -194t196.5 -509t-196.5 -508.5t-517.5 -193.5h-547zM393 246h273q198 0 319 126t121 330t-121 330.5t-319 126.5h-273v-913z" />
    <glyph glyph-name="dcaron" unicode="&#x10f;" horiz-adv-x="1570" 
d="M594 -29q-243 0 -392 149t-149 392t149 392t392 149q93 0 187 -39.5t153 -102.5v494h246v-1405h-246v113q-59 -63 -153 -102.5t-187 -39.5zM1227 1405h250l-25 -481h-201zM618 188q141 0 228.5 89t87.5 235t-87.5 235t-228.5 89q-143 0 -231 -89t-88 -235t88 -235
t231 -89z" />
    <glyph glyph-name="Dcroat" unicode="&#x110;" horiz-adv-x="1433" 
d="M666 1405q321 0 517.5 -194t196.5 -509t-196.5 -508.5t-517.5 -193.5h-547v631h-119v143h119v631h547zM666 246q198 0 319 126t121 330t-121 330.5t-319 126.5h-273v-385h393v-143h-393v-385h273z" />
    <glyph glyph-name="dcroat" unicode="&#x111;" horiz-adv-x="1273" 
d="M1274 1268v-144h-94v-1124h-246v113q-59 -63 -153 -102.5t-187 -39.5q-243 0 -392 149t-149 392t149 392t392 149q93 0 187 -39.5t153 -102.5v213h-447v144h447v137h246v-137h94zM618 188q141 0 228.5 89t87.5 235t-87.5 235t-228.5 89q-143 0 -231 -89t-88 -235t88 -235
t231 -89z" />
    <glyph glyph-name="Emacron" unicode="&#x112;" horiz-adv-x="1128" 
d="M227 1493v164h770v-164h-770zM119 0v1405h952v-246h-678v-315h604v-246h-604v-352h678v-246h-952z" />
    <glyph glyph-name="emacron" unicode="&#x113;" 
d="M223 1155v164h770v-164h-770zM608 -29q-249 0 -402 149t-153 392t153 392t402 149t402 -149t153 -392v-47l-20 -21h-840q17 -120 101 -194t204 -74q91 0 168.5 47.5t112.5 124.5h250q-51 -169 -197.5 -273t-333.5 -104zM319 649h578q-34 89 -113 144t-176 55t-176 -55
t-113 -144z" />
    <glyph glyph-name="Edotaccent" unicode="&#x116;" horiz-adv-x="1128" 
d="M612 1466q-60 0 -101.5 42.5t-41.5 101.5q0 60 41.5 101.5t101.5 41.5q59 0 101.5 -42.5t42.5 -100.5q0 -57 -43 -100.5t-101 -43.5zM119 0v1405h952v-246h-678v-315h604v-246h-604v-352h678v-246h-952z" />
    <glyph glyph-name="edotaccent" unicode="&#x117;" 
d="M608 1085q-60 0 -101.5 42.5t-41.5 101.5q0 60 41.5 101.5t101.5 41.5q59 0 101.5 -42.5t42.5 -100.5q0 -57 -43 -100.5t-101 -43.5zM608 -29q-249 0 -402 149t-153 392t153 392t402 149t402 -149t153 -392v-47l-20 -21h-840q17 -120 101 -194t204 -74q91 0 168.5 47.5
t112.5 124.5h250q-51 -169 -197.5 -273t-333.5 -104zM319 649h578q-34 89 -113 144t-176 55t-176 -55t-113 -144z" />
    <glyph glyph-name="Eogonek" unicode="&#x118;" horiz-adv-x="1128" 
d="M1071 1159h-678v-315h604v-246h-604v-352h678v-246h-113q-37 0 -61.5 -24.5t-24.5 -61.5t24.5 -61.5t61.5 -24.5h113v-199q-56 -18 -113 -18q-129 0 -216 87t-87 216q0 40 17 86h-553v1405h952v-246z" />
    <glyph glyph-name="eogonek" unicode="&#x119;" 
d="M608 1053q249 0 402 -149t153 -392v-47l-20 -21h-840q17 -120 101 -194t204 -74q91 0 168.5 47.5t112.5 124.5h250q-51 -169 -197.5 -273t-333.5 -104q-37 0 -61.5 -24.5t-24.5 -61.5t24.5 -61.5t61.5 -24.5h113v-198q-59 -19 -113 -19q-129 0 -216 87t-87 216
q0 79 47 138q-141 62 -220 189.5t-79 299.5q0 243 153 392t402 149zM319 649h578q-34 89 -113 144t-176 55t-176 -55t-113 -144z" />
    <glyph glyph-name="Ecaron" unicode="&#x11a;" horiz-adv-x="1128" 
d="M270 1683h240l102 -122l105 122h239l-184 -219h-317zM119 0v1405h952v-246h-678v-315h604v-246h-604v-352h678v-246h-952z" />
    <glyph glyph-name="ecaron" unicode="&#x11b;" 
d="M260 1352h240l108 -129l109 129h239l-188 -226h-317zM608 -29q-249 0 -402 149t-153 392t153 392t402 149t402 -149t153 -392v-47l-20 -21h-840q17 -120 101 -194t204 -74q91 0 168.5 47.5t112.5 124.5h250q-51 -169 -197.5 -273t-333.5 -104zM319 649h578
q-34 89 -113 144t-176 55t-176 -55t-113 -144z" />
    <glyph glyph-name="Gbreve" unicode="&#x11e;" horiz-adv-x="1523" 
d="M487 1686h187q45 -52 110 -52q64 0 109 52h186q-28 -96 -110.5 -158t-184.5 -62q-105 0 -187 62t-110 158zM784 -29q-328 0 -529.5 202.5t-201.5 531.5q0 327 201.5 528t529.5 201q180 0 346.5 -109.5t258.5 -288.5l-256 -63q-55 97 -151.5 156t-197.5 59
q-204 0 -330 -133t-126 -350q0 -218 126 -353t330 -135q142 0 253 92t149 242h-463v246h747v-92q0 -162 -49.5 -299t-138.5 -232.5t-217 -149t-281 -53.5z" />
    <glyph glyph-name="gbreve" unicode="&#x11f;" horiz-adv-x="1220" 
d="M264 1405h187q12 -51 55 -85t96 -34q54 0 96.5 34t53.5 85h186q-12 -129 -108.5 -216t-227.5 -87q-132 0 -229 87t-109 216zM590 -410q-207 0 -349 113t-165 297h235q23 -86 100.5 -139.5t178.5 -53.5q130 0 210.5 84.5t80.5 221.5v16q-57 -58 -143 -93.5t-171 -35.5
q-230 0 -372 145t-142 381t142 381.5t372 145.5q85 0 171 -35.5t143 -93.5v100h245v-911q0 -235 -147.5 -379t-388.5 -144zM592 217q129 0 209 85.5t80 223.5t-80 224t-209 86q-132 0 -212.5 -86t-80.5 -224t80.5 -223.5t212.5 -85.5z" />
    <glyph glyph-name="Gdotaccent" unicode="&#x120;" horiz-adv-x="1523" 
d="M784 1434q-60 0 -101.5 42t-41.5 101q0 60 41.5 101.5t101.5 41.5q59 0 101.5 -42.5t42.5 -100.5q0 -57 -43 -100t-101 -43zM784 -29q-328 0 -529.5 202.5t-201.5 531.5q0 327 201.5 528t529.5 201q180 0 346.5 -109.5t258.5 -288.5l-256 -63q-55 97 -151.5 156
t-197.5 59q-204 0 -330 -133t-126 -350q0 -218 126 -353t330 -135q142 0 253 92t149 242h-463v246h747v-92q0 -162 -49.5 -299t-138.5 -232.5t-217 -149t-281 -53.5z" />
    <glyph glyph-name="gdotaccent" unicode="&#x121;" horiz-adv-x="1220" 
d="M602 1085q-60 0 -101.5 42.5t-41.5 101.5q0 60 41.5 101.5t101.5 41.5q58 0 100.5 -42t42.5 -101q0 -57 -42.5 -100.5t-100.5 -43.5zM590 -410q-207 0 -349 113t-165 297h235q23 -86 100.5 -139.5t178.5 -53.5q130 0 210.5 84.5t80.5 221.5v16q-57 -58 -143 -93.5
t-171 -35.5q-230 0 -372 145t-142 381t142 381.5t372 145.5q85 0 171 -35.5t143 -93.5v100h245v-911q0 -235 -147.5 -379t-388.5 -144zM592 217q129 0 209 85.5t80 223.5t-80 224t-209 86q-132 0 -212.5 -86t-80.5 -224t80.5 -223.5t212.5 -85.5z" />
    <glyph glyph-name="uni0122" unicode="&#x122;" horiz-adv-x="1523" 
d="M784 -29q-328 0 -529.5 202.5t-201.5 531.5q0 327 201.5 528t529.5 201q180 0 346.5 -109.5t258.5 -288.5l-256 -63q-55 97 -151.5 156t-197.5 59q-204 0 -330 -133t-126 -350q0 -218 126 -353t330 -135q142 0 253 92t149 242h-463v246h747v-92q0 -162 -49.5 -299
t-138.5 -232.5t-217 -149t-281 -53.5zM776 -377h-239l118 275h301z" />
    <glyph glyph-name="uni0123" unicode="&#x123;" horiz-adv-x="1220" 
d="M745 1290v-164h-286v164q0 122 81.5 202.5t204.5 80.5v-184q-43 0 -72.5 -29t-29.5 -70h102zM881 1024h245v-911q0 -235 -147.5 -379t-388.5 -144q-207 0 -349 113t-165 297h235q23 -86 100.5 -139.5t178.5 -53.5q130 0 210.5 84.5t80.5 221.5v16q-57 -58 -143 -93.5
t-171 -35.5q-230 0 -372 145t-142 381t142 381.5t372 145.5q85 0 171 -35.5t143 -93.5v100zM592 217q129 0 209 85.5t80 223.5t-80 224t-209 86q-132 0 -212.5 -86t-80.5 -224t80.5 -223.5t212.5 -85.5z" />
    <glyph glyph-name="Hbar" unicode="&#x126;" horiz-adv-x="1433" 
d="M1380 1280v-205h-65v-1075h-275v598h-647v-598h-274v1075h-111v205h111v125h274v-125h647v125h275v-125h65zM1040 844v231h-647v-231h647z" />
    <glyph glyph-name="hbar" unicode="&#x127;" horiz-adv-x="1179" 
d="M618 1053q210 0 338.5 -114.5t128.5 -301.5v-637h-245v608q0 102 -69 165t-181 63t-181 -63t-69 -165v-608h-246v1120h-96v144h96v141h246v-141h444v-144h-444v-172q49 47 126 76t152 29z" />
    <glyph glyph-name="Itilde" unicode="&#x128;" horiz-adv-x="512" 
d="M424 1675h160q0 -94 -64 -157.5t-158 -63.5q-32 0 -63 11.5t-86 45.5q-46 31 -63 31q-26 0 -44 -17.5t-18 -43.5h-160q0 95 64 158t158 63q37 0 67.5 -11.5t81.5 -43.5q50 -33 63 -33q26 0 44 17.5t18 43.5zM119 0v1405h274v-1405h-274z" />
    <glyph glyph-name="itilde" unicode="&#x129;" horiz-adv-x="434" 
d="M412 1352h184q0 -109 -73.5 -182.5t-182.5 -73.5q-37 0 -73.5 13.5t-98.5 51.5q-55 37 -74 37q-31 0 -51 -20.5t-20 -51.5h-185q0 109 73.5 182.5t182.5 73.5q42 0 78 -13.5t94 -51.5q60 -37 74 -37q31 0 51.5 20.5t20.5 51.5zM94 0v1024h246v-1024h-246z" />
    <glyph glyph-name="Imacron" unicode="&#x12a;" horiz-adv-x="512" 
d="M-129 1493v164h770v-164h-770zM119 0v1405h274v-1405h-274z" />
    <glyph glyph-name="imacron" unicode="&#x12b;" horiz-adv-x="434" 
d="M-168 1155v164h770v-164h-770zM94 0v1024h246v-1024h-246z" />
    <glyph glyph-name="Iogonek" unicode="&#x12e;" horiz-adv-x="512" 
d="M227 0q-37 0 -61.5 -24.5t-24.5 -61.5t24.5 -61.5t61.5 -24.5h113v-199q-56 -18 -113 -18q-129 0 -216 87t-87 216q0 82 53.5 145.5t141.5 90.5v1255h274v-1405h-166z" />
    <glyph glyph-name="iogonek" unicode="&#x12f;" horiz-adv-x="434" 
d="M217 1085q-60 0 -101.5 42.5t-41.5 101.5q0 60 41.5 101.5t101.5 41.5q59 0 101 -42t42 -101q0 -57 -42.5 -100.5t-100.5 -43.5zM94 143v881h246v-1024h-123q-37 0 -61.5 -24.5t-24.5 -61.5t24.5 -61.5t61.5 -24.5h113v-199q-56 -18 -113 -18q-129 0 -216 87t-87 216
q0 79 48.5 140t131.5 89z" />
    <glyph glyph-name="Idotaccent" unicode="&#x130;" horiz-adv-x="512" 
d="M256 1466q-60 0 -101.5 42.5t-41.5 101.5q0 60 41.5 101.5t101.5 41.5q58 0 100.5 -42.5t42.5 -100.5q0 -57 -42.5 -100.5t-100.5 -43.5zM119 0v1405h274v-1405h-274z" />
    <glyph glyph-name="dotlessi" unicode="&#x131;" horiz-adv-x="434" 
d="M94 0v1024h246v-1024h-246z" />
    <glyph glyph-name="uni0136" unicode="&#x136;" horiz-adv-x="1392" 
d="M119 0v1405h274v-637l582 637h371l-568 -610l570 -795h-320l-430 600l-205 -219v-381h-274zM643 -377h-240l119 275h301z" />
    <glyph glyph-name="uni0137" unicode="&#x137;" horiz-adv-x="1124" 
d="M94 0v1405h246v-729l346 348h344l-434 -426l483 -598h-315l-344 426l-80 -80v-346h-246zM535 -377h-240l119 275h301z" />
    <glyph glyph-name="Lacute" unicode="&#x139;" horiz-adv-x="1128" 
d="M551 1686l-178 -220h-240l117 220h301zM119 0v1405h274v-1159h678v-246h-952z" />
    <glyph glyph-name="lacute" unicode="&#x13a;" horiz-adv-x="434" 
d="M516 1686l-178 -220h-240l117 220h301zM94 0v1405h246v-1405h-246z" />
    <glyph glyph-name="uni013B" unicode="&#x13b;" horiz-adv-x="1128" 
d="M119 0v1405h274v-1159h678v-246h-952zM528 -377h-239l119 275h301z" />
    <glyph glyph-name="uni013C" unicode="&#x13c;" horiz-adv-x="434" 
d="M94 0v1405h246v-1405h-246zM199 -377h-240l119 275h301z" />
    <glyph glyph-name="Lcaron" unicode="&#x13d;" horiz-adv-x="1128" 
d="M119 0v1405h274v-1159h678v-246h-952zM494 1405h249l-24 -481h-201z" />
    <glyph glyph-name="lcaron" unicode="&#x13e;" horiz-adv-x="835" 
d="M94 0v1405h246v-1405h-246zM467 1405h250l-25 -481h-200z" />
    <glyph glyph-name="Lslash" unicode="&#x141;" horiz-adv-x="1128" 
d="M393 246h678v-246h-952v481l-137 -127v279l137 127v645h274v-389l215 201v-279l-215 -201v-491z" />
    <glyph glyph-name="lslash" unicode="&#x142;" horiz-adv-x="741" 
d="M684 1141v-279l-190 -178v-684h-246v457l-191 -178v278l191 178v670h246v-442z" />
    <glyph glyph-name="Nacute" unicode="&#x143;" horiz-adv-x="1503" 
d="M1042 1686l-178 -220h-239l116 220h301zM119 0v1405h301l690 -1022v1022h274v-1405h-301l-690 1024v-1024h-274z" />
    <glyph glyph-name="nacute" unicode="&#x144;" horiz-adv-x="1179" 
d="M719 1130h-240l119 275h301zM94 0v1024h246v-76q49 47 126 76t152 29q210 0 338.5 -114.5t128.5 -301.5v-637h-245v608q0 102 -69 165t-181 63t-181 -63t-69 -165v-608h-246z" />
    <glyph glyph-name="uni0145" unicode="&#x145;" horiz-adv-x="1503" 
d="M119 0v1405h301l690 -1022v1022h274v-1405h-301l-690 1024v-1024h-274zM735 -377h-239l118 275h301z" />
    <glyph glyph-name="uni0146" unicode="&#x146;" horiz-adv-x="1179" 
d="M94 0v1024h246v-76q49 47 126 76t152 29q210 0 338.5 -114.5t128.5 -301.5v-637h-245v608q0 102 -69 165t-181 63t-181 -63t-69 -165v-608h-246zM610 -377h-239l118 275h302z" />
    <glyph glyph-name="Ncaron" unicode="&#x147;" horiz-adv-x="1503" 
d="M401 1683h240l102 -122l105 122h239l-184 -219h-317zM119 0v1405h301l690 -1022v1022h274v-1405h-301l-690 1024v-1024h-274z" />
    <glyph glyph-name="ncaron" unicode="&#x148;" horiz-adv-x="1179" 
d="M270 1352h240l108 -129l109 129h240l-189 -226h-317zM94 0v1024h246v-76q49 47 126 76t152 29q210 0 338.5 -114.5t128.5 -301.5v-637h-245v608q0 102 -69 165t-181 63t-181 -63t-69 -165v-608h-246z" />
    <glyph glyph-name="Eng" unicode="&#x14a;" horiz-adv-x="1503" 
d="M1110 1405h274v-1487q0 -148 -84 -238t-221 -90q-119 0 -186 29v176h111q50 0 85 32t35 91v21l-731 1085v-1024h-274v1405h301l690 -1022v1022z" />
    <glyph glyph-name="eng" unicode="&#x14b;" horiz-adv-x="1179" 
d="M618 1053q210 0 338.5 -114.5t128.5 -301.5v-719q0 -148 -84 -238t-221 -90q-92 0 -155 29v176h125q90 0 90 123v690q0 102 -69 165t-181 63t-181 -63t-69 -165v-608h-246v1024h246v-76q49 47 126 76t152 29z" />
    <glyph glyph-name="Omacron" unicode="&#x14c;" horiz-adv-x="1568" 
d="M399 1493v164h770v-164h-770zM784 -29q-328 0 -529.5 201.5t-201.5 529.5q0 329 201.5 530.5t529.5 201.5t530 -202t202 -530t-201.5 -529.5t-530.5 -201.5zM784 217q206 0 331.5 133.5t125.5 351.5t-126 352t-331 134t-330.5 -134t-125.5 -352t125.5 -351.5
t330.5 -133.5z" />
    <glyph glyph-name="omacron" unicode="&#x14d;" 
d="M223 1155v164h770v-164h-770zM608 -29q-249 0 -402 149t-153 392t153 392t402 149t402 -149t153 -392t-153 -392t-402 -149zM608 188q138 0 224 89t86 235t-86 235t-224 89t-223.5 -89t-85.5 -235t85.5 -235t223.5 -89z" />
    <glyph glyph-name="Ohungarumlaut" unicode="&#x150;" horiz-adv-x="1568" 
d="M874 1686l-178 -220h-239l116 220h301zM1225 1686l-178 -220h-240l117 220h301zM784 -29q-328 0 -529.5 201.5t-201.5 529.5q0 329 201.5 530.5t529.5 201.5t530 -202t202 -530t-201.5 -529.5t-530.5 -201.5zM784 217q206 0 331.5 133.5t125.5 351.5t-126 352t-331 134
t-330.5 -134t-125.5 -352t125.5 -351.5t330.5 -133.5z" />
    <glyph glyph-name="ohungarumlaut" unicode="&#x151;" 
d="M465 1130h-240l119 275h301zM860 1130h-239l118 275h301zM608 -29q-249 0 -402 149t-153 392t153 392t402 149t402 -149t153 -392t-153 -392t-402 -149zM608 188q138 0 224 89t86 235t-86 235t-224 89t-223.5 -89t-85.5 -235t85.5 -235t223.5 -89z" />
    <glyph glyph-name="OE" unicode="&#x152;" horiz-adv-x="2250" 
d="M758 -29q-317 0 -511 201.5t-194 529.5q0 329 194.5 530.5t510.5 201.5q133 0 266.5 -64.5t216.5 -169.5v205h952v-246h-677v-315h604v-246h-604v-352h677v-246h-952v207q-85 -106 -218 -171t-265 -65zM784 217q204 0 330.5 133.5t126.5 351.5t-126.5 352t-330.5 134
t-330 -134t-126 -352t126 -351.5t330 -133.5z" />
    <glyph glyph-name="oe" unicode="&#x153;" horiz-adv-x="2080" 
d="M608 -29q-249 0 -402 149t-153 392t153 392t402 149q122 0 241 -52t191 -137q70 85 190 137t243 52q249 0 402 -149t153 -392v-47l-21 -21h-840q17 -115 101.5 -185.5t204.5 -70.5q92 0 169 44t111 116h250q-51 -169 -197 -273t-333 -104q-122 0 -241.5 52t-191.5 137
q-70 -85 -189.5 -137t-242.5 -52zM608 188q138 0 224 89t86 235t-86 235t-224 89t-223.5 -89t-85.5 -235t85.5 -235t223.5 -89zM1184 649h577q-32 84 -111 135.5t-177 51.5t-177.5 -51.5t-111.5 -135.5z" />
    <glyph glyph-name="Racute" unicode="&#x154;" horiz-adv-x="1380" 
d="M913 1686l-178 -220h-239l116 220h301zM119 0v1405h653q204 0 330.5 -111.5t126.5 -292.5q0 -139 -78.5 -245t-206.5 -138l383 -618h-303l-371 598h-260v-598h-274zM393 844h379q85 0 137 43.5t52 113.5q0 71 -52 114.5t-137 43.5h-379v-315z" />
    <glyph glyph-name="racute" unicode="&#x155;" horiz-adv-x="753" 
d="M485 1130h-239l119 275h301zM94 0v1024h246v-121q40 63 108.5 102t139.5 39q60 0 108 -20v-188h-84q-123 0 -197.5 -63.5t-74.5 -166.5v-606h-246z" />
    <glyph glyph-name="uni0156" unicode="&#x156;" horiz-adv-x="1380" 
d="M119 0v1405h653q204 0 330.5 -111.5t126.5 -292.5q0 -139 -78.5 -245t-206.5 -138l383 -618h-303l-371 598h-260v-598h-274zM393 844h379q85 0 137 43.5t52 113.5q0 71 -52 114.5t-137 43.5h-379v-315zM688 -377h-239l118 275h301z" />
    <glyph glyph-name="uni0157" unicode="&#x157;" horiz-adv-x="753" 
d="M94 0v1024h246v-121q40 63 108.5 102t139.5 39q60 0 108 -20v-188h-84q-123 0 -197.5 -63.5t-74.5 -166.5v-606h-246zM193 -377h-240l119 275h301z" />
    <glyph glyph-name="Rcaron" unicode="&#x158;" horiz-adv-x="1380" 
d="M272 1683h240l102 -122l105 122h239l-184 -219h-317zM119 0v1405h653q204 0 330.5 -111.5t126.5 -292.5q0 -139 -78.5 -245t-206.5 -138l383 -618h-303l-371 598h-260v-598h-274zM393 844h379q85 0 137 43.5t52 113.5q0 71 -52 114.5t-137 43.5h-379v-315z" />
    <glyph glyph-name="rcaron" unicode="&#x159;" horiz-adv-x="753" 
d="M37 1352h239l109 -129l109 129h239l-188 -226h-318zM94 0v1024h246v-121q40 63 108.5 102t139.5 39q60 0 108 -20v-188h-84q-123 0 -197.5 -63.5t-74.5 -166.5v-606h-246z" />
    <glyph glyph-name="Sacute" unicode="&#x15a;" horiz-adv-x="1372" 
d="M993 1686l-178 -220h-240l117 220h301zM694 -29q-187 0 -331.5 63.5t-225.5 180t-84 268.5h260q4 -120 109.5 -193t271.5 -73q158 0 255.5 53.5t97.5 139.5q0 69 -81 114.5t-284 89.5q-306 69 -428.5 159t-122.5 247q0 186 155 300t408 114q211 0 371 -111.5t209 -292.5
l-252 -63q-25 100 -115 160.5t-213 60.5q-130 0 -210.5 -46.5t-80.5 -121.5q0 -47 70.5 -82.5t243.5 -75.5q335 -80 468.5 -180t133.5 -272q0 -197 -172 -318t-453 -121z" />
    <glyph glyph-name="sacute" unicode="&#x15b;" horiz-adv-x="1056" 
d="M629 1130h-240l119 275h301zM528 -29q-207 0 -338 104t-137 273h232q6 -77 73 -124.5t170 -47.5t166.5 36.5t63.5 96.5q0 40 -56 66.5t-196 54.5q-219 50 -305 117t-86 188q0 143 113.5 230.5t299.5 87.5q148 0 266 -73.5t162 -193.5l-225 -55q-23 52 -79 84.5t-124 32.5
q-75 0 -121.5 -28t-46.5 -72q0 -32 43 -55t150 -48q251 -53 351 -127t100 -209q0 -152 -131 -245t-345 -93z" />
    <glyph glyph-name="Scedilla" unicode="&#x15e;" horiz-adv-x="1372" 
d="M688 -29q-37 0 -61.5 -24.5t-24.5 -61.5t24.5 -61.5t61.5 -24.5h113v-198q-59 -19 -113 -19q-129 0 -216 87t-87 216q0 69 39 127q-171 56 -269.5 179.5t-101.5 291.5h260q4 -120 109.5 -193t271.5 -73q158 0 255.5 53.5t97.5 139.5q0 69 -81 114.5t-284 89.5
q-306 69 -428.5 159t-122.5 247q0 186 155 300t408 114q211 0 371 -111.5t209 -292.5l-252 -63q-25 100 -115 160.5t-213 60.5q-130 0 -210.5 -46.5t-80.5 -121.5q0 -47 70.5 -82.5t243.5 -75.5q335 -80 468.5 -180t133.5 -272q0 -197 -172 -318t-453 -121h-6z" />
    <glyph glyph-name="scedilla" unicode="&#x15f;" horiz-adv-x="1056" 
d="M528 -29q-37 0 -61.5 -24.5t-24.5 -61.5t24.5 -61.5t61.5 -24.5h113v-198q-59 -19 -113 -19q-129 0 -216 87t-87 216q0 77 47 140q-99 46 -157 130.5t-62 192.5h232q6 -77 73 -124.5t170 -47.5t166.5 36.5t63.5 96.5q0 40 -56 66.5t-196 54.5q-219 50 -305 117t-86 188
q0 143 113.5 230.5t299.5 87.5q148 0 266 -73.5t162 -193.5l-225 -55q-23 52 -79 84.5t-124 32.5q-75 0 -121.5 -28t-46.5 -72q0 -32 43 -55t150 -48q251 -53 351 -127t100 -209q0 -152 -131 -245t-345 -93z" />
    <glyph glyph-name="Scaron" unicode="&#x160;" horiz-adv-x="1372" 
d="M352 1683h240l102 -122l105 122h239l-184 -219h-317zM694 -29q-187 0 -331.5 63.5t-225.5 180t-84 268.5h260q4 -120 109.5 -193t271.5 -73q158 0 255.5 53.5t97.5 139.5q0 69 -81 114.5t-284 89.5q-306 69 -428.5 159t-122.5 247q0 186 155 300t408 114
q211 0 371 -111.5t209 -292.5l-252 -63q-25 100 -115 160.5t-213 60.5q-130 0 -210.5 -46.5t-80.5 -121.5q0 -47 70.5 -82.5t243.5 -75.5q335 -80 468.5 -180t133.5 -272q0 -197 -172 -318t-453 -121z" />
    <glyph glyph-name="scaron" unicode="&#x161;" horiz-adv-x="1056" 
d="M180 1352h240l108 -129l109 129h240l-189 -226h-317zM528 -29q-207 0 -338 104t-137 273h232q6 -77 73 -124.5t170 -47.5t166.5 36.5t63.5 96.5q0 40 -56 66.5t-196 54.5q-219 50 -305 117t-86 188q0 143 113.5 230.5t299.5 87.5q148 0 266 -73.5t162 -193.5l-225 -55
q-23 52 -79 84.5t-124 32.5q-75 0 -121.5 -28t-46.5 -72q0 -32 43 -55t150 -48q251 -53 351 -127t100 -209q0 -152 -131 -245t-345 -93z" />
    <glyph glyph-name="uni0162" unicode="&#x162;" horiz-adv-x="1200" 
d="M463 0v1159h-406v246h1086v-246h-406v-1159h-274zM563 -377h-239l118 275h301z" />
    <glyph glyph-name="uni0163" unicode="&#x163;" horiz-adv-x="792" 
d="M561 -29q-152 0 -246 80.5t-94 210.5v557h-164v205h164v381h246v-381h258v-205h-258v-557q0 -38 25 -62t65 -24h178v-176q-71 -29 -174 -29zM555 -377h-240l119 275h301z" />
    <glyph glyph-name="Tcaron" unicode="&#x164;" horiz-adv-x="1200" 
d="M258 1683h240l102 -122l105 122h239l-184 -219h-318zM463 0v1159h-406v246h1086v-246h-406v-1159h-274z" />
    <glyph glyph-name="tcaron" unicode="&#x165;" horiz-adv-x="792" 
d="M561 -29q-152 0 -246 80.5t-94 210.5v557h-164v205h164v381h246v-381h258v-205h-258v-557q0 -38 25 -62t65 -24h178v-176q-71 -29 -174 -29zM737 1405h250l-24 -481h-201z" />
    <glyph glyph-name="Tbar" unicode="&#x166;" horiz-adv-x="1200" 
d="M1143 1159h-406v-385h256v-143h-256v-631h-274v631h-256v143h256v385h-406v246h1086v-246z" />
    <glyph glyph-name="tbar" unicode="&#x167;" horiz-adv-x="792" 
d="M557 176h178v-176q-71 -29 -174 -29q-152 0 -246 80.5t-94 210.5v180h-164v185h164v192h-164v205h164v381h246v-381h258v-205h-258v-192h258v-185h-258v-180q0 -38 25 -62t65 -24z" />
    <glyph glyph-name="Utilde" unicode="&#x168;" horiz-adv-x="1437" 
d="M879 1675h159q0 -94 -63.5 -157.5t-157.5 -63.5q-32 0 -63 11.5t-86 45.5q-46 31 -64 31q-26 0 -43.5 -17.5t-17.5 -43.5h-160q0 95 63.5 158t157.5 63q37 0 68 -11.5t82 -43.5q50 -33 63 -33q26 0 44 17.5t18 43.5zM721 -29q-270 0 -436 153.5t-166 403.5v877h274v-877
q0 -140 90 -225.5t238 -85.5q146 0 234.5 85.5t88.5 225.5v877h275v-877q0 -250 -164.5 -403.5t-433.5 -153.5z" />
    <glyph glyph-name="utilde" unicode="&#x169;" horiz-adv-x="1179" 
d="M782 1352h185q0 -109 -73.5 -182.5t-182.5 -73.5q-37 0 -73.5 13.5t-98.5 51.5q-55 37 -74 37q-31 0 -51.5 -20.5t-20.5 -51.5h-184q0 109 73.5 182.5t182.5 73.5q42 0 78 -13.5t94 -51.5q60 -37 74 -37q31 0 51 20.5t20 51.5zM1085 1024v-1024h-245v76
q-49 -47 -126.5 -76t-152.5 -29q-210 0 -338.5 114.5t-128.5 301.5v637h246v-608q0 -102 69 -165t181 -63t181 63t69 165v608h245z" />
    <glyph glyph-name="Umacron" unicode="&#x16a;" horiz-adv-x="1437" 
d="M326 1493v164h770v-164h-770zM721 -29q-270 0 -436 153.5t-166 403.5v877h274v-877q0 -140 90 -225.5t238 -85.5q146 0 234.5 85.5t88.5 225.5v877h275v-877q0 -250 -164.5 -403.5t-433.5 -153.5z" />
    <glyph glyph-name="umacron" unicode="&#x16b;" horiz-adv-x="1179" 
d="M203 1155v164h770v-164h-770zM1085 1024v-1024h-245v76q-49 -47 -126.5 -76t-152.5 -29q-210 0 -338.5 114.5t-128.5 301.5v637h246v-608q0 -102 69 -165t181 -63t181 63t69 165v608h245z" />
    <glyph glyph-name="Uring" unicode="&#x16e;" horiz-adv-x="1437" 
d="M711 1190q-91 0 -155 63.5t-64 155.5q0 91 64 155t155 64t155 -64t64 -155q0 -92 -64 -155.5t-155 -63.5zM711 1358q23 0 37 14t14 37q0 20 -15.5 35.5t-35.5 15.5t-36 -15.5t-16 -35.5q0 -23 14.5 -37t37.5 -14zM721 -29q-270 0 -436 153.5t-166 403.5v877h274v-877
q0 -140 90 -225.5t238 -85.5q146 0 234.5 85.5t88.5 225.5v877h275v-877q0 -250 -164.5 -403.5t-433.5 -153.5z" />
    <glyph glyph-name="uring" unicode="&#x16f;" horiz-adv-x="1179" 
d="M588 1071q-91 0 -155 63.5t-64 155.5q0 91 64 155t155 64t155 -64t64 -155q0 -92 -64 -155.5t-155 -63.5zM588 1239q23 0 37 14t14 37q0 20 -15.5 35.5t-35.5 15.5t-35.5 -15.5t-15.5 -35.5q0 -23 14 -37t37 -14zM1085 1024v-1024h-245v76q-49 -47 -126.5 -76t-152.5 -29
q-210 0 -338.5 114.5t-128.5 301.5v637h246v-608q0 -102 69 -165t181 -63t181 63t69 165v608h245z" />
    <glyph glyph-name="Uhungarumlaut" unicode="&#x170;" horiz-adv-x="1437" 
d="M801 1686l-178 -220h-240l117 220h301zM1151 1686l-178 -220h-240l117 220h301zM721 -29q-270 0 -436 153.5t-166 403.5v877h274v-877q0 -140 90 -225.5t238 -85.5q146 0 234.5 85.5t88.5 225.5v877h275v-877q0 -250 -164.5 -403.5t-433.5 -153.5z" />
    <glyph glyph-name="uhungarumlaut" unicode="&#x171;" horiz-adv-x="1179" 
d="M444 1130h-239l119 275h301zM840 1130h-240l119 275h301zM1085 1024v-1024h-245v76q-49 -47 -126.5 -76t-152.5 -29q-210 0 -338.5 114.5t-128.5 301.5v637h246v-608q0 -102 69 -165t181 -63t181 63t69 165v608h245z" />
    <glyph glyph-name="Uogonek" unicode="&#x172;" horiz-adv-x="1437" 
d="M1044 1405h275v-877q0 -250 -164.5 -403.5t-433.5 -153.5q-37 0 -61.5 -24.5t-24.5 -61.5t24.5 -61.5t61.5 -24.5h113v-198q-59 -19 -113 -19q-129 0 -216 87t-87 216q0 72 43 131q-161 62 -251.5 195.5t-90.5 316.5v877h274v-877q0 -140 90 -225.5t238 -85.5
q146 0 234.5 85.5t88.5 225.5v877z" />
    <glyph glyph-name="uogonek" unicode="&#x173;" horiz-adv-x="1179" 
d="M1085 -172h113v-199q-56 -18 -113 -18q-129 0 -216 87t-87 216q0 85 58 149v13q-49 -47 -126.5 -76t-152.5 -29q-210 0 -338.5 114.5t-128.5 301.5v637h246v-608q0 -102 69 -165t181 -63t181 63t69 165v608h245v-1024q-37 0 -61.5 -24.5t-24.5 -61.5t24.5 -61.5
t61.5 -24.5z" />
    <glyph glyph-name="Wcircumflex" unicode="&#x174;" horiz-adv-x="1890" 
d="M604 1466l184 220h318l184 -220h-239l-105 123l-102 -123h-240zM442 0l-397 1405h285l258 -1049l223 1049h268l224 -1049l260 1049h282l-395 -1405h-307l-197 903l-198 -903h-306z" />
    <glyph glyph-name="wcircumflex" unicode="&#x175;" horiz-adv-x="1646" 
d="M475 1126l191 226h317l188 -226h-239l-109 129l-108 -129h-240zM399 0l-354 1024h258l215 -745l191 745h229l190 -745l215 745h259l-353 -1024h-250l-176 662l-174 -662h-250z" />
    <glyph glyph-name="Ycircumflex" unicode="&#x176;" horiz-adv-x="1286" 
d="M301 1466l184 220h318l184 -220h-239l-105 123l-102 -123h-240zM506 0v475l-461 930h303l295 -614l295 614h303l-461 -930v-475h-274z" />
    <glyph glyph-name="ycircumflex" unicode="&#x177;" horiz-adv-x="1122" 
d="M211 1126l190 226h318l188 -226h-239l-109 129l-108 -129h-240zM260 -381l176 447l-391 958h262l254 -643l252 643h264l-553 -1405h-264z" />
    <glyph glyph-name="Ydieresis" unicode="&#x178;" horiz-adv-x="1286" 
d="M315 1460v226h246v-226h-246zM725 1460v226h246v-226h-246zM506 0v475l-461 930h303l295 -614l295 614h303l-461 -930v-475h-274z" />
    <glyph glyph-name="Zacute" unicode="&#x179;" horiz-adv-x="1200" 
d="M899 1686l-178 -220h-240l117 220h301zM57 0v219l725 940h-725v246h1086v-221l-725 -938h725v-246h-1086z" />
    <glyph glyph-name="zacute" unicode="&#x17a;" horiz-adv-x="995" 
d="M590 1130h-240l119 275h301zM57 0v164l545 643h-545v217h881v-164l-545 -643h545v-217h-881z" />
    <glyph glyph-name="Zdotaccent" unicode="&#x17b;" horiz-adv-x="1200" 
d="M600 1434q-60 0 -101.5 42t-41.5 101q0 60 41.5 101.5t101.5 41.5q58 0 100.5 -42t42.5 -101q0 -57 -42.5 -100t-100.5 -43zM57 0v219l725 940h-725v246h1086v-221l-725 -938h725v-246h-1086z" />
    <glyph glyph-name="zdotaccent" unicode="&#x17c;" horiz-adv-x="995" 
d="M489 1085q-60 0 -101.5 42.5t-41.5 101.5q0 60 41.5 101.5t101.5 41.5q59 0 101.5 -42.5t42.5 -100.5q0 -57 -43 -100.5t-101 -43.5zM57 0v164l545 643h-545v217h881v-164l-545 -643h545v-217h-881z" />
    <glyph glyph-name="Zcaron" unicode="&#x17d;" horiz-adv-x="1200" 
d="M258 1683h240l102 -122l105 122h239l-184 -219h-318zM57 0v219l725 940h-725v246h1086v-221l-725 -938h725v-246h-1086z" />
    <glyph glyph-name="zcaron" unicode="&#x17e;" horiz-adv-x="995" 
d="M141 1352h240l108 -129l109 129h240l-189 -226h-317zM57 0v164l545 643h-545v217h881v-164l-545 -643h545v-217h-881z" />
    <glyph glyph-name="florin" unicode="&#x192;" horiz-adv-x="1060" 
d="M207 -412q-97 0 -150 43l27 185h131q97 0 111 104l114 805h-164l29 221h166l23 168q22 145 121.5 232.5t240.5 87.5q91 0 148 -41l-23 -187h-133q-101 0 -113 -104l-22 -156h237l-28 -221h-240l-115 -817q-20 -145 -118.5 -232.5t-241.5 -87.5z" />
    <glyph glyph-name="Ohorn" unicode="&#x1a0;" horiz-adv-x="1568" 
d="M1290 1255q108 -98 167 -240t59 -313q0 -328 -201.5 -529.5t-530.5 -201.5q-328 0 -529.5 201.5t-201.5 529.5q0 329 201.5 530.5t529.5 201.5q113 0 226 -29h59q44 0 74.5 27t30.5 67v105h102q41 -36 68.5 -88.5t27.5 -92.5q0 -105 -82 -168zM784 217q206 0 331.5 133.5
t125.5 351.5t-126 352t-331 134t-330.5 -134t-125.5 -352t125.5 -351.5t330.5 -133.5z" />
    <glyph glyph-name="ohorn" unicode="&#x1a1;" 
d="M1169 1042q0 -62 -30 -112t-82 -78q106 -140 106 -340q0 -243 -153 -392t-402 -149t-402 149t-153 392t153 392t402 149q104 0 199 -29h59q44 0 74.5 27t30.5 67v105h102q41 -36 68.5 -88.5t27.5 -92.5zM608 188q138 0 224 89t86 235t-86 235t-224 89t-223.5 -89
t-85.5 -235t85.5 -235t223.5 -89z" />
    <glyph glyph-name="Uhorn" unicode="&#x1af;" horiz-adv-x="1437" 
d="M1546 1423q0 -92 -64.5 -155t-162.5 -64v-676q0 -250 -164.5 -403.5t-433.5 -153.5q-270 0 -436 153.5t-166 403.5v877h274v-877q0 -140 90 -225.5t238 -85.5q146 0 234.5 85.5t88.5 225.5v877h199q44 0 74.5 27t30.5 67v105h102q41 -36 68.5 -88.5t27.5 -92.5z" />
    <glyph glyph-name="uhorn" unicode="&#x1b0;" horiz-adv-x="1179" 
d="M1257 1042q0 -78 -47.5 -136t-124.5 -77v-829h-245v76q-49 -47 -126.5 -76t-152.5 -29q-210 0 -338.5 114.5t-128.5 301.5v637h246v-608q0 -102 69 -165t181 -63t181 63t69 165v608h114q44 0 74.5 27t30.5 67v105h102q41 -36 68.5 -88.5t27.5 -92.5z" />
    <glyph glyph-name="uni01CD" unicode="&#x1cd;" horiz-adv-x="1527" 
d="M913 1464h-317l-184 219h239l103 -122l104 122h240zM1190 0l-135 348h-580l-135 -348h-295l580 1405h282l576 -1405h-293zM571 594h387l-194 496z" />
    <glyph glyph-name="uni01CE" unicode="&#x1ce;" horiz-adv-x="1257" 
d="M238 1352h239l109 -129l108 129h240l-189 -226h-317zM586 -29q-239 0 -386 149t-147 392t147 392t386 149q91 0 182.5 -38.5t149.5 -101.5v111h245v-1024h-245v111q-58 -63 -149.5 -101.5t-182.5 -38.5zM610 188q138 0 223 89t85 235t-85 235t-223 89q-140 0 -225.5 -89
t-85.5 -235t85.5 -235t225.5 -89z" />
    <glyph glyph-name="uni01CF" unicode="&#x1cf;" horiz-adv-x="512" 
d="M-86 1683h240l102 -122l104 122h240l-184 -219h-318zM119 0v1405h274v-1405h-274z" />
    <glyph glyph-name="uni01D0" unicode="&#x1d0;" horiz-adv-x="434" 
d="M-131 1352h240l108 -129l109 129h239l-188 -226h-318zM94 0v1024h246v-1024h-246z" />
    <glyph glyph-name="uni01D1" unicode="&#x1d1;" horiz-adv-x="1568" 
d="M442 1683h240l102 -122l105 122h239l-184 -219h-317zM784 -29q-328 0 -529.5 201.5t-201.5 529.5q0 329 201.5 530.5t529.5 201.5t530 -202t202 -530t-201.5 -529.5t-530.5 -201.5zM784 217q206 0 331.5 133.5t125.5 351.5t-126 352t-331 134t-330.5 -134t-125.5 -352
t125.5 -351.5t330.5 -133.5z" />
    <glyph glyph-name="uni01D2" unicode="&#x1d2;" 
d="M260 1352h240l108 -129l109 129h239l-188 -226h-317zM608 -29q-249 0 -402 149t-153 392t153 392t402 149t402 -149t153 -392t-153 -392t-402 -149zM608 188q138 0 224 89t86 235t-86 235t-224 89t-223.5 -89t-85.5 -235t85.5 -235t223.5 -89z" />
    <glyph glyph-name="uni01D3" unicode="&#x1d3;" horiz-adv-x="1437" 
d="M369 1683h239l103 -122l104 122h240l-185 -219h-317zM721 -29q-270 0 -436 153.5t-166 403.5v877h274v-877q0 -140 90 -225.5t238 -85.5q146 0 234.5 85.5t88.5 225.5v877h275v-877q0 -250 -164.5 -403.5t-433.5 -153.5z" />
    <glyph glyph-name="uni01D4" unicode="&#x1d4;" horiz-adv-x="1179" 
d="M240 1352h239l109 -129l108 129h240l-188 -226h-318zM1085 1024v-1024h-245v76q-49 -47 -126.5 -76t-152.5 -29q-210 0 -338.5 114.5t-128.5 301.5v637h246v-608q0 -102 69 -165t181 -63t181 63t69 165v608h245z" />
    <glyph glyph-name="uni01D5" unicode="&#x1d5;" horiz-adv-x="1437" 
d="M326 1774v163h770v-163h-770zM383 1460v226h246v-226h-246zM793 1460v226h245v-226h-245zM721 -29q-270 0 -436 153.5t-166 403.5v877h274v-877q0 -140 90 -225.5t238 -85.5q146 0 234.5 85.5t88.5 225.5v877h275v-877q0 -250 -164.5 -403.5t-433.5 -153.5z" />
    <glyph glyph-name="uni01D6" unicode="&#x1d6;" horiz-adv-x="1179" 
d="M203 1483v164h770v-164h-770zM260 1126v226h246v-226h-246zM670 1126v226h245v-226h-245zM1085 1024v-1024h-245v76q-49 -47 -126.5 -76t-152.5 -29q-210 0 -338.5 114.5t-128.5 301.5v637h246v-608q0 -102 69 -165t181 -63t181 63t69 165v608h245z" />
    <glyph glyph-name="uni01D7" unicode="&#x1d7;" horiz-adv-x="1437" 
d="M1010 1966l-179 -219h-239l117 219h301zM383 1460v226h246v-226h-246zM793 1460v226h245v-226h-245zM721 -29q-270 0 -436 153.5t-166 403.5v877h274v-877q0 -140 90 -225.5t238 -85.5q146 0 234.5 85.5t88.5 225.5v877h275v-877q0 -250 -164.5 -403.5t-433.5 -153.5z
" />
    <glyph glyph-name="uni01D8" unicode="&#x1d8;" horiz-adv-x="1179" 
d="M688 1458h-239l118 275h301zM260 1126v226h246v-226h-246zM670 1126v226h245v-226h-245zM1085 1024v-1024h-245v76q-49 -47 -126.5 -76t-152.5 -29q-210 0 -338.5 114.5t-128.5 301.5v637h246v-608q0 -102 69 -165t181 -63t181 63t69 165v608h245z" />
    <glyph glyph-name="uni01D9" unicode="&#x1d9;" horiz-adv-x="1437" 
d="M369 1964h239l103 -123l104 123h240l-185 -219h-317zM383 1460v226h246v-226h-246zM793 1460v226h245v-226h-245zM721 -29q-270 0 -436 153.5t-166 403.5v877h274v-877q0 -140 90 -225.5t238 -85.5q146 0 234.5 85.5t88.5 225.5v877h275v-877q0 -250 -164.5 -403.5
t-433.5 -153.5z" />
    <glyph glyph-name="uni01DA" unicode="&#x1da;" horiz-adv-x="1179" 
d="M240 1679h239l109 -129l108 129h240l-188 -225h-318zM260 1126v226h246v-226h-246zM670 1126v226h245v-226h-245zM1085 1024v-1024h-245v76q-49 -47 -126.5 -76t-152.5 -29q-210 0 -338.5 114.5t-128.5 301.5v637h246v-608q0 -102 69 -165t181 -63t181 63t69 165v608h245
z" />
    <glyph glyph-name="uni01DB" unicode="&#x1db;" horiz-adv-x="1437" 
d="M422 1966h301l117 -219h-240zM383 1460v226h246v-226h-246zM793 1460v226h245v-226h-245zM721 -29q-270 0 -436 153.5t-166 403.5v877h274v-877q0 -140 90 -225.5t238 -85.5q146 0 234.5 85.5t88.5 225.5v877h275v-877q0 -250 -164.5 -403.5t-433.5 -153.5z" />
    <glyph glyph-name="uni01DC" unicode="&#x1dc;" horiz-adv-x="1179" 
d="M467 1458l-180 275h301l119 -275h-240zM260 1126v226h246v-226h-246zM670 1126v226h245v-226h-245zM1085 1024v-1024h-245v76q-49 -47 -126.5 -76t-152.5 -29q-210 0 -338.5 114.5t-128.5 301.5v637h246v-608q0 -102 69 -165t181 -63t181 63t69 165v608h245z" />
    <glyph glyph-name="uni0218" unicode="&#x218;" horiz-adv-x="1372" 
d="M694 -29q-187 0 -331.5 63.5t-225.5 180t-84 268.5h260q4 -120 109.5 -193t271.5 -73q158 0 255.5 53.5t97.5 139.5q0 69 -81 114.5t-284 89.5q-306 69 -428.5 159t-122.5 247q0 186 155 300t408 114q211 0 371 -111.5t209 -292.5l-252 -63q-25 100 -115 160.5t-213 60.5
q-130 0 -210.5 -46.5t-80.5 -121.5q0 -47 70.5 -82.5t243.5 -75.5q335 -80 468.5 -180t133.5 -272q0 -197 -172 -318t-453 -121zM680 -377h-240l119 275h301z" />
    <glyph glyph-name="uni0219" unicode="&#x219;" horiz-adv-x="1056" 
d="M528 -29q-207 0 -338 104t-137 273h232q6 -77 73 -124.5t170 -47.5t166.5 36.5t63.5 96.5q0 40 -56 66.5t-196 54.5q-219 50 -305 117t-86 188q0 143 113.5 230.5t299.5 87.5q148 0 266 -73.5t162 -193.5l-225 -55q-23 52 -79 84.5t-124 32.5q-75 0 -121.5 -28t-46.5 -72
q0 -32 43 -55t150 -48q251 -53 351 -127t100 -209q0 -152 -131 -245t-345 -93zM520 -377h-239l118 275h301z" />
    <glyph glyph-name="uni021A" unicode="&#x21a;" horiz-adv-x="1200" 
d="M463 0v1159h-406v246h1086v-246h-406v-1159h-274zM563 -377h-239l118 275h301z" />
    <glyph glyph-name="uni021B" unicode="&#x21b;" horiz-adv-x="792" 
d="M561 -29q-152 0 -246 80.5t-94 210.5v557h-164v205h164v381h246v-381h258v-205h-258v-557q0 -38 25 -62t65 -24h178v-176q-71 -29 -174 -29zM555 -377h-240l119 275h301z" />
    <glyph glyph-name="uni0237" unicode="&#x237;" horiz-adv-x="466" 
d="M68 -410q-93 0 -156 29v176h125q90 0 90 123v1106h246v-1106q0 -148 -84 -238t-221 -90z" />
    <glyph glyph-name="circumflex" unicode="&#x2c6;" horiz-adv-x="1228" 
d="M266 1126l191 226h317l189 -226h-240l-109 129l-108 -129h-240z" />
    <glyph glyph-name="caron" unicode="&#x2c7;" horiz-adv-x="1228" 
d="M266 1446h240l108 -129l109 129h240l-189 -225h-317z" />
    <glyph glyph-name="breve" unicode="&#x2d8;" horiz-adv-x="1228" 
d="M276 1405h187q12 -51 55 -85t96 -34q54 0 96.5 34t53.5 85h186q-12 -129 -108.5 -216t-227.5 -87q-132 0 -229 87t-109 216z" />
    <glyph glyph-name="dotaccent" unicode="&#x2d9;" horiz-adv-x="1228" 
d="M614 1085q-60 0 -101.5 42.5t-41.5 101.5q0 60 41.5 101.5t101.5 41.5q59 0 101.5 -42.5t42.5 -100.5q0 -57 -43 -100.5t-101 -43.5z" />
    <glyph glyph-name="ring" unicode="&#x2da;" horiz-adv-x="1228" 
d="M614 1071q-91 0 -155 63.5t-64 155.5q0 91 64 155t155 64t155.5 -64t64.5 -155q0 -92 -64.5 -155.5t-155.5 -63.5zM614 1239q23 0 37.5 14t14.5 37q0 20 -16 35.5t-36 15.5t-35.5 -15.5t-15.5 -35.5q0 -23 14 -37t37 -14z" />
    <glyph glyph-name="ogonek" unicode="&#x2db;" horiz-adv-x="1228" 
d="M311 -115q0 107 87 178.5t216 71.5v-164q-37 0 -61.5 -24.5t-24.5 -61.5t24.5 -61.5t61.5 -24.5h113v-198q-59 -19 -113 -19q-129 0 -216 87t-87 216z" />
    <glyph glyph-name="tilde" unicode="&#x2dc;" horiz-adv-x="1228" 
d="M809 1352h184q0 -109 -73.5 -182.5t-182.5 -73.5q-37 0 -73.5 13.5t-98.5 51.5q-55 37 -73 37q-31 0 -51.5 -20.5t-20.5 -51.5h-184q0 109 73.5 182.5t182.5 73.5q42 0 78 -13.5t94 -51.5q60 -37 73 -37q31 0 51.5 20.5t20.5 51.5z" />
    <glyph glyph-name="hungarumlaut" unicode="&#x2dd;" horiz-adv-x="1228" 
d="M471 1130h-240l119 275h301zM866 1130h-239l118 275h302z" />
    <glyph glyph-name="gravecomb" unicode="&#x300;" horiz-adv-x="0" 
d="M-735 1130l-180 275h301l118 -275h-239z" />
    <glyph glyph-name="acutecomb" unicode="&#x301;" horiz-adv-x="0" 
d="M-514 1130h-240l119 275h301z" />
    <glyph glyph-name="uni0302" unicode="&#x302;" horiz-adv-x="0" 
d="M-963 1126l191 226h317l189 -226h-240l-108 129l-109 -129h-240z" />
    <glyph glyph-name="tildecomb" unicode="&#x303;" horiz-adv-x="0" 
d="M-420 1352h184q0 -109 -73.5 -182.5t-182.5 -73.5q-37 0 -73.5 13.5t-98.5 51.5q-55 37 -73 37q-31 0 -51.5 -20.5t-20.5 -51.5h-184q0 109 73.5 182.5t182.5 73.5q42 0 78 -13.5t94 -51.5q60 -37 73 -37q31 0 51.5 20.5t20.5 51.5z" />
    <glyph glyph-name="uni0304" unicode="&#x304;" horiz-adv-x="0" 
d="M-999 1155v164h770v-164h-770z" />
    <glyph glyph-name="uni0306" unicode="&#x306;" horiz-adv-x="0" 
d="M-952 1405h186q12 -51 55.5 -85t96.5 -34q54 0 96 34t53 85h186q-12 -129 -108 -216t-227 -87q-132 0 -229 87t-109 216z" />
    <glyph glyph-name="uni0307" unicode="&#x307;" horiz-adv-x="0" 
d="M-614 1085q-60 0 -102 42.5t-42 101.5q0 60 42 101.5t102 41.5q58 0 100.5 -42t42.5 -101q0 -57 -42.5 -100.5t-100.5 -43.5z" />
    <glyph glyph-name="uni0308" unicode="&#x308;" horiz-adv-x="0" 
d="M-942 1126v226h246v-226h-246zM-532 1126v226h245v-226h-245z" />
    <glyph glyph-name="hookabovecomb" unicode="&#x309;" horiz-adv-x="0" 
d="M-135 1241q0 -107 -87 -178.5t-216 -71.5v164q37 0 61.5 24.5t24.5 61.5t-24.5 61.5t-61.5 24.5h-113v199q56 18 113 18q129 0 216 -87t87 -216z" />
    <glyph glyph-name="uni030A" unicode="&#x30a;" horiz-adv-x="0" 
d="M-614 1071q-91 0 -155.5 63.5t-64.5 155.5q0 91 64.5 155t155.5 64t155 -64t64 -155q0 -92 -64 -155.5t-155 -63.5zM-614 1239q23 0 37 14t14 37q0 20 -15.5 35.5t-35.5 15.5t-36 -15.5t-16 -35.5q0 -23 14.5 -37t37.5 -14z" />
    <glyph glyph-name="uni030B" unicode="&#x30b;" horiz-adv-x="0" 
d="M-758 1130h-239l118 275h301zM-362 1130h-240l119 275h301z" />
    <glyph glyph-name="uni030C" unicode="&#x30c;" horiz-adv-x="0" 
d="M-963 1352h240l109 -129l108 129h240l-189 -226h-317z" />
    <glyph glyph-name="uni0312" unicode="&#x312;" horiz-adv-x="0" 
d="M-471 1389q-43 0 -72.5 -29t-29.5 -70h102v-164h-287v164q0 121 82 202t205 81v-184z" />
    <glyph glyph-name="uni031B" unicode="&#x31b;" horiz-adv-x="0" 
d="M-604 868v156h59q44 0 74.5 27t30.5 67v105h102q41 -36 68.5 -88.5t27.5 -92.5q0 -94 -66.5 -156.5t-166.5 -62.5q-34 0 -71 12.5t-58 32.5z" />
    <glyph glyph-name="dotbelowcomb" unicode="&#x323;" horiz-adv-x="0" 
d="M-614 -348q-60 0 -102 42t-42 101q0 60 42 102t102 42q58 0 100.5 -42.5t42.5 -101.5q0 -57 -42.5 -100t-100.5 -43z" />
    <glyph glyph-name="uni0326" unicode="&#x326;" horiz-adv-x="0" 
d="M-623 -377h-239l119 275h301z" />
    <glyph glyph-name="uni0327" unicode="&#x327;" horiz-adv-x="0" 
d="M-918 -115q0 107 87.5 178.5t216.5 71.5v-164q-37 0 -61.5 -24.5t-24.5 -61.5t24.5 -61.5t61.5 -24.5h112v-198q-59 -19 -112 -19q-129 0 -216.5 87t-87.5 216z" />
    <glyph glyph-name="uni0328" unicode="&#x328;" horiz-adv-x="0" 
d="M-918 -115q0 107 87.5 178.5t216.5 71.5v-164q-37 0 -61.5 -24.5t-24.5 -61.5t24.5 -61.5t61.5 -24.5h112v-198q-59 -19 -112 -19q-129 0 -216.5 87t-87.5 216z" />
    <glyph glyph-name="uni0335" unicode="&#x335;" horiz-adv-x="0" 
d="M-1008 440v144h787v-144h-787z" />
    <glyph glyph-name="uni0336" unicode="&#x336;" horiz-adv-x="0" 
d="M-1300 1024v205h1372v-205h-1372z" />
    <glyph glyph-name="uni0337" unicode="&#x337;" horiz-adv-x="0" 
d="M-1065 -39l659 1102h242l-659 -1102h-242z" />
    <glyph glyph-name="uni0338" unicode="&#x338;" horiz-adv-x="0" 
d="M-1180 -39l889 1483h242l-889 -1483h-242z" />
    <glyph glyph-name="uni0394" unicode="&#x394;" horiz-adv-x="1400" 
d="M45 0l578 1405h155l578 -1405h-1311zM393 221h611l-304 774z" />
    <glyph glyph-name="uni03A9" unicode="&#x3a9;" horiz-adv-x="1269" 
d="M135 0v221h217v139q-134 74 -216.5 212t-82.5 290q0 120 44.5 226.5t121.5 182t185 119.5t231 44t231 -44t185 -119.5t121.5 -182t44.5 -226.5q0 -154 -81.5 -292t-215.5 -210v-139h215v-221h-457v512q133 19 215 115.5t82 234.5q0 150 -97 250t-243 100t-243 -100
t-97 -250q0 -136 82.5 -233t216.5 -117v-512h-459z" />
    <glyph glyph-name="uni03BC" unicode="&#x3bc;" horiz-adv-x="1179" 
d="M94 -381v1405h246v-608q0 -103 68.5 -165.5t181.5 -62.5t181.5 62.5t68.5 165.5v608h245v-1024h-245v76q-50 -47 -118.5 -76t-131.5 -29t-131 28.5t-119 76.5v-457h-246z" />
    <glyph glyph-name="pi" unicode="&#x3c0;" horiz-adv-x="1218" 
d="M1083 -29q-155 0 -249.5 88.5t-94.5 233.5v510h-276v-803h-242v803h-164v221h1104v-221h-180v-510q0 -44 25.5 -72t66.5 -28h88v-205q-31 -17 -78 -17z" />
    <glyph glyph-name="Wgrave" unicode="&#x1e80;" horiz-adv-x="1890" 
d="M657 1686h301l117 -220h-239zM442 0l-397 1405h285l258 -1049l223 1049h268l224 -1049l260 1049h282l-395 -1405h-307l-197 903l-198 -903h-306z" />
    <glyph glyph-name="wgrave" unicode="&#x1e81;" horiz-adv-x="1646" 
d="M702 1130l-180 275h301l119 -275h-240zM399 0l-354 1024h258l215 -745l191 745h229l190 -745l215 745h259l-353 -1024h-250l-176 662l-174 -662h-250z" />
    <glyph glyph-name="Wacute" unicode="&#x1e82;" horiz-adv-x="1890" 
d="M1245 1686l-178 -220h-240l117 220h301zM442 0l-397 1405h285l258 -1049l223 1049h268l224 -1049l260 1049h282l-395 -1405h-307l-197 903l-198 -903h-306z" />
    <glyph glyph-name="wacute" unicode="&#x1e83;" horiz-adv-x="1646" 
d="M924 1130h-240l119 275h301zM399 0l-354 1024h258l215 -745l191 745h229l190 -745l215 745h259l-353 -1024h-250l-176 662l-174 -662h-250z" />
    <glyph glyph-name="Wdieresis" unicode="&#x1e84;" horiz-adv-x="1890" 
d="M618 1460v226h246v-226h-246zM1028 1460v226h246v-226h-246zM442 0l-397 1405h285l258 -1049l223 1049h268l224 -1049l260 1049h282l-395 -1405h-307l-197 903l-198 -903h-306z" />
    <glyph glyph-name="wdieresis" unicode="&#x1e85;" horiz-adv-x="1646" 
d="M496 1126v226h245v-226h-245zM905 1126v226h246v-226h-246zM399 0l-354 1024h258l215 -745l191 745h229l190 -745l215 745h259l-353 -1024h-250l-176 662l-174 -662h-250z" />
    <glyph glyph-name="uni1EA0" unicode="&#x1ea0;" horiz-adv-x="1527" 
d="M1483 0h-293l-135 348h-580l-135 -348h-295l580 1405h282zM571 594h387l-194 496zM758 -61q58 0 100.5 -42.5t42.5 -101.5q0 -57 -42.5 -100t-100.5 -43q-60 0 -102 42t-42 101q0 60 42 102t102 42z" />
    <glyph glyph-name="uni1EA1" unicode="&#x1ea1;" horiz-adv-x="1257" 
d="M586 -29q-239 0 -386 149t-147 392t147 392t386 149q91 0 182.5 -38.5t149.5 -101.5v111h245v-1024h-245v111q-58 -63 -149.5 -101.5t-182.5 -38.5zM610 188q138 0 223 89t85 235t-85 235t-223 89q-140 0 -225.5 -89t-85.5 -235t85.5 -235t225.5 -89zM586 -348
q-60 0 -102 42t-42 101q0 60 42 102t102 42q58 0 100.5 -42.5t42.5 -101.5q0 -57 -42.5 -100t-100.5 -43z" />
    <glyph glyph-name="uni1EA2" unicode="&#x1ea2;" horiz-adv-x="1527" 
d="M1190 0l-135 348h-580l-135 -348h-295l580 1405h98q37 0 61.5 24.5t24.5 61.5t-24.5 61.5t-61.5 24.5h-113v199q56 18 113 18q129 0 216 -87t87 -216q0 -105 -82 -174l539 -1317h-293zM571 594h387l-194 496z" />
    <glyph glyph-name="uni1EA3" unicode="&#x1ea3;" horiz-adv-x="1257" 
d="M1044 1303q0 -107 -87 -178.5t-216 -71.5v164q37 0 61.5 24.5t24.5 61.5t-24.5 61.5t-61.5 24.5h-112v198q59 19 112 19q129 0 216 -87t87 -216zM586 -29q-239 0 -386 149t-147 392t147 392t386 149q91 0 182.5 -38.5t149.5 -101.5v111h245v-1024h-245v111
q-58 -63 -149.5 -101.5t-182.5 -38.5zM610 188q138 0 223 89t85 235t-85 235t-223 89q-140 0 -225.5 -89t-85.5 -235t85.5 -235t225.5 -89z" />
    <glyph glyph-name="uni1EA4" unicode="&#x1ea4;" horiz-adv-x="1527" 
d="M1399 1858l-178 -220h-240l117 220h301zM754 1589l-103 -123h-239l184 220h317l185 -220h-240zM1190 0l-135 348h-580l-135 -348h-295l580 1405h282l576 -1405h-293zM571 594h387l-194 496z" />
    <glyph glyph-name="uni1EA5" unicode="&#x1ea5;" horiz-adv-x="1257" 
d="M1231 1477l-178 -220h-240l117 220h301zM244 1085l184 220h317l185 -220h-240l-104 123l-103 -123h-239zM586 -29q-239 0 -386 149t-147 392t147 392t386 149q91 0 182.5 -38.5t149.5 -101.5v111h245v-1024h-245v111q-58 -63 -149.5 -101.5t-182.5 -38.5zM610 188
q138 0 223 89t85 235t-85 235t-223 89q-140 0 -225.5 -89t-85.5 -235t85.5 -235t225.5 -89z" />
    <glyph glyph-name="uni1EA6" unicode="&#x1ea6;" horiz-adv-x="1527" 
d="M1251 1638h-239l-178 220h301zM754 1589l-103 -123h-239l184 220h317l185 -220h-240zM1190 0l-135 348h-580l-135 -348h-295l580 1405h282l576 -1405h-293zM571 594h387l-194 496z" />
    <glyph glyph-name="uni1EA7" unicode="&#x1ea7;" horiz-adv-x="1257" 
d="M666 1477h301l116 -220h-239zM244 1085l184 220h317l185 -220h-240l-104 123l-103 -123h-239zM586 -29q-239 0 -386 149t-147 392t147 392t386 149q91 0 182.5 -38.5t149.5 -101.5v111h245v-1024h-245v111q-58 -63 -149.5 -101.5t-182.5 -38.5zM610 188q138 0 223 89
t85 235t-85 235t-223 89q-140 0 -225.5 -89t-85.5 -235t85.5 -235t225.5 -89z" />
    <glyph glyph-name="uni1EA8" unicode="&#x1ea8;" horiz-adv-x="1527" 
d="M1090 1634q0 37 -24.5 61.5t-61.5 24.5h-113v199q56 18 113 18q114 0 190 -67t76 -168q0 -44 -10 -92h-175q5 15 5 24zM754 1589l-103 -123h-239l184 220h317l185 -220h-240zM1190 0l-135 348h-580l-135 -348h-295l580 1405h282l576 -1405h-293zM571 594h387l-194 496z
" />
    <glyph glyph-name="uni1EA9" unicode="&#x1ea9;" horiz-adv-x="1257" 
d="M723 1339v199q56 18 113 18q114 0 190 -67t76 -168q0 -44 -10 -92h-174q4 12 4 24q0 37 -24.5 61.5t-61.5 24.5h-113zM244 1085l184 220h317l185 -220h-240l-104 123l-103 -123h-239zM586 -29q-239 0 -386 149t-147 392t147 392t386 149q91 0 182.5 -38.5t149.5 -101.5
v111h245v-1024h-245v111q-58 -63 -149.5 -101.5t-182.5 -38.5zM610 188q138 0 223 89t85 235t-85 235t-223 89q-140 0 -225.5 -89t-85.5 -235t85.5 -235t225.5 -89z" />
    <glyph glyph-name="uni1EAA" unicode="&#x1eaa;" horiz-adv-x="1527" 
d="M647 1823q-26 0 -43.5 -18t-17.5 -44h-160q0 95 63.5 158t157.5 63q37 0 68 -11.5t82 -43.5q50 -33 63 -33q26 0 44 18t18 44h159q0 -94 -63.5 -157.5t-157.5 -63.5q-32 0 -63 11.5t-86 45.5q-46 31 -64 31zM754 1589l-103 -123h-239l184 220h317l185 -220h-240zM1190 0
l-135 348h-580l-135 -348h-295l580 1405h282l576 -1405h-293zM571 594h387l-194 496z" />
    <glyph glyph-name="uni1EAB" unicode="&#x1eab;" horiz-adv-x="1257" 
d="M754 1534h159q0 -94 -63.5 -157.5t-157.5 -63.5q-32 0 -63 11.5t-86 45.5q-46 31 -64 31q-26 0 -43.5 -18t-17.5 -44h-160q0 95 63.5 158.5t157.5 63.5q36 0 67 -11.5t83 -44.5q49 -32 63 -32q26 0 44 17.5t18 43.5zM244 1085l184 220h317l185 -220h-240l-104 123
l-103 -123h-239zM586 -29q-239 0 -386 149t-147 392t147 392t386 149q91 0 182.5 -38.5t149.5 -101.5v111h245v-1024h-245v111q-58 -63 -149.5 -101.5t-182.5 -38.5zM610 188q138 0 223 89t85 235t-85 235t-223 89q-140 0 -225.5 -89t-85.5 -235t85.5 -235t225.5 -89z" />
    <glyph glyph-name="uni1EAC" unicode="&#x1eac;" horiz-adv-x="1527" 
d="M754 1589l-103 -123h-239l184 220h317l185 -220h-240zM1483 0h-293l-135 348h-580l-135 -348h-295l580 1405h282zM571 594h387l-194 496zM758 -61q58 0 100.5 -42.5t42.5 -101.5q0 -57 -42.5 -100t-100.5 -43q-60 0 -102 42t-42 101q0 60 42 102t102 42z" />
    <glyph glyph-name="uni1EAD" unicode="&#x1ead;" horiz-adv-x="1257" 
d="M238 1126l190 226h317l189 -226h-240l-108 129l-109 -129h-239zM586 -29q-239 0 -386 149t-147 392t147 392t386 149q91 0 182.5 -38.5t149.5 -101.5v111h245v-1024h-245v111q-58 -63 -149.5 -101.5t-182.5 -38.5zM610 188q138 0 223 89t85 235t-85 235t-223 89
q-140 0 -225.5 -89t-85.5 -235t85.5 -235t225.5 -89zM586 -348q-60 0 -102 42t-42 101q0 60 42 102t102 42q58 0 100.5 -42.5t42.5 -101.5q0 -57 -42.5 -100t-100.5 -43z" />
    <glyph glyph-name="uni1EAE" unicode="&#x1eae;" horiz-adv-x="1527" 
d="M1053 1942l-179 -220h-239l117 220h301zM754 1466q-105 0 -187 62t-110 158h186q45 -52 111 -52q63 0 108 52h187q-28 -96 -110.5 -158t-184.5 -62zM1190 0l-135 348h-580l-135 -348h-295l580 1405h282l576 -1405h-293zM571 594h387l-194 496z" />
    <glyph glyph-name="uni1EAF" unicode="&#x1eaf;" horiz-adv-x="1257" 
d="M885 1561l-178 -220h-240l117 220h301zM289 1305h186q45 -52 111 -52q63 0 108 52h187q-28 -96 -110.5 -158t-184.5 -62q-105 0 -187 62t-110 158zM586 -29q-239 0 -386 149t-147 392t147 392t386 149q91 0 182.5 -38.5t149.5 -101.5v111h245v-1024h-245v111
q-58 -63 -149.5 -101.5t-182.5 -38.5zM610 188q138 0 223 89t85 235t-85 235t-223 89q-140 0 -225.5 -89t-85.5 -235t85.5 -235t225.5 -89z" />
    <glyph glyph-name="uni1EB0" unicode="&#x1eb0;" horiz-adv-x="1527" 
d="M874 1722h-239l-178 220h301zM756 1634q65 0 110 52h187q-28 -96 -110 -158t-187 -62q-102 0 -184.5 62t-110.5 158h186q45 -52 109 -52zM1190 0l-135 348h-580l-135 -348h-295l580 1405h282l576 -1405h-293zM571 594h387l-194 496z" />
    <glyph glyph-name="uni1EB1" unicode="&#x1eb1;" horiz-adv-x="1257" 
d="M289 1561h301l117 -220h-240zM885 1305q-28 -96 -110 -158t-187 -62q-102 0 -184.5 62t-110.5 158h186q45 -52 109 -52q65 0 110 52h187zM586 -29q-239 0 -386 149t-147 392t147 392t386 149q91 0 182.5 -38.5t149.5 -101.5v111h245v-1024h-245v111
q-58 -63 -149.5 -101.5t-182.5 -38.5zM610 188q138 0 223 89t85 235t-85 235t-223 89q-140 0 -225.5 -89t-85.5 -235t85.5 -235t225.5 -89z" />
    <glyph glyph-name="uni1EB2" unicode="&#x1eb2;" horiz-adv-x="1527" 
d="M881 1745q0 37 -24.5 61.5t-61.5 24.5h-113v199q56 18 113 18q114 0 190 -67.5t76 -168.5q0 -44 -10 -92h-174q4 12 4 25zM754 1466q-105 0 -187 62t-110 158h186q45 -52 111 -52q63 0 108 52h187q-28 -96 -110.5 -158t-184.5 -62zM1190 0l-135 348h-580l-135 -348h-295
l580 1405h282l576 -1405h-293zM571 594h387l-194 496z" />
    <glyph glyph-name="uni1EB3" unicode="&#x1eb3;" horiz-adv-x="1257" 
d="M514 1450v199q56 18 113 18q114 0 190 -67t76 -168q0 -45 -10 -93h-174q4 12 4 25q0 37 -24.5 61.5t-61.5 24.5h-113zM289 1305h186q45 -52 111 -52q63 0 108 52h187q-28 -96 -110.5 -158t-184.5 -62q-105 0 -187 62t-110 158zM586 -29q-239 0 -386 149t-147 392t147 392
t386 149q91 0 182.5 -38.5t149.5 -101.5v111h245v-1024h-245v111q-58 -63 -149.5 -101.5t-182.5 -38.5zM610 188q138 0 223 89t85 235t-85 235t-223 89q-140 0 -225.5 -89t-85.5 -235t85.5 -235t225.5 -89z" />
    <glyph glyph-name="uni1EB4" unicode="&#x1eb4;" horiz-adv-x="1527" 
d="M676 1784q-26 0 -44 -18t-18 -44h-159q0 95 63.5 158.5t157.5 63.5q36 0 66.5 -11.5t82.5 -44.5q50 -33 64 -33q26 0 43.5 18t17.5 44h160q0 -94 -63.5 -157.5t-157.5 -63.5q-33 0 -64 12t-86 45q-46 31 -63 31zM754 1634q63 0 108 52h187q-28 -96 -110.5 -158
t-184.5 -62q-105 0 -187 62t-110 158h186q45 -52 111 -52zM1190 0l-135 348h-580l-135 -348h-295l580 1405h282l576 -1405h-293zM571 594h387l-194 496z" />
    <glyph glyph-name="uni1EB5" unicode="&#x1eb5;" horiz-adv-x="1257" 
d="M782 1536h160q0 -94 -63.5 -157.5t-157.5 -63.5q-33 0 -64 12t-86 45q-46 31 -63 31q-26 0 -44 -18t-18 -44h-159q0 95 63.5 158.5t157.5 63.5q36 0 66.5 -11.5t82.5 -44.5q49 -32 64 -32q26 0 43.5 17.5t17.5 43.5zM289 1305h186q45 -52 111 -52q63 0 108 52h187
q-28 -96 -110.5 -158t-184.5 -62q-105 0 -187 62t-110 158zM586 -29q-239 0 -386 149t-147 392t147 392t386 149q91 0 182.5 -38.5t149.5 -101.5v111h245v-1024h-245v111q-58 -63 -149.5 -101.5t-182.5 -38.5zM610 188q138 0 223 89t85 235t-85 235t-223 89
q-140 0 -225.5 -89t-85.5 -235t85.5 -235t225.5 -89z" />
    <glyph glyph-name="uni1EB6" unicode="&#x1eb6;" horiz-adv-x="1527" 
d="M754 1466q-105 0 -187 62t-110 158h186q45 -52 111 -52q63 0 108 52h187q-28 -96 -110.5 -158t-184.5 -62zM1483 0h-293l-135 348h-580l-135 -348h-295l580 1405h282zM571 594h387l-194 496zM758 -61q58 0 100.5 -42.5t42.5 -101.5q0 -57 -42.5 -100t-100.5 -43
q-60 0 -102 42t-42 101q0 60 42 102t102 42z" />
    <glyph glyph-name="uni1EB7" unicode="&#x1eb7;" horiz-adv-x="1257" 
d="M248 1405h186q12 -51 55.5 -85t96.5 -34q54 0 96 34t53 85h187q-12 -129 -108.5 -216t-227.5 -87q-132 0 -229 87t-109 216zM586 -29q-239 0 -386 149t-147 392t147 392t386 149q91 0 182.5 -38.5t149.5 -101.5v111h245v-1024h-245v111q-58 -63 -149.5 -101.5
t-182.5 -38.5zM610 188q138 0 223 89t85 235t-85 235t-223 89q-140 0 -225.5 -89t-85.5 -235t85.5 -235t225.5 -89zM586 -348q-60 0 -102 42t-42 101q0 60 42 102t102 42q58 0 100.5 -42.5t42.5 -101.5q0 -57 -42.5 -100t-100.5 -43z" />
    <glyph glyph-name="uni1EB8" unicode="&#x1eb8;" horiz-adv-x="1128" 
d="M119 0v1405h952v-246h-678v-315h604v-246h-604v-352h678v-246h-952zM565 -319q-60 0 -101.5 42t-41.5 101q0 60 41.5 101.5t101.5 41.5q59 0 101.5 -42.5t42.5 -100.5q0 -57 -43 -100t-101 -43z" />
    <glyph glyph-name="uni1EB9" unicode="&#x1eb9;" 
d="M608 -29q-249 0 -402 149t-153 392t153 392t402 149t402 -149t153 -392v-47l-20 -21h-840q17 -120 101 -194t204 -74q91 0 168.5 47.5t112.5 124.5h250q-51 -169 -197.5 -273t-333.5 -104zM319 649h578q-34 89 -113 144t-176 55t-176 -55t-113 -144zM608 -348
q-60 0 -101.5 42t-41.5 101q0 60 41.5 102t101.5 42q58 0 101 -42.5t43 -101.5q0 -57 -43 -100t-101 -43z" />
    <glyph glyph-name="uni1EBA" unicode="&#x1eba;" horiz-adv-x="1128" 
d="M1071 1159h-678v-315h604v-246h-604v-352h678v-246h-952v1405h520q37 0 61.5 24.5t24.5 61.5t-24.5 61.5t-61.5 24.5h-113v199q56 18 113 18q129 0 216 -87t87 -216q0 -43 -16 -86h145v-246z" />
    <glyph glyph-name="uni1EBB" unicode="&#x1ebb;" 
d="M1024 1303q0 -107 -87 -178.5t-216 -71.5v164q37 0 61.5 24.5t24.5 61.5t-24.5 61.5t-61.5 24.5h-113v198q59 19 113 19q129 0 216 -87t87 -216zM608 -29q-249 0 -402 149t-153 392t153 392t402 149t402 -149t153 -392v-47l-20 -21h-840q17 -120 101 -194t204 -74
q91 0 168.5 47.5t112.5 124.5h250q-51 -169 -197.5 -273t-333.5 -104zM319 649h578q-34 89 -113 144t-176 55t-176 -55t-113 -144z" />
    <glyph glyph-name="uni1EBC" unicode="&#x1ebc;" horiz-adv-x="1128" 
d="M780 1675h160q0 -94 -63.5 -157.5t-157.5 -63.5q-33 0 -64 12t-86 45q-46 31 -63 31q-26 0 -44 -17.5t-18 -43.5h-159q0 95 63.5 158t157.5 63q37 0 67.5 -11.5t81.5 -43.5q50 -33 64 -33q26 0 43.5 17.5t17.5 43.5zM119 0v1405h952v-246h-678v-315h604v-246h-604v-352
h678v-246h-952z" />
    <glyph glyph-name="uni1EBD" unicode="&#x1ebd;" 
d="M803 1352h184q0 -109 -73.5 -182.5t-182.5 -73.5q-37 0 -73.5 13.5t-98.5 51.5q-55 37 -74 37q-31 0 -51 -20.5t-20 -51.5h-185q0 109 73.5 182.5t182.5 73.5q42 0 78 -13.5t94 -51.5q60 -37 74 -37q31 0 51.5 20.5t20.5 51.5zM608 -29q-249 0 -402 149t-153 392t153 392
t402 149t402 -149t153 -392v-47l-20 -21h-840q17 -120 101 -194t204 -74q91 0 168.5 47.5t112.5 124.5h250q-51 -169 -197.5 -273t-333.5 -104zM319 649h578q-34 89 -113 144t-176 55t-176 -55t-113 -144z" />
    <glyph glyph-name="uni1EBE" unicode="&#x1ebe;" horiz-adv-x="1128" 
d="M1257 1858l-178 -220h-239l116 220h301zM270 1466l185 220h317l184 -220h-239l-105 123l-102 -123h-240zM119 0v1405h952v-246h-678v-315h604v-246h-604v-352h678v-246h-952z" />
    <glyph glyph-name="uni1EBF" unicode="&#x1ebf;" 
d="M1253 1477l-178 -220h-239l116 220h301zM266 1085l185 220h317l184 -220h-239l-105 123l-102 -123h-240zM608 -29q-249 0 -402 149t-153 392t153 392t402 149t402 -149t153 -392v-47l-20 -21h-840q17 -120 101 -194t204 -74q91 0 168.5 47.5t112.5 124.5h250
q-51 -169 -197.5 -273t-333.5 -104zM319 649h578q-34 89 -113 144t-176 55t-176 -55t-113 -144z" />
    <glyph glyph-name="uni1EC0" unicode="&#x1ec0;" horiz-adv-x="1128" 
d="M692 1858h301l117 -220h-240zM270 1466l185 220h317l184 -220h-239l-105 123l-102 -123h-240zM119 0v1405h952v-246h-678v-315h604v-246h-604v-352h678v-246h-952z" />
    <glyph glyph-name="uni1EC1" unicode="&#x1ec1;" 
d="M688 1477h301l117 -220h-240zM266 1085l185 220h317l184 -220h-239l-105 123l-102 -123h-240zM608 -29q-249 0 -402 149t-153 392t153 392t402 149t402 -149t153 -392v-47l-20 -21h-840q17 -120 101 -194t204 -74q91 0 168.5 47.5t112.5 124.5h250q-51 -169 -197.5 -273
t-333.5 -104zM319 649h578q-34 89 -113 144t-176 55t-176 -55t-113 -144z" />
    <glyph glyph-name="uni1EC2" unicode="&#x1ec2;" horiz-adv-x="1128" 
d="M750 1720v199q56 18 112 18q114 0 190 -67t76 -168q0 -44 -10 -92h-174q4 12 4 24q0 37 -24.5 61.5t-61.5 24.5h-112zM270 1466l185 220h317l184 -220h-239l-105 123l-102 -123h-240zM119 0v1405h952v-246h-678v-315h604v-246h-604v-352h678v-246h-952z" />
    <glyph glyph-name="uni1EC3" unicode="&#x1ec3;" 
d="M745 1339v199q56 18 113 18q114 0 190 -67t76 -168q0 -44 -10 -92h-174q4 12 4 24q0 37 -24.5 61.5t-61.5 24.5h-113zM266 1085l185 220h317l184 -220h-239l-105 123l-102 -123h-240zM608 -29q-249 0 -402 149t-153 392t153 392t402 149t402 -149t153 -392v-47l-20 -21
h-840q17 -120 101 -194t204 -74q91 0 168.5 47.5t112.5 124.5h250q-51 -169 -197.5 -273t-333.5 -104zM319 649h578q-34 89 -113 144t-176 55t-176 -55t-113 -144z" />
    <glyph glyph-name="uni1EC4" unicode="&#x1ec4;" horiz-adv-x="1128" 
d="M780 1915h160q0 -94 -63.5 -157.5t-157.5 -63.5q-33 0 -64 12t-86 45q-46 31 -63 31q-26 0 -44 -18t-18 -44h-159q0 95 63.5 158.5t157.5 63.5q36 0 66.5 -11.5t82.5 -44.5q50 -33 64 -33q26 0 43.5 18t17.5 44zM270 1466l185 220h317l184 -220h-239l-105 123l-102 -123
h-240zM119 0v1405h952v-246h-678v-315h604v-246h-604v-352h678v-246h-952z" />
    <glyph glyph-name="uni1EC5" unicode="&#x1ec5;" 
d="M776 1534h160q0 -94 -63.5 -157.5t-157.5 -63.5q-33 0 -64 12t-86 45q-46 31 -63 31q-26 0 -44 -18t-18 -44h-159q0 95 63.5 158.5t157.5 63.5q36 0 66.5 -11.5t82.5 -44.5q49 -32 64 -32q26 0 43.5 17.5t17.5 43.5zM266 1085l185 220h317l184 -220h-239l-105 123
l-102 -123h-240zM608 -29q-249 0 -402 149t-153 392t153 392t402 149t402 -149t153 -392v-47l-20 -21h-840q17 -120 101 -194t204 -74q91 0 168.5 47.5t112.5 124.5h250q-51 -169 -197.5 -273t-333.5 -104zM319 649h578q-34 89 -113 144t-176 55t-176 -55t-113 -144z" />
    <glyph glyph-name="uni1EC6" unicode="&#x1ec6;" horiz-adv-x="1128" 
d="M270 1466l185 220h317l184 -220h-239l-105 123l-102 -123h-240zM119 0v1405h952v-246h-678v-315h604v-246h-604v-352h678v-246h-952zM565 -319q-60 0 -101.5 42t-41.5 101q0 60 41.5 101.5t101.5 41.5q59 0 101.5 -42.5t42.5 -100.5q0 -57 -43 -100t-101 -43z" />
    <glyph glyph-name="uni1EC7" unicode="&#x1ec7;" 
d="M260 1126l191 226h317l188 -226h-239l-109 129l-108 -129h-240zM608 -29q-249 0 -402 149t-153 392t153 392t402 149t402 -149t153 -392v-47l-20 -21h-840q17 -120 101 -194t204 -74q91 0 168.5 47.5t112.5 124.5h250q-51 -169 -197.5 -273t-333.5 -104zM319 649h578
q-34 89 -113 144t-176 55t-176 -55t-113 -144zM608 -348q-60 0 -101.5 42t-41.5 101q0 60 41.5 102t101.5 42q58 0 101 -42.5t43 -101.5q0 -57 -43 -100t-101 -43z" />
    <glyph glyph-name="uni1EC8" unicode="&#x1ec8;" horiz-adv-x="512" 
d="M559 1491q0 -75 -45 -134.5t-121 -90.5v-1266h-274v1405h137q37 0 61.5 24.5t24.5 61.5t-24.5 61.5t-61.5 24.5h-113v199q56 18 113 18q129 0 216 -87t87 -216z" />
    <glyph glyph-name="uni1EC9" unicode="&#x1ec9;" horiz-adv-x="434" 
d="M520 1303q0 -107 -87 -178.5t-216 -71.5v164q37 0 61.5 24.5t24.5 61.5t-24.5 61.5t-61.5 24.5h-113v198q59 19 113 19q129 0 216 -87t87 -216zM94 0v1024h246v-1024h-246z" />
    <glyph glyph-name="uni1ECA" unicode="&#x1eca;" horiz-adv-x="512" 
d="M119 0v1405h274v-1405h-274zM248 -348q-60 0 -102 42t-42 101q0 60 42 102t102 42q58 0 100.5 -42.5t42.5 -101.5q0 -57 -42.5 -100t-100.5 -43z" />
    <glyph glyph-name="uni1ECB" unicode="&#x1ecb;" horiz-adv-x="434" 
d="M94 1159v246h246v-246h-246zM94 0v1024h246v-1024h-246zM217 -348q-60 0 -101.5 42t-41.5 101q0 60 41.5 102t101.5 42q58 0 100.5 -42.5t42.5 -101.5q0 -57 -42.5 -100t-100.5 -43z" />
    <glyph glyph-name="uni1ECC" unicode="&#x1ecc;" horiz-adv-x="1568" 
d="M784 -29q-328 0 -529.5 201.5t-201.5 529.5q0 329 201.5 530.5t529.5 201.5t530 -202t202 -530t-201.5 -529.5t-530.5 -201.5zM784 217q206 0 331.5 133.5t125.5 351.5t-126 352t-331 134t-330.5 -134t-125.5 -352t125.5 -351.5t330.5 -133.5zM784 -348q-60 0 -101.5 42
t-41.5 101q0 60 41.5 102t101.5 42q58 0 101 -42.5t43 -101.5q0 -57 -43 -100t-101 -43z" />
    <glyph glyph-name="uni1ECD" unicode="&#x1ecd;" 
d="M608 -29q-249 0 -402 149t-153 392t153 392t402 149t402 -149t153 -392t-153 -392t-402 -149zM608 188q138 0 224 89t86 235t-86 235t-224 89t-223.5 -89t-85.5 -235t85.5 -235t223.5 -89zM608 -348q-60 0 -101.5 42t-41.5 101q0 60 41.5 102t101.5 42q58 0 101 -42.5
t43 -101.5q0 -57 -43 -100t-101 -43z" />
    <glyph glyph-name="uni1ECE" unicode="&#x1ece;" horiz-adv-x="1568" 
d="M1067 1386q209 -74 329 -254t120 -430q0 -328 -201.5 -529.5t-530.5 -201.5q-328 0 -529.5 201.5t-201.5 529.5q0 329 201.5 530.5t529.5 201.5q83 0 177 -17v119q37 0 61.5 24.5t24.5 61.5t-24.5 61.5t-61.5 24.5h-113v199q56 18 113 18q129 0 216 -87t87 -216
q0 -83 -54 -146t-143 -90zM784 217q206 0 331.5 133.5t125.5 351.5t-126 352t-331 134t-330.5 -134t-125.5 -352t125.5 -351.5t330.5 -133.5z" />
    <glyph glyph-name="uni1ECF" unicode="&#x1ecf;" 
d="M1024 1337q0 -107 -87 -178.5t-216 -71.5v164q37 0 61.5 24.5t24.5 61.5t-24.5 61.5t-61.5 24.5h-113v199q56 18 113 18q129 0 216 -87t87 -216zM608 -29q-249 0 -402 149t-153 392t153 392t402 149t402 -149t153 -392t-153 -392t-402 -149zM608 188q138 0 224 89t86 235
t-86 235t-224 89t-223.5 -89t-85.5 -235t85.5 -235t223.5 -89z" />
    <glyph glyph-name="uni1ED0" unicode="&#x1ed0;" horiz-adv-x="1568" 
d="M1430 1858l-179 -220h-239l116 220h302zM442 1466l185 220h317l184 -220h-239l-105 123l-102 -123h-240zM784 -29q-328 0 -529.5 201.5t-201.5 529.5q0 329 201.5 530.5t529.5 201.5t530 -202t202 -530t-201.5 -529.5t-530.5 -201.5zM784 217q206 0 331.5 133.5
t125.5 351.5t-126 352t-331 134t-330.5 -134t-125.5 -352t125.5 -351.5t330.5 -133.5z" />
    <glyph glyph-name="uni1ED1" unicode="&#x1ed1;" 
d="M1253 1477l-178 -220h-239l116 220h301zM266 1085l185 220h317l184 -220h-239l-105 123l-102 -123h-240zM608 -29q-249 0 -402 149t-153 392t153 392t402 149t402 -149t153 -392t-153 -392t-402 -149zM608 188q138 0 224 89t86 235t-86 235t-224 89t-223.5 -89
t-85.5 -235t85.5 -235t223.5 -89z" />
    <glyph glyph-name="uni1ED2" unicode="&#x1ed2;" horiz-adv-x="1568" 
d="M864 1858h301l117 -220h-240zM442 1466l185 220h317l184 -220h-239l-105 123l-102 -123h-240zM784 -29q-328 0 -529.5 201.5t-201.5 529.5q0 329 201.5 530.5t529.5 201.5t530 -202t202 -530t-201.5 -529.5t-530.5 -201.5zM784 217q206 0 331.5 133.5t125.5 351.5
t-126 352t-331 134t-330.5 -134t-125.5 -352t125.5 -351.5t330.5 -133.5z" />
    <glyph glyph-name="uni1ED3" unicode="&#x1ed3;" 
d="M688 1477h301l117 -220h-240zM266 1085l185 220h317l184 -220h-239l-105 123l-102 -123h-240zM608 -29q-249 0 -402 149t-153 392t153 392t402 149t402 -149t153 -392t-153 -392t-402 -149zM608 188q138 0 224 89t86 235t-86 235t-224 89t-223.5 -89t-85.5 -235
t85.5 -235t223.5 -89z" />
    <glyph glyph-name="uni1ED4" unicode="&#x1ed4;" horiz-adv-x="1568" 
d="M922 1720v199q56 18 112 18q114 0 190 -67t76 -168q0 -44 -10 -92h-174q4 12 4 24q0 37 -24.5 61.5t-61.5 24.5h-112zM442 1466l185 220h317l184 -220h-239l-105 123l-102 -123h-240zM784 -29q-328 0 -529.5 201.5t-201.5 529.5q0 329 201.5 530.5t529.5 201.5t530 -202
t202 -530t-201.5 -529.5t-530.5 -201.5zM784 217q206 0 331.5 133.5t125.5 351.5t-126 352t-331 134t-330.5 -134t-125.5 -352t125.5 -351.5t330.5 -133.5z" />
    <glyph glyph-name="uni1ED5" unicode="&#x1ed5;" 
d="M745 1339v199q56 18 113 18q114 0 190 -67t76 -168q0 -44 -10 -92h-174q4 12 4 24q0 37 -24.5 61.5t-61.5 24.5h-113zM266 1085l185 220h317l184 -220h-239l-105 123l-102 -123h-240zM608 -29q-249 0 -402 149t-153 392t153 392t402 149t402 -149t153 -392t-153 -392
t-402 -149zM608 188q138 0 224 89t86 235t-86 235t-224 89t-223.5 -89t-85.5 -235t85.5 -235t223.5 -89z" />
    <glyph glyph-name="uni1ED6" unicode="&#x1ed6;" horiz-adv-x="1568" 
d="M952 1915h160q0 -94 -63.5 -157.5t-157.5 -63.5q-33 0 -64 12t-86 45q-46 31 -63 31q-26 0 -44 -18t-18 -44h-159q0 95 63.5 158.5t157.5 63.5q36 0 66.5 -11.5t82.5 -44.5q50 -33 64 -33q26 0 43.5 18t17.5 44zM442 1466l185 220h317l184 -220h-239l-105 123l-102 -123
h-240zM784 -29q-328 0 -529.5 201.5t-201.5 529.5q0 329 201.5 530.5t529.5 201.5t530 -202t202 -530t-201.5 -529.5t-530.5 -201.5zM784 217q206 0 331.5 133.5t125.5 351.5t-126 352t-331 134t-330.5 -134t-125.5 -352t125.5 -351.5t330.5 -133.5z" />
    <glyph glyph-name="uni1ED7" unicode="&#x1ed7;" 
d="M776 1534h160q0 -94 -63.5 -157.5t-157.5 -63.5q-33 0 -64 12t-86 45q-46 31 -63 31q-26 0 -44 -18t-18 -44h-159q0 95 63.5 158.5t157.5 63.5q36 0 66.5 -11.5t82.5 -44.5q49 -32 64 -32q26 0 43.5 17.5t17.5 43.5zM266 1085l185 220h317l184 -220h-239l-105 123
l-102 -123h-240zM608 -29q-249 0 -402 149t-153 392t153 392t402 149t402 -149t153 -392t-153 -392t-402 -149zM608 188q138 0 224 89t86 235t-86 235t-224 89t-223.5 -89t-85.5 -235t85.5 -235t223.5 -89z" />
    <glyph glyph-name="uni1ED8" unicode="&#x1ed8;" horiz-adv-x="1568" 
d="M442 1466l185 220h317l184 -220h-239l-105 123l-102 -123h-240zM784 -29q-328 0 -529.5 201.5t-201.5 529.5q0 329 201.5 530.5t529.5 201.5t530 -202t202 -530t-201.5 -529.5t-530.5 -201.5zM784 217q206 0 331.5 133.5t125.5 351.5t-126 352t-331 134t-330.5 -134
t-125.5 -352t125.5 -351.5t330.5 -133.5zM784 -348q-60 0 -101.5 42t-41.5 101q0 60 41.5 102t101.5 42q58 0 101 -42.5t43 -101.5q0 -57 -43 -100t-101 -43z" />
    <glyph glyph-name="uni1ED9" unicode="&#x1ed9;" 
d="M260 1126l191 226h317l188 -226h-239l-109 129l-108 -129h-240zM608 -29q-249 0 -402 149t-153 392t153 392t402 149t402 -149t153 -392t-153 -392t-402 -149zM608 188q138 0 224 89t86 235t-86 235t-224 89t-223.5 -89t-85.5 -235t85.5 -235t223.5 -89zM608 -348
q-60 0 -101.5 42t-41.5 101q0 60 41.5 102t101.5 42q58 0 101 -42.5t43 -101.5q0 -57 -43 -100t-101 -43z" />
    <glyph glyph-name="uni1EDA" unicode="&#x1eda;" horiz-adv-x="1568" 
d="M1083 1686l-178 -220h-239l116 220h301zM1290 1255q108 -98 167 -240t59 -313q0 -328 -201.5 -529.5t-530.5 -201.5q-328 0 -529.5 201.5t-201.5 529.5q0 329 201.5 530.5t529.5 201.5q113 0 226 -29h59q44 0 74.5 27t30.5 67v105h102q41 -36 68.5 -88.5t27.5 -92.5
q0 -105 -82 -168zM784 217q206 0 331.5 133.5t125.5 351.5t-126 352t-331 134t-330.5 -134t-125.5 -352t125.5 -351.5t330.5 -133.5z" />
    <glyph glyph-name="uni1EDB" unicode="&#x1edb;" 
d="M889 1405l-180 -275h-240l119 275h301zM1169 1042q0 -62 -30 -112t-82 -78q106 -140 106 -340q0 -243 -153 -392t-402 -149t-402 149t-153 392t153 392t402 149q104 0 199 -29h59q44 0 74.5 27t30.5 67v105h102q41 -36 68.5 -88.5t27.5 -92.5zM608 188q138 0 224 89
t86 235t-86 235t-224 89t-223.5 -89t-85.5 -235t85.5 -235t223.5 -89z" />
    <glyph glyph-name="uni1EDC" unicode="&#x1edc;" horiz-adv-x="1568" 
d="M913 1466h-239l-178 220h301zM1290 1255q108 -98 167 -240t59 -313q0 -328 -201.5 -529.5t-530.5 -201.5q-328 0 -529.5 201.5t-201.5 529.5q0 329 201.5 530.5t529.5 201.5q113 0 226 -29h59q44 0 74.5 27t30.5 67v105h102q41 -36 68.5 -88.5t27.5 -92.5
q0 -105 -82 -168zM784 217q206 0 331.5 133.5t125.5 351.5t-126 352t-331 134t-330.5 -134t-125.5 -352t125.5 -351.5t330.5 -133.5z" />
    <glyph glyph-name="uni1EDD" unicode="&#x1edd;" 
d="M727 1130h-240l-180 275h301zM1169 1042q0 -62 -30 -112t-82 -78q106 -140 106 -340q0 -243 -153 -392t-402 -149t-402 149t-153 392t153 392t402 149q104 0 199 -29h59q44 0 74.5 27t30.5 67v105h102q41 -36 68.5 -88.5t27.5 -92.5zM608 188q138 0 224 89t86 235
t-86 235t-224 89t-223.5 -89t-85.5 -235t85.5 -235t223.5 -89z" />
    <glyph glyph-name="uni1EDE" unicode="&#x1ede;" horiz-adv-x="1568" 
d="M948 1714q0 37 -24.5 61.5t-61.5 24.5h-112v199q56 18 112 18q129 0 216 -87t87 -216q0 -107 -87 -178.5t-216 -71.5v164q37 0 61.5 24.5t24.5 61.5zM1290 1255q108 -98 167 -240t59 -313q0 -328 -201.5 -529.5t-530.5 -201.5q-328 0 -529.5 201.5t-201.5 529.5
q0 329 201.5 530.5t529.5 201.5q113 0 226 -29h59q44 0 74.5 27t30.5 67v105h102q41 -36 68.5 -88.5t27.5 -92.5q0 -105 -82 -168zM784 217q206 0 331.5 133.5t125.5 351.5t-126 352t-331 134t-330.5 -134t-125.5 -352t125.5 -351.5t330.5 -133.5z" />
    <glyph glyph-name="uni1EDF" unicode="&#x1edf;" 
d="M684 1331q0 37 -24.5 61.5t-61.5 24.5h-113v199q56 18 113 18q129 0 216 -87t87 -216q0 -107 -87 -178.5t-216 -71.5v164q37 0 61.5 24.5t24.5 61.5zM1169 1042q0 -62 -30 -112t-82 -78q106 -140 106 -340q0 -243 -153 -392t-402 -149t-402 149t-153 392t153 392t402 149
q104 0 199 -29h59q44 0 74.5 27t30.5 67v105h102q41 -36 68.5 -88.5t27.5 -92.5zM608 188q138 0 224 89t86 235t-86 235t-224 89t-223.5 -89t-85.5 -235t85.5 -235t223.5 -89z" />
    <glyph glyph-name="uni1EE0" unicode="&#x1ee0;" horiz-adv-x="1568" 
d="M678 1542q-26 0 -44 -17.5t-18 -43.5h-159q0 95 63.5 158t157.5 63q37 0 67.5 -11.5t81.5 -43.5q50 -33 64 -33q26 0 43.5 17.5t17.5 43.5h160q0 -94 -63.5 -157.5t-157.5 -63.5q-33 0 -64 12t-86 45q-46 31 -63 31zM1290 1255q108 -98 167 -240t59 -313
q0 -328 -201.5 -529.5t-530.5 -201.5q-328 0 -529.5 201.5t-201.5 529.5q0 329 201.5 530.5t529.5 201.5q113 0 226 -29h59q44 0 74.5 27t30.5 67v105h102q41 -36 68.5 -88.5t27.5 -92.5q0 -105 -82 -168zM784 217q206 0 331.5 133.5t125.5 351.5t-126 352t-331 134
t-330.5 -134t-125.5 -352t125.5 -351.5t330.5 -133.5z" />
    <glyph glyph-name="uni1EE1" unicode="&#x1ee1;" 
d="M485 1198q-31 0 -51 -20.5t-20 -51.5h-185q0 109 73.5 182.5t182.5 73.5q42 0 78 -13.5t94 -51.5q60 -37 74 -37q31 0 51.5 20.5t20.5 51.5h184q0 -109 -73.5 -182.5t-182.5 -73.5q-37 0 -73.5 13.5t-98.5 51.5q-55 37 -74 37zM1169 1042q0 -62 -30 -112t-82 -78
q106 -140 106 -340q0 -243 -153 -392t-402 -149t-402 149t-153 392t153 392t402 149q104 0 199 -29h59q44 0 74.5 27t30.5 67v105h102q41 -36 68.5 -88.5t27.5 -92.5zM608 188q138 0 224 89t86 235t-86 235t-224 89t-223.5 -89t-85.5 -235t85.5 -235t223.5 -89z" />
    <glyph glyph-name="uni1EE2" unicode="&#x1ee2;" horiz-adv-x="1568" 
d="M1290 1255q108 -98 167 -240t59 -313q0 -328 -201.5 -529.5t-530.5 -201.5q-328 0 -529.5 201.5t-201.5 529.5q0 329 201.5 530.5t529.5 201.5q113 0 226 -29h59q44 0 74.5 27t30.5 67v105h102q41 -36 68.5 -88.5t27.5 -92.5q0 -105 -82 -168zM784 217q206 0 331.5 133.5
t125.5 351.5t-126 352t-331 134t-330.5 -134t-125.5 -352t125.5 -351.5t330.5 -133.5zM784 -61q58 0 101 -42.5t43 -101.5q0 -57 -43 -100t-101 -43q-60 0 -101.5 42t-41.5 101q0 60 41.5 102t101.5 42z" />
    <glyph glyph-name="uni1EE3" unicode="&#x1ee3;" 
d="M1169 1042q0 -62 -30 -112t-82 -78q106 -140 106 -340q0 -243 -153 -392t-402 -149t-402 149t-153 392t153 392t402 149q104 0 199 -29h59q44 0 74.5 27t30.5 67v105h102q41 -36 68.5 -88.5t27.5 -92.5zM608 188q138 0 224 89t86 235t-86 235t-224 89t-223.5 -89
t-85.5 -235t85.5 -235t223.5 -89zM608 -61q58 0 101 -42.5t43 -101.5q0 -57 -43 -100t-101 -43q-60 0 -101.5 42t-41.5 101q0 60 41.5 102t101.5 42z" />
    <glyph glyph-name="uni1EE4" unicode="&#x1ee4;" horiz-adv-x="1437" 
d="M721 -29q-270 0 -436 153.5t-166 403.5v877h274v-877q0 -140 90 -225.5t238 -85.5q146 0 234.5 85.5t88.5 225.5v877h275v-877q0 -250 -164.5 -403.5t-433.5 -153.5zM721 -348q-60 0 -101.5 42t-41.5 101q0 60 41.5 102t101.5 42q58 0 100.5 -42.5t42.5 -101.5
q0 -57 -42.5 -100t-100.5 -43z" />
    <glyph glyph-name="uni1EE5" unicode="&#x1ee5;" horiz-adv-x="1179" 
d="M1085 1024v-1024h-245v76q-49 -47 -126.5 -76t-152.5 -29q-210 0 -338.5 114.5t-128.5 301.5v637h246v-608q0 -102 69 -165t181 -63t181 63t69 165v608h245zM578 -348q-60 0 -102 42t-42 101q0 60 42 102t102 42q58 0 100.5 -42.5t42.5 -101.5q0 -57 -42.5 -100
t-100.5 -43z" />
    <glyph glyph-name="uni1EE6" unicode="&#x1ee6;" horiz-adv-x="1437" 
d="M1135 1655q0 -107 -87.5 -178.5t-216.5 -71.5v164q37 0 62 24.5t25 61.5t-25 61.5t-62 24.5h-112v198q59 19 112 19q129 0 216.5 -87t87.5 -216zM721 -29q-270 0 -436 153.5t-166 403.5v877h274v-877q0 -140 90 -225.5t238 -85.5q146 0 234.5 85.5t88.5 225.5v877h275
v-877q0 -250 -164.5 -403.5t-433.5 -153.5z" />
    <glyph glyph-name="uni1EE7" unicode="&#x1ee7;" horiz-adv-x="1179" 
d="M893 1274q0 -107 -87 -178.5t-216 -71.5v164q37 0 61.5 24.5t24.5 61.5t-24.5 61.5t-61.5 24.5h-113v199q56 18 113 18q129 0 216 -87t87 -216zM1085 1024v-1024h-245v76q-49 -47 -126.5 -76t-152.5 -29q-210 0 -338.5 114.5t-128.5 301.5v637h246v-608q0 -102 69 -165
t181 -63t181 63t69 165v608h245z" />
    <glyph glyph-name="uni1EE8" unicode="&#x1ee8;" horiz-adv-x="1437" 
d="M1010 1686l-179 -220h-239l117 220h301zM1546 1423q0 -92 -64.5 -155t-162.5 -64v-676q0 -250 -164.5 -403.5t-433.5 -153.5q-270 0 -436 153.5t-166 403.5v877h274v-877q0 -140 90 -225.5t238 -85.5q146 0 234.5 85.5t88.5 225.5v877h199q44 0 74.5 27t30.5 67v105h102
q41 -36 68.5 -88.5t27.5 -92.5z" />
    <glyph glyph-name="uni1EE9" unicode="&#x1ee9;" horiz-adv-x="1179" 
d="M868 1405l-180 -275h-239l118 275h301zM1257 1042q0 -78 -47.5 -136t-124.5 -77v-829h-245v76q-49 -47 -126.5 -76t-152.5 -29q-210 0 -338.5 114.5t-128.5 301.5v637h246v-608q0 -102 69 -165t181 -63t181 63t69 165v608h114q44 0 74.5 27t30.5 67v105h102
q41 -36 68.5 -88.5t27.5 -92.5z" />
    <glyph glyph-name="uni1EEA" unicode="&#x1eea;" horiz-adv-x="1437" 
d="M840 1466h-240l-178 220h301zM1546 1423q0 -92 -64.5 -155t-162.5 -64v-676q0 -250 -164.5 -403.5t-433.5 -153.5q-270 0 -436 153.5t-166 403.5v877h274v-877q0 -140 90 -225.5t238 -85.5q146 0 234.5 85.5t88.5 225.5v877h199q44 0 74.5 27t30.5 67v105h102
q41 -36 68.5 -88.5t27.5 -92.5z" />
    <glyph glyph-name="uni1EEB" unicode="&#x1eeb;" horiz-adv-x="1179" 
d="M707 1130h-240l-180 275h301zM1257 1042q0 -78 -47.5 -136t-124.5 -77v-829h-245v76q-49 -47 -126.5 -76t-152.5 -29q-210 0 -338.5 114.5t-128.5 301.5v637h246v-608q0 -102 69 -165t181 -63t181 63t69 165v608h114q44 0 74.5 27t30.5 67v105h102q41 -36 68.5 -88.5
t27.5 -92.5z" />
    <glyph glyph-name="uni1EEC" unicode="&#x1eec;" horiz-adv-x="1437" 
d="M918 1655q0 37 -25 61.5t-62 24.5h-112v198q59 19 112 19q129 0 216.5 -87t87.5 -216q0 -107 -87.5 -178.5t-216.5 -71.5v164q37 0 62 24.5t25 61.5zM1546 1423q0 -92 -64.5 -155t-162.5 -64v-676q0 -250 -164.5 -403.5t-433.5 -153.5q-270 0 -436 153.5t-166 403.5v877
h274v-877q0 -140 90 -225.5t238 -85.5q146 0 234.5 85.5t88.5 225.5v877h199q44 0 74.5 27t30.5 67v105h102q41 -36 68.5 -88.5t27.5 -92.5z" />
    <glyph glyph-name="uni1EED" unicode="&#x1eed;" horiz-adv-x="1179" 
d="M676 1274q0 37 -24.5 61.5t-61.5 24.5h-113v199q56 18 113 18q129 0 216 -87t87 -216q0 -107 -87 -178.5t-216 -71.5v164q37 0 61.5 24.5t24.5 61.5zM1257 1042q0 -78 -47.5 -136t-124.5 -77v-829h-245v76q-49 -47 -126.5 -76t-152.5 -29q-210 0 -338.5 114.5
t-128.5 301.5v637h246v-608q0 -102 69 -165t181 -63t181 63t69 165v608h114q44 0 74.5 27t30.5 67v105h102q41 -36 68.5 -88.5t27.5 -92.5z" />
    <glyph glyph-name="uni1EEE" unicode="&#x1eee;" horiz-adv-x="1437" 
d="M604 1542q-26 0 -43.5 -17.5t-17.5 -43.5h-160q0 95 63.5 158t157.5 63q37 0 68 -11.5t82 -43.5q50 -33 63 -33q26 0 44 17.5t18 43.5h159q0 -94 -63.5 -157.5t-157.5 -63.5q-32 0 -63 11.5t-86 45.5q-46 31 -64 31zM1546 1423q0 -92 -64.5 -155t-162.5 -64v-676
q0 -250 -164.5 -403.5t-433.5 -153.5q-270 0 -436 153.5t-166 403.5v877h274v-877q0 -140 90 -225.5t238 -85.5q146 0 234.5 85.5t88.5 225.5v877h199q44 0 74.5 27t30.5 67v105h102q41 -36 68.5 -88.5t27.5 -92.5z" />
    <glyph glyph-name="uni1EEF" unicode="&#x1eef;" horiz-adv-x="1179" 
d="M465 1198q-31 0 -51.5 -20.5t-20.5 -51.5h-184q0 109 73.5 182.5t182.5 73.5q42 0 78 -13.5t94 -51.5q60 -37 74 -37q31 0 51 20.5t20 51.5h185q0 -109 -73.5 -182.5t-182.5 -73.5q-37 0 -73.5 13.5t-98.5 51.5q-55 37 -74 37zM1257 1042q0 -78 -47.5 -136t-124.5 -77
v-829h-245v76q-49 -47 -126.5 -76t-152.5 -29q-210 0 -338.5 114.5t-128.5 301.5v637h246v-608q0 -102 69 -165t181 -63t181 63t69 165v608h114q44 0 74.5 27t30.5 67v105h102q41 -36 68.5 -88.5t27.5 -92.5z" />
    <glyph glyph-name="uni1EF0" unicode="&#x1ef0;" horiz-adv-x="1437" 
d="M1546 1423q0 -92 -64.5 -155t-162.5 -64v-676q0 -250 -164.5 -403.5t-433.5 -153.5q-270 0 -436 153.5t-166 403.5v877h274v-877q0 -140 90 -225.5t238 -85.5q146 0 234.5 85.5t88.5 225.5v877h199q44 0 74.5 27t30.5 67v105h102q41 -36 68.5 -88.5t27.5 -92.5zM721 -61
q58 0 100.5 -42.5t42.5 -101.5q0 -57 -42.5 -100t-100.5 -43q-60 0 -101.5 42t-41.5 101q0 60 41.5 102t101.5 42z" />
    <glyph glyph-name="uni1EF1" unicode="&#x1ef1;" horiz-adv-x="1179" 
d="M1257 1042q0 -78 -47.5 -136t-124.5 -77v-829h-245v76q-49 -47 -126.5 -76t-152.5 -29q-210 0 -338.5 114.5t-128.5 301.5v637h246v-608q0 -102 69 -165t181 -63t181 63t69 165v608h114q44 0 74.5 27t30.5 67v105h102q41 -36 68.5 -88.5t27.5 -92.5zM578 -61
q58 0 100.5 -42.5t42.5 -101.5q0 -57 -42.5 -100t-100.5 -43q-60 0 -102 42t-42 101q0 60 42 102t102 42z" />
    <glyph glyph-name="Ygrave" unicode="&#x1ef2;" horiz-adv-x="1286" 
d="M354 1686h301l117 -220h-240zM506 0v475l-461 930h303l295 -614l295 614h303l-461 -930v-475h-274z" />
    <glyph glyph-name="ygrave" unicode="&#x1ef3;" horiz-adv-x="1122" 
d="M438 1130l-180 275h301l119 -275h-240zM260 -381l176 447l-391 958h262l254 -643l252 643h264l-553 -1405h-264z" />
    <glyph glyph-name="uni1EF4" unicode="&#x1ef4;" horiz-adv-x="1286" 
d="M506 0v475l-461 930h303l295 -614l295 614h303l-461 -930v-475h-274zM643 -348q-60 0 -101.5 42t-41.5 101q0 60 41.5 102t101.5 42q58 0 100.5 -42.5t42.5 -101.5q0 -57 -42.5 -100t-100.5 -43z" />
    <glyph glyph-name="uni1EF5" unicode="&#x1ef5;" horiz-adv-x="1122" 
d="M260 -381l176 447l-391 958h262l254 -643l252 643h264l-553 -1405h-264zM823 -348q-60 0 -101.5 42t-41.5 101q0 60 41.5 102t101.5 42q59 0 101.5 -42.5t42.5 -101.5q0 -57 -43 -100t-101 -43z" />
    <glyph glyph-name="uni1EF6" unicode="&#x1ef6;" horiz-adv-x="1286" 
d="M1059 1653q0 -107 -87 -178.5t-216 -71.5v164q37 0 61.5 24.5t24.5 61.5t-24.5 61.5t-61.5 24.5h-113v198q59 19 113 19q129 0 216 -87t87 -216zM506 0v475l-461 930h303l295 -614l295 614h303l-461 -930v-475h-274z" />
    <glyph glyph-name="uni1EF7" unicode="&#x1ef7;" horiz-adv-x="1122" 
d="M815 1274q0 -107 -87 -178.5t-216 -71.5v164q37 0 61.5 24.5t24.5 61.5t-24.5 61.5t-61.5 24.5h-113v199q56 18 113 18q129 0 216 -87t87 -216zM260 -381l176 447l-391 958h262l254 -643l252 643h264l-553 -1405h-264z" />
    <glyph glyph-name="uni1EF8" unicode="&#x1ef8;" horiz-adv-x="1286" 
d="M811 1675h160q0 -94 -63.5 -157.5t-157.5 -63.5q-33 0 -64 12t-86 45q-46 31 -63 31q-26 0 -44 -17.5t-18 -43.5h-160q0 95 64 158t158 63q37 0 67.5 -11.5t81.5 -43.5q50 -33 64 -33q26 0 43.5 17.5t17.5 43.5zM506 0v475l-461 930h303l295 -614l295 614h303l-461 -930
v-475h-274z" />
    <glyph glyph-name="uni1EF9" unicode="&#x1ef9;" horiz-adv-x="1122" 
d="M754 1352h184q0 -109 -73.5 -182.5t-182.5 -73.5q-37 0 -73.5 13.5t-98.5 51.5q-55 37 -74 37q-31 0 -51 -20.5t-20 -51.5h-185q0 109 73.5 182.5t182.5 73.5q42 0 78 -13.5t94 -51.5q60 -37 74 -37q31 0 51.5 20.5t20.5 51.5zM260 -381l176 447l-391 958h262l254 -643
l252 643h264l-553 -1405h-264z" />
    <glyph glyph-name="endash" unicode="&#x2013;" horiz-adv-x="1269" 
d="M94 381v221h1082v-221h-1082z" />
    <glyph glyph-name="emdash" unicode="&#x2014;" horiz-adv-x="1771" 
d="M94 381v221h1583v-221h-1583z" />
    <glyph glyph-name="quoteleft" unicode="&#x2018;" horiz-adv-x="491" 
d="M397 1405v-199q-47 0 -76.5 -29.5t-29.5 -76.5h106v-303h-303v303q0 137 83.5 221t219.5 84z" />
    <glyph glyph-name="quoteright" unicode="&#x2019;" horiz-adv-x="491" 
d="M94 797v198q47 0 77 30t30 77h-107v303h303v-303q0 -137 -83.5 -221t-219.5 -84z" />
    <glyph glyph-name="quotesinglbase" unicode="&#x201a;" horiz-adv-x="491" 
d="M94 -305v199q47 0 77 29.5t30 76.5h-107v303h303v-303q0 -137 -83.5 -221t-219.5 -84z" />
    <glyph glyph-name="quotedblleft" unicode="&#x201c;" horiz-adv-x="860" 
d="M397 1405v-199q-47 0 -76.5 -29.5t-29.5 -76.5h106v-303h-303v303q0 137 83.5 221t219.5 84zM766 1405v-199q-47 0 -77 -29.5t-30 -76.5h107v-303h-303v303q0 137 83.5 221t219.5 84z" />
    <glyph glyph-name="quotedblright" unicode="&#x201d;" horiz-adv-x="860" 
d="M94 797v198q47 0 77 30t30 77h-107v303h303v-303q0 -137 -83.5 -221t-219.5 -84zM463 797v198q47 0 76.5 30t29.5 77h-106v303h303v-303q0 -137 -83.5 -221t-219.5 -84z" />
    <glyph glyph-name="quotedblbase" unicode="&#x201e;" horiz-adv-x="864" 
d="M94 -305v199q47 0 77 29.5t30 76.5h-107v303h303v-303q0 -137 -83.5 -221t-219.5 -84zM467 -305v199q47 0 76.5 29.5t29.5 76.5h-106v303h303v-303q0 -137 -83.5 -221t-219.5 -84z" />
    <glyph glyph-name="dagger" unicode="&#x2020;" horiz-adv-x="1253" 
d="M506 -195v1184h-412v221h412v381h242v-381h411v-221h-411v-1184h-242z" />
    <glyph glyph-name="daggerdbl" unicode="&#x2021;" horiz-adv-x="1253" 
d="M506 -197v383h-412v222h412v581h-412v221h412v381h242v-381h411v-221h-411v-581h411v-222h-411v-383h-242z" />
    <glyph glyph-name="bullet" unicode="&#x2022;" horiz-adv-x="645" 
d="M324 289q-97 0 -163.5 66t-66.5 163q0 95 67 161t163 66q95 0 161 -66t66 -161t-66 -162t-161 -67z" />
    <glyph glyph-name="ellipsis" unicode="&#x2026;" horiz-adv-x="1675" 
d="M94 0v303h303v-303h-303zM692 0v303h303v-303h-303zM1278 0v303h303v-303h-303z" />
    <glyph glyph-name="perthousand" unicode="&#x2030;" horiz-adv-x="2551" 
d="M412 545q-169 0 -264 117.5t-95 326.5t95 327t264 118q167 0 261.5 -118t94.5 -327t-94.5 -326.5t-261.5 -117.5zM369 -20l860 1445h225l-860 -1445h-225zM412 729q76 0 118.5 68.5t42.5 191.5t-42.5 192.5t-118.5 69.5t-119 -69.5t-43 -192.5t42.5 -191.5t119.5 -68.5z
M1397 -23q-169 0 -264 118t-95 327t95 326.5t264 117.5q167 0 261.5 -117.5t94.5 -326.5t-94.5 -327t-261.5 -118zM2142 -23q-169 0 -263.5 118t-94.5 327t94.5 326.5t263.5 117.5q167 0 262 -117.5t95 -326.5t-95 -327t-262 -118zM1397 162q77 0 119.5 68.5t42.5 191.5
t-43 192.5t-119 69.5t-119 -69.5t-43 -192.5t42.5 -191.5t119.5 -68.5zM2142 162q77 0 119.5 68.5t42.5 191.5t-43 192.5t-119 69.5t-119 -69.5t-43 -192.5t42.5 -191.5t119.5 -68.5z" />
    <glyph glyph-name="guilsinglleft" unicode="&#x2039;" horiz-adv-x="714" 
d="M383 109l-289 401l289 401h238l-293 -401l290 -401h-235z" />
    <glyph glyph-name="guilsinglright" unicode="&#x203a;" horiz-adv-x="714" 
d="M332 109h-236l291 401l-293 401h238l289 -401z" />
    <glyph glyph-name="fraction" unicode="&#x2044;" horiz-adv-x="1175" 
d="M45 -20l860 1445h225l-860 -1445h-225z" />
    <glyph glyph-name="Euro" unicode="&#x20ac;" horiz-adv-x="1456" 
d="M836 -29q-203 0 -360.5 126t-211.5 331h-207l29 164h152q-5 82 -5 110t5 111h-181l29 164h180q53 206 209.5 331.5t360.5 125.5q201 0 357 -125.5t210 -331.5h-246q-34 107 -122.5 173.5t-198.5 66.5t-199 -66.5t-123 -173.5h455l-29 -164h-457q-6 -47 -6 -108t6 -113
h418l-29 -164h-360q34 -108 123 -174t201 -66t200.5 66t120.5 174h246q-54 -206 -210 -331.5t-357 -125.5z" />
    <glyph glyph-name="trademark" unicode="&#x2122;" horiz-adv-x="1660" 
d="M291 668v557h-197v180h582v-180h-197v-557h-188zM786 668v737h199l191 -457l192 457h199v-737h-189v424l-174 -424h-53l-174 424v-424h-191z" />
    <glyph glyph-name="arrowleft" unicode="&#x2190;" horiz-adv-x="1228" 
d="M1260 782v-221h-877l285 -282l-160 -160l-551 553l551 553l156 -158l-285 -285h881z" />
    <glyph glyph-name="arrowup" unicode="&#x2191;" horiz-adv-x="1228" 
d="M614 1448l553 -551l-159 -160l-283 285v-1022h-221v1026l-285 -285l-158 156z" />
    <glyph glyph-name="arrowright" unicode="&#x2192;" horiz-adv-x="1228" 
d="M-31 782h881l-285 285l156 158l551 -553l-551 -553l-160 160l285 282h-877v221z" />
    <glyph glyph-name="arrowdown" unicode="&#x2193;" horiz-adv-x="1228" 
d="M1008 668l159 -160l-553 -551l-553 551l158 156l285 -285v1026h221v-1022z" />
    <glyph glyph-name="arrowboth" unicode="&#x2194;" horiz-adv-x="1228" 
d="M856 1225l551 -553l-551 -553l-160 160l285 282h-733l284 -282l-159 -160l-551 553l551 553l155 -158l-284 -285h741l-285 285z" />
    <glyph glyph-name="arrowupdn" unicode="&#x2195;" horiz-adv-x="1228" 
d="M725 354l283 285l159 -160l-553 -551l-553 551l158 156l285 -285v709l-285 -285l-158 156l553 551l553 -551l-159 -160l-283 285v-701z" />
    <glyph glyph-name="uni2196" unicode="&#x2196;" horiz-adv-x="1228" 
d="M1178 276l-160 -159l-678 682l2 -400h-225v781l780 2v-221h-403z" />
    <glyph glyph-name="uni2197" unicode="&#x2197;" horiz-adv-x="1228" 
d="M104 276l684 685h-403v221l780 -2v-781h-225l2 400l-678 -682z" />
    <glyph glyph-name="uni2198" unicode="&#x2198;" horiz-adv-x="1228" 
d="M104 1067l160 160l678 -682l-2 399h225v-780l-780 -2v221h403z" />
    <glyph glyph-name="uni2199" unicode="&#x2199;" horiz-adv-x="1228" 
d="M1178 1067l-684 -684h403v-221l-780 2v780h225l-2 -399l678 682z" />
    <glyph glyph-name="partialdiff" unicode="&#x2202;" horiz-adv-x="1230" 
d="M594 -29q-243 0 -392 151t-149 398t145 398t382 151q122 0 225 -50t170 -142q-60 166 -165.5 256t-240.5 90q-105 0 -194 -74l-119 176q139 109 313 109q117 0 217.5 -42t171.5 -114.5t121.5 -168.5t74.5 -204t24 -221q0 -109 -23 -211.5t-70.5 -194t-115.5 -159.5
t-164.5 -108t-210.5 -40zM594 182q137 0 221 93t84 245q0 151 -84 243.5t-221 92.5q-139 0 -224 -92.5t-85 -243.5q0 -152 85 -245t224 -93z" />
    <glyph glyph-name="emptyset" unicode="&#x2205;" horiz-adv-x="1210" 
d="M1157 938l-113 -113q101 -141 101 -313q0 -147 -72.5 -271.5t-197 -197t-271.5 -72.5q-172 0 -313 101l-111 -111l-127 127l111 111q-101 141 -101 313q0 147 73 271.5t197.5 197t270.5 72.5q173 0 314 -101l112 113zM281 512q0 -87 38 -158l443 443q-73 39 -158 39
q-133 0 -228 -95t-95 -229zM928 512q0 85 -39 158l-443 -443q73 -39 158 -39q135 0 229.5 94.5t94.5 229.5z" />
    <glyph glyph-name="product" unicode="&#x220f;" horiz-adv-x="1253" 
d="M94 -195v1786h1065v-1786h-241v1565h-582v-1565h-242z" />
    <glyph glyph-name="summation" unicode="&#x2211;" horiz-adv-x="1253" 
d="M94 -195v166l512 727l-512 727v166h1065v-221h-737l448 -633v-78l-448 -632h737v-222h-1065z" />
    <glyph glyph-name="minus" unicode="&#x2212;" horiz-adv-x="1253" 
d="M94 401v222h1065v-222h-1065z" />
    <glyph glyph-name="radical" unicode="&#x221a;" horiz-adv-x="1253" 
d="M582 -195l-273 533l-106 -57l-109 217l320 166l202 -394l295 1321h248l-399 -1786h-178z" />
    <glyph glyph-name="infinity" unicode="&#x221e;" horiz-adv-x="1599" 
d="M467 113q-108 0 -195 59t-132.5 149.5t-45.5 190.5q0 102 46.5 193t133 148.5t193.5 57.5q225 0 334 -145q101 145 332 145q108 0 195 -58.5t132 -149t45 -191.5t-45.5 -192t-132.5 -149t-194 -58q-224 0 -334 147q-102 -147 -332 -147zM494 326q64 0 121 48t85 138
q-26 91 -84 139.5t-122 48.5q-65 0 -109.5 -49t-44.5 -139q0 -88 44.5 -137t109.5 -49zM1106 326q65 0 109.5 49t44.5 137t-44.5 138t-109.5 50q-64 0 -122.5 -49t-84.5 -139q28 -89 85.5 -137.5t121.5 -48.5z" />
    <glyph glyph-name="integral" unicode="&#x222b;" horiz-adv-x="1036" 
d="M340 -410q-132 0 -213.5 78.5t-81.5 206.5h234q1 -29 18 -46t43 -17t41.5 19t15.5 50v1262q0 131 83 211t218 80q132 0 212.5 -80t80.5 -211h-233q0 31 -17 50t-43 19t-42.5 -19t-16.5 -50v-1262q0 -131 -82 -211t-217 -80z" />
    <glyph glyph-name="approxequal" unicode="&#x2248;" horiz-adv-x="1435" 
d="M94 555q0 181 106 292t279 111q62 0 137 -28.5t132 -62.5t120 -62.5t103 -28.5q57 0 103 49t65 129h202q-2 -180 -103 -289.5t-267 -109.5q-59 0 -132 28.5t-129.5 62.5t-121 62.5t-109.5 28.5q-66 0 -116.5 -50t-65.5 -132h-203zM94 135q0 182 106 293t279 111
q62 0 137 -28.5t132 -63t120 -63t103 -28.5q57 0 103 49.5t65 129.5h202q-2 -180 -103 -290t-267 -110q-59 0 -132 28.5t-129.5 62.5t-121 62.5t-109.5 28.5q-66 0 -116.5 -50t-65.5 -132h-203z" />
    <glyph glyph-name="notequal" unicode="&#x2260;" horiz-adv-x="1253" 
d="M264 0l78 176h-248v215h344l109 242h-453v217h549l78 174h268l-76 -174h246v-217h-344l-106 -242h450v-215h-549l-78 -176h-268z" />
    <glyph glyph-name="lessequal" unicode="&#x2264;" horiz-adv-x="1314" 
d="M1159 281l-1065 303v172l1065 303v-248l-600 -141l600 -144v-245zM1159 0h-1065v221h1065v-221z" />
    <glyph glyph-name="greaterequal" unicode="&#x2265;" horiz-adv-x="1253" 
d="M94 281v245l600 144l-600 141v248l1065 -303v-172zM94 0v221h1065v-221h-1065z" />
    <glyph glyph-name="lozenge" unicode="&#x25ca;" horiz-adv-x="1253" 
d="M555 -170l-489 868l489 869h143l488 -869l-488 -868h-143zM627 188l278 510l-278 510l-281 -510z" />
    <glyph glyph-name="i.loclTRK" horiz-adv-x="434" 
d="M217 1085q-60 0 -101.5 42.5t-41.5 101.5q0 60 41.5 101.5t101.5 41.5q59 0 101 -42t42 -101q0 -57 -42.5 -100.5t-100.5 -43.5zM94 0v1024h246v-1024h-246z" />
    <glyph glyph-name="a.alt" 
d="M586 -29q-239 0 -386 149t-147 392t153 392t402 149t402 -149t153 -392v-512h-245v111q-60 -63 -151.5 -101.5t-180.5 -38.5zM610 188q138 0 223 89t85 235t-85 235t-223 89q-140 0 -225.5 -89t-85.5 -235t85.5 -235t225.5 -89z" />
    <glyph glyph-name="b.alt" horiz-adv-x="1257" 
d="M649 -29q-249 0 -402 149t-153 392v893h246v-492q57 63 148.5 101.5t183.5 38.5q239 0 385.5 -149t146.5 -392t-153 -392t-402 -149zM647 188q140 0 225.5 89t85.5 235t-85.5 235t-225.5 89q-138 0 -222.5 -89t-84.5 -235t84.5 -235t222.5 -89z" />
    <glyph glyph-name="d.alt" horiz-adv-x="1257" 
d="M608 -29q-249 0 -402 149t-153 392t147 392t386 149q92 0 183.5 -38.5t148.5 -101.5v492h245v-893q0 -243 -153 -392t-402 -149zM610 188q138 0 223 89t85 235t-85 235t-223 89q-140 0 -225.5 -89t-85.5 -235t85.5 -235t225.5 -89z" />
    <glyph glyph-name="g.alt" horiz-adv-x="1220" 
d="M590 -410q-200 0 -345 113t-182 297h252q26 -86 102 -139.5t173 -53.5q131 0 211 88.5t80 233.5q-57 -58 -143 -93.5t-171 -35.5q-230 0 -372 145t-142 381t148 381.5t389 145.5t388.5 -145t147.5 -382v-397q0 -242 -147.5 -390.5t-388.5 -148.5zM592 217q129 0 209 85.5
t80 223.5t-80 224t-209 86q-132 0 -212.5 -86t-80.5 -224t80.5 -223.5t212.5 -85.5z" />
    <glyph glyph-name="m.alt" horiz-adv-x="1671" 
d="M94 0v647q0 183 126.5 294.5t330.5 111.5q85 0 170 -35t139 -92q54 57 139 92t170 35q183 0 295.5 -111.5t112.5 -292.5v-649h-246v649q0 83 -51.5 135t-134.5 52t-135 -52t-52 -135v-649h-245v649q0 83 -52 135t-135 52t-134.5 -52t-51.5 -135v-649h-246z" />
    <glyph glyph-name="n.alt" horiz-adv-x="1179" 
d="M94 0v608q0 200 136.5 322.5t359.5 122.5t359 -122.5t136 -322.5v-608h-245v608q0 102 -69 165t-181 63t-181 -63t-69 -165v-608h-246z" />
    <glyph glyph-name="p.alt" horiz-adv-x="1257" 
d="M649 1053q249 0 402 -149t153 -392t-146.5 -392t-385.5 -149q-92 0 -183.5 38.5t-148.5 101.5v-492h-246v893q0 243 153 392t402 149zM647 836q-138 0 -222.5 -89t-84.5 -235t84.5 -235t222.5 -89q140 0 225.5 89t85.5 235t-85.5 235t-225.5 89z" />
    <glyph glyph-name="q.alt" horiz-adv-x="1257" 
d="M608 1053q249 0 402 -149t153 -392v-893h-245v492q-57 -63 -148.5 -101.5t-183.5 -38.5q-239 0 -386 149t-147 392t153 392t402 149zM610 836q-140 0 -225.5 -89t-85.5 -235t85.5 -235t225.5 -89q138 0 223 89t85 235t-85 235t-223 89z" />
    <glyph glyph-name="u.alt" horiz-adv-x="1179" 
d="M94 1024h246v-608q0 -102 69 -165t181 -63t181 63t69 165v608h245v-608q0 -200 -136 -322.5t-359 -122.5t-359.5 122.5t-136.5 322.5v608z" />
    <glyph glyph-name="y.alt" horiz-adv-x="1193" 
d="M604 -410q-214 0 -354.5 113t-155.5 297h246q10 -86 83.5 -139.5t180.5 -53.5q112 0 181 59t69 154v105q-40 -57 -114.5 -91t-159.5 -34q-212 0 -341.5 122t-129.5 322v580h245v-580q0 -103 68.5 -165t181.5 -62t181.5 62t68.5 165v580h246v-1004q0 -193 -136.5 -311.5
t-359.5 -118.5z" />
    <glyph glyph-name="zero.numr" horiz-adv-x="821" 
d="M412 545q-169 0 -264 117.5t-95 326.5t95 327t264 118q167 0 261.5 -118t94.5 -327t-94.5 -326.5t-261.5 -117.5zM412 729q76 0 118.5 68.5t42.5 191.5t-42.5 192.5t-118.5 69.5t-119 -69.5t-43 -192.5t42.5 -191.5t119.5 -68.5z" />
    <glyph glyph-name="one.numr" horiz-adv-x="530" 
d="M244 547v606q-66 -37 -187 -37v158q105 8 149 34t62 97h168v-858h-192z" />
    <glyph glyph-name="two.numr" horiz-adv-x="761" 
d="M59 555v170q295 192 379 266q34 31 55 70.5t21 71.5q0 52 -32 83t-85 31q-80 0 -118.5 -42.5t-38.5 -131.5h-187q0 171 89.5 264t254.5 93q140 0 226 -82t86 -215q0 -32 -6 -61.5t-13.5 -53t-25 -49.5t-29.5 -43.5t-39.5 -42t-42 -37t-50 -37.5t-50.5 -35t-56 -37h312
v-182h-650z" />
    <glyph glyph-name="three.numr" horiz-adv-x="780" 
d="M387 547q-143 0 -235 80.5t-99 212.5h176q5 -50 48.5 -80.5t109.5 -30.5q69 0 108.5 30.5t39.5 71.5q0 38 -36.5 66.5t-101.5 28.5h-121v153h121q55 0 86 24.5t31 57.5q0 34 -33 59t-92 25q-122 0 -145 -131h-170q11 144 93.5 228.5t221.5 84.5q141 0 228.5 -67.5
t87.5 -177.5q0 -47 -30.5 -96.5t-80.5 -81.5q60 -29 96.5 -79t36.5 -102q0 -125 -93 -200.5t-247 -75.5z" />
    <glyph glyph-name="four.numr" horiz-adv-x="786" 
d="M406 553v225h-349v144l346 483h193v-447h133v-180h-133v-225h-190zM268 958h138v191z" />
    <glyph glyph-name="slashtight" horiz-adv-x="1155" 
d="M301 442l627 584v-278l-627 -584v278z" />
    <glyph glyph-name="straightcaron" horiz-adv-x="1128" 
d="M489 1405h250l-24 -481h-201z" />
    <glyph glyph-name="thinbar" horiz-adv-x="1228" 
d="M567 1591h95v-1972h-95v1972z" />
    <glyph glyph-name="downArrowSolid" horiz-adv-x="1228" 
d="M1229 1004h-1229l614 -664z" />
    <glyph glyph-name="upArrowSolid" horiz-adv-x="1228" 
d="M1229 340l-615 664l-614 -664h1229z" />
    <glyph glyph-name="rightArrowSolid" horiz-adv-x="1228" 
d="M283 57l663 615l-663 614v-1229z" />
    <glyph glyph-name="leftArrowSolid" horiz-adv-x="1228" 
d="M946 57v1229l-663 -614z" />
    <glyph glyph-name="Padlock" horiz-adv-x="1228" 
d="M1055 1024h174v-1024h-1229v1024h174q0 183 128.5 312.5t311.5 129.5t312 -129.5t129 -312.5zM379 1024h471q0 100 -68 169t-168 69q-98 0 -166.5 -69.5t-68.5 -168.5z" />
    <glyph glyph-name="Star" horiz-adv-x="1228" 
d="M616 1323l-159 -487h-508l413 -324l-159 -512l413 303l414 -303l-160 512l410 324h-508z" />
    <glyph glyph-name="Search" horiz-adv-x="1228" 
d="M1384 74l-137 -137l-422 423q-160 -114 -354 -114q-122 0 -234 48t-193 129t-129 193t-48 234t48 234t129 193t193 129t234 48t234 -48t193 -129t129 -193t48 -234q0 -194 -114 -354zM471 440q170 0 290 120t120 290t-120 290t-290 120t-290 -120t-120 -290t120 -290
t290 -120z" />
    <glyph glyph-name="Diamond" horiz-adv-x="1228" 
d="M1137 631l-523 524l-522 -524l522 -520z" />
    </font>
</defs>
</svg>
